M48
METRIC,TZ
T1C0.300
T2C0.600
T3C0.900
T4C1.000
T5C1.298
T6C4.300
T7C0.900
%
G90
G05
T1
X1016Y-18542
X1016Y-21971
X1016Y-23241
X1016Y-26924
X1016Y-28702
X1016Y-29718
X1016Y-30607
X1016Y-31496
X1016Y-32385
X1016Y-33401
X1143Y-17272
X1270Y-34290
X1270Y-35052
X1270Y-36068
X1270Y-36957
X1270Y-37973
X1270Y-43053
X1270Y-43942
X1270Y-44831
X1270Y-45720
X1270Y-46609
X1270Y-47498
X1270Y-48387
X1270Y-49276
X1270Y-50546
X1270Y-51435
X1270Y-52324
X1270Y-53213
X1270Y-54102
X1270Y-54991
X1270Y-55880
X1270Y-56642
X1270Y-57531
X2159Y-34290
X2159Y-35052
X2159Y-43053
X2159Y-43942
X2159Y-44831
X2159Y-45720
X2159Y-46609
X2159Y-47498
X2159Y-48387
X2159Y-49276
X2159Y-50546
X2159Y-51435
X2159Y-52324
X2159Y-53213
X2159Y-54102
X2159Y-54991
X2159Y-55880
X2159Y-56642
X2159Y-57531
X2413Y-17272
X2413Y-28956
X2540Y-61595
X2540Y-62865
X2540Y-64135
X2540Y-65405
X2540Y-66675
X2540Y-67945
X2540Y-69215
X2540Y-70485
X2540Y-71755
X2540Y-73025
X2540Y-74295
X3048Y-34290
X3048Y-35052
X3048Y-47498
X3048Y-48387
X3048Y-49276
X3048Y-50546
X3048Y-51435
X3048Y-52324
X3048Y-53213
X3048Y-54102
X3048Y-54991
X3048Y-55880
X3048Y-56642
X3048Y-57531
X3175Y-28956
X3175Y-39370
X3175Y-40005
X3175Y-40640
X3175Y-41275
X3175Y-41910
X3556Y-20828
X3683Y-17272
X3810Y-34290
X3810Y-35052
X3810Y-39370
X3810Y-40005
X3810Y-40640
X3810Y-41275
X3810Y-41910
X3937Y-47498
X3937Y-48387
X3937Y-49276
X3937Y-50546
X3937Y-51435
X3937Y-52324
X3937Y-53213
X3937Y-54102
X3937Y-54991
X3937Y-55880
X3937Y-56642
X3937Y-57531
X4064Y-28956
X4445Y-39370
X4445Y-40005
X4445Y-40640
X4445Y-41275
X4445Y-41910
X4699Y-34290
X4699Y-35052
X4826Y-28956
X4826Y-47498
X4826Y-48387
X4826Y-49276
X4826Y-54991
X4826Y-55880
X4826Y-56642
X4826Y-57531
X4953Y-17272
X5080Y-39370
X5080Y-40005
X5080Y-40640
X5080Y-41275
X5080Y-41910
X5461Y-34290
X5461Y-35052
X5588Y-20828
X5715Y-39370
X5715Y-40005
X5715Y-40640
X5715Y-41275
X5715Y-41910
X5715Y-47498
X5715Y-48387
X5715Y-49276
X5715Y-54991
X5715Y-55880
X5715Y-56642
X5715Y-57531
X6096Y-28956
X6223Y-17272
X6350Y-34290
X6350Y-35052
X6350Y-39370
X6350Y-40005
X6350Y-40640
X6350Y-41275
X6350Y-41910
X6604Y-47498
X6604Y-48387
X6604Y-49276
X6604Y-55880
X6604Y-56642
X6604Y-57531
X6858Y-28956
X6858Y-61595
X6858Y-62865
X6858Y-64135
X6858Y-65405
X6858Y-66675
X6858Y-67945
X6858Y-69215
X6858Y-70485
X6858Y-71755
X6858Y-73025
X6858Y-74295
X6985Y-4191
X6985Y-39370
X6985Y-40005
X6985Y-40640
X6985Y-41275
X6985Y-41910
X7239Y-34290
X7239Y-35052
X7493Y-47498
X7493Y-55880
X7493Y-56642
X7493Y-57531
X7620Y-17272
X7620Y-20828
X7620Y-39370
X7620Y-40005
X7620Y-40640
X7620Y-41275
X7620Y-41910
X8001Y-34290
X8001Y-35052
X8255Y-39370
X8255Y-40005
X8255Y-40640
X8255Y-41275
X8255Y-41910
X8255Y-51181
X8382Y-28956
X8382Y-55880
X8382Y-56642
X8382Y-57531
X8890Y-34290
X8890Y-35052
X8890Y-39370
X8890Y-40005
X8890Y-40640
X8890Y-41275
X8890Y-41910
X9017Y-17272
X9144Y-28956
X9144Y-65532
X9144Y-66421
X9144Y-67310
X9144Y-68199
X9271Y-51181
X9271Y-55880
X9271Y-56642
X9271Y-57531
X9525Y-39370
X9525Y-40005
X9525Y-40640
X9525Y-41275
X9525Y-41910
X9652Y-20925
X9652Y-34290
X9652Y-35052
X10160Y-39370
X10160Y-40005
X10160Y-40640
X10160Y-41275
X10160Y-41910
X10160Y-55880
X10160Y-56642
X10160Y-57531
X10160Y-65532
X10160Y-66421
X10160Y-67310
X10160Y-68199
X10287Y-17272
X10287Y-28956
X10541Y-34290
X10541Y-35052
X10795Y-39370
X10795Y-40005
X10795Y-40640
X10795Y-41275
X10795Y-41910
X11049Y-55880
X11049Y-56642
X11049Y-57531
X11176Y-28956
X11430Y-34290
X11430Y-35052
X11430Y-39370
X11430Y-40005
X11430Y-40640
X11430Y-41275
X11430Y-41910
X11430Y-61214
X11430Y-62103
X11430Y-62992
X11430Y-63881
X11430Y-64770
X11430Y-65659
X11430Y-66548
X11430Y-67437
X11430Y-68326
X11430Y-69215
X11430Y-70104
X11430Y-70993
X11430Y-71882
X11430Y-72771
X11430Y-73660
X11430Y-74549
X11557Y-17272
X11938Y-55880
X11938Y-56642
X11938Y-57531
X12065Y-22098
X12065Y-39370
X12065Y-40005
X12065Y-40640
X12065Y-41275
X12065Y-41910
X12192Y-30734
X12192Y-34290
X12192Y-35179
X12319Y-20174
X12319Y-27559
X12446Y-61214
X12446Y-62103
X12446Y-62992
X12446Y-63881
X12446Y-64770
X12446Y-65659
X12446Y-66548
X12446Y-67437
X12446Y-68326
X12446Y-69215
X12446Y-70104
X12446Y-70993
X12446Y-71882
X12446Y-72771
X12446Y-73660
X12446Y-74549
X12573Y-18542
X12700Y-39370
X12700Y-40005
X12700Y-40640
X12700Y-41275
X12700Y-41910
X12827Y-31496
X12827Y-55880
X12827Y-56642
X12827Y-57531
X13081Y-28194
X13081Y-33401
X13081Y-34290
X13081Y-35052
X13099Y-20174
X13335Y-32385
X13462Y-29464
X13716Y-55880
X13716Y-56642
X13716Y-57531
X13970Y-9525
X14605Y-55880
X14605Y-56642
X14605Y-57531
X14732Y-14859
X14859Y-28321
X15240Y-54991
X15240Y-61595
X15240Y-62865
X15240Y-64135
X15240Y-65405
X15240Y-66675
X15240Y-67945
X15240Y-69215
X15240Y-70485
X15240Y-71755
X15240Y-73025
X15240Y-74295
X15494Y-5842
X15621Y-3302
X15748Y-29845
X15748Y-30734
X16383Y-18415
X16383Y-32766
X16510Y-40005
X16510Y-41275
X16637Y-34036
X16637Y-34671
X16637Y-35433
X16637Y-36195
X16891Y-33401
X17018Y-32385
X17018Y-43815
X17018Y-44704
X17018Y-45593
X17018Y-46482
X17018Y-47371
X17018Y-48260
X17018Y-49149
X17145Y-38735
X17145Y-39370
X17145Y-40640
X17145Y-41910
X17272Y-35052
X17272Y-35814
X17399Y-12192
X17526Y-34290
X17526Y-37211
X17653Y-15748
X17653Y-31877
X17653Y-50927
X17653Y-51943
X17653Y-53086
X17653Y-54102
X17653Y-55118
X17653Y-56134
X17780Y-39370
X17780Y-40005
X17780Y-41275
X17780Y-42545
X17780Y-61595
X17780Y-62865
X17780Y-64135
X17780Y-65405
X17780Y-66675
X17780Y-67945
X17780Y-69215
X17780Y-70485
X17780Y-71755
X17780Y-73025
X17780Y-74295
X17907Y-43815
X17907Y-44704
X17907Y-45593
X17907Y-46482
X17907Y-47371
X17907Y-48260
X17907Y-49149
X18161Y-33274
X18288Y-30734
X18415Y-38100
X18415Y-39370
X18415Y-40640
X18415Y-41910
X18669Y-56134
X18669Y-57023
X18796Y-43815
X18796Y-44704
X18796Y-45593
X18796Y-46482
X18796Y-47371
X18796Y-48260
X18796Y-49149
X18923Y-32512
X18923Y-33274
X19050Y-30226
X19050Y-38100
X19050Y-39370
X19050Y-40005
X19050Y-40640
X19050Y-41275
X19050Y-42545
X19177Y-9906
X19304Y-20174
X19304Y-24003
X19558Y-32512
X19558Y-33274
X19685Y-31750
X19685Y-38100
X19685Y-39370
X19685Y-40005
X19685Y-40640
X19685Y-41910
X19685Y-43815
X19685Y-44704
X19685Y-45593
X19685Y-46482
X19685Y-47371
X19685Y-48260
X19685Y-49149
X19685Y-57023
X19939Y-21844
X20320Y-31750
X20320Y-32512
X20320Y-33274
X20320Y-38100
X20320Y-39370
X20320Y-40005
X20320Y-40640
X20320Y-41275
X20320Y-42545
X20574Y-20174
X20701Y-25781
X21336Y-31496
X21336Y-32131
X21336Y-32766
X21336Y-34036
X21717Y-35306
X21717Y-36195
X21717Y-37084
X21717Y-38989
X21717Y-39878
X21717Y-40894
X21717Y-41910
X21717Y-61595
X21717Y-62865
X21717Y-64135
X21717Y-65405
X21717Y-66675
X21717Y-67945
X21717Y-69215
X21717Y-70485
X21717Y-71755
X21717Y-73025
X21717Y-74295
X22305Y-32084
X22352Y-14224
X22352Y-43815
X22352Y-44577
X22352Y-45339
X22352Y-46101
X22606Y-42164
X23114Y-46101
X23622Y-32766
X23622Y-33782
X23622Y-35179
X23622Y-36068
X23622Y-36957
X23749Y-26797
X24257Y-18288
X24384Y-14224
X24384Y-32258
X25019Y-46863
X25019Y-47625
X25089Y-27112
X25146Y-18288
X25273Y-32258
X25400Y-48260
X25781Y-46101
X25781Y-46863
X25781Y-47625
X25908Y-27178
X26017Y-18287
X26162Y-14224
X26162Y-32258
X26162Y-48641
X26416Y-9906
X26416Y-61595
X26416Y-62865
X26416Y-64135
X26416Y-65405
X26416Y-66675
X26416Y-67945
X26416Y-69215
X26416Y-70485
X26416Y-71755
X26416Y-73025
X26416Y-74295
X26797Y-27178
X26797Y-49149
X26924Y-18288
X27051Y-10541
X27432Y-18923
X27432Y-61595
X27432Y-62865
X27432Y-64135
X27432Y-65405
X27432Y-66675
X27432Y-67945
X27432Y-69215
X27432Y-70485
X27432Y-71755
X27432Y-73025
X27432Y-74295
X27559Y-8382
X27559Y-32258
X27559Y-43815
X27559Y-44577
X27559Y-45339
X27559Y-46101
X27559Y-46863
X27559Y-47625
X27559Y-48387
X27559Y-49149
X27559Y-50546
X27940Y-51562
X27940Y-53721
X28067Y-12827
X28067Y-18415
X28067Y-19558
X28067Y-40894
X28067Y-41656
X28067Y-42418
X28067Y-52705
X28194Y-4826
X28321Y-14478
X28448Y-32258
X28829Y-40894
X28829Y-41656
X28829Y-42418
X29083Y-26924
X29210Y-73025
X29210Y-74295
X29337Y-6223
X29464Y-32258
X29591Y-40894
X29591Y-41656
X29591Y-42418
X29591Y-43180
X29591Y-43942
X29868Y-20978
X30353Y-32258
X30353Y-40894
X30353Y-41656
X30353Y-42418
X30734Y-3683
X31115Y-37846
X31115Y-38608
X31115Y-39370
X31115Y-40132
X31115Y-40894
X31115Y-41656
X31115Y-42418
X31242Y-32258
X31496Y-11049
X31496Y-12700
X31496Y-22098
X31623Y-21082
X31750Y-9271
X31877Y-20066
X32766Y-15494
X32766Y-16256
X33020Y-62865
X33020Y-64135
X33020Y-65405
X33020Y-66675
X33020Y-67945
X33020Y-69215
X33020Y-70485
X33020Y-71755
X33020Y-73025
X33020Y-74930
X33782Y-15621
X33782Y-16256
X33782Y-16891
X33782Y-17526
X33782Y-18161
X33909Y-30353
X34036Y-13970
X34036Y-28448
X34290Y-18542
X34290Y-19177
X34290Y-20955
X34290Y-74930
X34417Y-17526
X34925Y-18542
X34925Y-19177
X34925Y-20955
X35052Y-28448
X35052Y-31242
X35560Y-18542
X35560Y-19177
X35560Y-20955
X35560Y-74930
X36195Y-18542
X36195Y-19177
X36195Y-20955
X36830Y-12192
X36830Y-17526
X36830Y-18542
X36830Y-19177
X36830Y-20320
X36830Y-20955
X36830Y-61595
X36830Y-62865
X36830Y-64135
X36830Y-65405
X36830Y-66675
X36830Y-67945
X36830Y-69215
X36830Y-70485
X36830Y-71755
X36830Y-73025
X36830Y-74930
X37465Y-18542
X37465Y-19177
X37465Y-20320
X37592Y-12192
X37719Y-28448
X37719Y-31115
X38100Y-18542
X38100Y-19177
X38100Y-20320
X38100Y-61722
X38100Y-62611
X38100Y-63627
X38100Y-64643
X38100Y-68453
X38100Y-69215
X38100Y-70104
X38100Y-70866
X38100Y-71628
X38100Y-72390
X38100Y-73152
X38100Y-73914
X38227Y-60960
X38354Y-12192
X38481Y-65405
X38481Y-67691
X38481Y-74549
X38735Y-18542
X38735Y-19177
X38735Y-20320
X38862Y-60452
X39116Y-12192
X39116Y-65405
X39243Y-44450
X39243Y-45212
X39243Y-67691
X39243Y-73787
X39243Y-74549
X39370Y-17526
X39370Y-18542
X39370Y-19177
X39370Y-20320
X39878Y-12192
X39878Y-28448
X39878Y-31115
X39878Y-65405
X40005Y-18542
X40005Y-19177
X40005Y-20320
X40005Y-67691
X40005Y-73787
X40005Y-74549
X40132Y-43688
X40132Y-44450
X40132Y-45212
X40640Y-12192
X40640Y-18542
X40640Y-19177
X40640Y-20320
X40640Y-65405
X40767Y-67691
X40767Y-73787
X40767Y-74549
X40894Y-45212
X40894Y-60452
X41021Y-58039
X41275Y-18542
X41275Y-19177
X41402Y-12192
X41402Y-61087
X41529Y-17526
X41529Y-20955
X41529Y-21590
X41529Y-61849
X41529Y-62738
X41529Y-63881
X41529Y-64643
X41529Y-65405
X41529Y-67691
X41529Y-68453
X41529Y-69215
X41529Y-69977
X41529Y-70739
X41529Y-71501
X41529Y-72263
X41529Y-73025
X41529Y-73787
X41529Y-74549
X41656Y-51435
X41656Y-52197
X41656Y-52959
X41656Y-53721
X41656Y-54483
X41656Y-55245
X41656Y-56007
X41656Y-56769
X41656Y-57531
X41910Y-18542
X41910Y-19177
X42037Y-28448
X42037Y-31115
X42164Y-12192
X42164Y-20955
X42164Y-21590
X42291Y-60833
X42291Y-61595
X42291Y-62357
X42291Y-63119
X42291Y-63881
X42291Y-64643
X42291Y-65405
X42291Y-66167
X42291Y-66929
X42291Y-67691
X42291Y-68453
X42291Y-69215
X42291Y-69977
X42291Y-70739
X42291Y-71501
X42291Y-72263
X42291Y-73025
X42291Y-73787
X42291Y-74549
X42545Y-18542
X42545Y-19177
X42799Y-20955
X42799Y-21590
X42926Y-12192
X43180Y-18542
X43180Y-19177
X43434Y-20955
X43434Y-21590
X43434Y-40513
X43815Y-17526
X44069Y-28448
X44069Y-31115
X44196Y-39878
X44196Y-41148
T2
X19775Y-53000
X20720Y-50720
X20720Y-55280
X23000Y-49775
X23000Y-56225
X25280Y-50720
X25280Y-55280
X26225Y-53000
X19775Y-6000
X20720Y-3720
X20720Y-8280
X23000Y-2775
X23000Y-9225
X25280Y-3720
X25280Y-8280
X26225Y-6000
T3
X7112Y-11684
T4
X7112Y-14184
T5
X34700Y-62801
X34700Y-71000
X39701Y-62801
X39701Y-71000
X4700Y-62801
X4700Y-71000
X9701Y-62801
X9701Y-71000
X19700Y-62801
X19700Y-71000
X24701Y-62801
X24701Y-71000
T6
X23000Y-53000
X23000Y-6000
T7
X34319Y-4826
X41119Y-4826
X3712Y-4826
X10512Y-4826
T0
M30
