M48
INCH,TZ
T1C0.0118
T2C0.0236
T3C0.0354
T4C0.0394
T5C0.0511
T6C0.1693
T7C0.0354
%
G90
G05
T1
X400Y-7300
X400Y-8650
X400Y-9150
X400Y-10600
X400Y-11300
X400Y-11700
X400Y-12050
X400Y-12400
X400Y-12750
X400Y-13150
X450Y-6800
X500Y-13500
X500Y-13800
X500Y-14200
X500Y-14550
X500Y-14950
X500Y-16950
X500Y-17300
X500Y-17650
X500Y-18000
X500Y-18350
X500Y-18700
X500Y-19050
X500Y-19400
X500Y-19900
X500Y-20250
X500Y-20600
X500Y-20950
X500Y-21300
X500Y-21650
X500Y-22000
X500Y-22300
X500Y-22650
X850Y-13500
X850Y-13800
X850Y-16950
X850Y-17300
X850Y-17650
X850Y-18000
X850Y-18350
X850Y-18700
X850Y-19050
X850Y-19400
X850Y-19900
X850Y-20250
X850Y-20600
X850Y-20950
X850Y-21300
X850Y-21650
X850Y-22000
X850Y-22300
X850Y-22650
X950Y-6800
X950Y-11400
X1000Y-24250
X1000Y-24750
X1000Y-25250
X1000Y-25750
X1000Y-26250
X1000Y-26750
X1000Y-27250
X1000Y-27750
X1000Y-28250
X1000Y-28750
X1000Y-29250
X1200Y-13500
X1200Y-13800
X1200Y-18700
X1200Y-19050
X1200Y-19400
X1200Y-19900
X1200Y-20250
X1200Y-20600
X1200Y-20950
X1200Y-21300
X1200Y-21650
X1200Y-22000
X1200Y-22300
X1200Y-22650
X1250Y-11400
X1250Y-15500
X1250Y-15750
X1250Y-16000
X1250Y-16250
X1250Y-16500
X1400Y-8200
X1450Y-6800
X1500Y-13500
X1500Y-13800
X1500Y-15500
X1500Y-15750
X1500Y-16000
X1500Y-16250
X1500Y-16500
X1550Y-18700
X1550Y-19050
X1550Y-19400
X1550Y-19900
X1550Y-20250
X1550Y-20600
X1550Y-20950
X1550Y-21300
X1550Y-21650
X1550Y-22000
X1550Y-22300
X1550Y-22650
X1600Y-11400
X1750Y-15500
X1750Y-15750
X1750Y-16000
X1750Y-16250
X1750Y-16500
X1850Y-13500
X1850Y-13800
X1900Y-11400
X1900Y-18700
X1900Y-19050
X1900Y-19400
X1900Y-21650
X1900Y-22000
X1900Y-22300
X1900Y-22650
X1950Y-6800
X2000Y-15500
X2000Y-15750
X2000Y-16000
X2000Y-16250
X2000Y-16500
X2150Y-13500
X2150Y-13800
X2200Y-8200
X2250Y-15500
X2250Y-15750
X2250Y-16000
X2250Y-16250
X2250Y-16500
X2250Y-18700
X2250Y-19050
X2250Y-19400
X2250Y-21650
X2250Y-22000
X2250Y-22300
X2250Y-22650
X2400Y-11400
X2450Y-6800
X2500Y-13500
X2500Y-13800
X2500Y-15500
X2500Y-15750
X2500Y-16000
X2500Y-16250
X2500Y-16500
X2600Y-18700
X2600Y-19050
X2600Y-19400
X2600Y-22000
X2600Y-22300
X2600Y-22650
X2700Y-11400
X2700Y-24250
X2700Y-24750
X2700Y-25250
X2700Y-25750
X2700Y-26250
X2700Y-26750
X2700Y-27250
X2700Y-27750
X2700Y-28250
X2700Y-28750
X2700Y-29250
X2750Y-1650
X2750Y-15500
X2750Y-15750
X2750Y-16000
X2750Y-16250
X2750Y-16500
X2850Y-13500
X2850Y-13800
X2950Y-18700
X2950Y-22000
X2950Y-22300
X2950Y-22650
X3000Y-6800
X3000Y-8200
X3000Y-15500
X3000Y-15750
X3000Y-16000
X3000Y-16250
X3000Y-16500
X3150Y-13500
X3150Y-13800
X3250Y-15500
X3250Y-15750
X3250Y-16000
X3250Y-16250
X3250Y-16500
X3250Y-20150
X3300Y-11400
X3300Y-22000
X3300Y-22300
X3300Y-22650
X3500Y-13500
X3500Y-13800
X3500Y-15500
X3500Y-15750
X3500Y-16000
X3500Y-16250
X3500Y-16500
X3550Y-6800
X3600Y-11400
X3600Y-25800
X3600Y-26150
X3600Y-26500
X3600Y-26850
X3650Y-20150
X3650Y-22000
X3650Y-22300
X3650Y-22650
X3750Y-15500
X3750Y-15750
X3750Y-16000
X3750Y-16250
X3750Y-16500
X3800Y-8238
X3800Y-13500
X3800Y-13800
X4000Y-15500
X4000Y-15750
X4000Y-16000
X4000Y-16250
X4000Y-16500
X4000Y-22000
X4000Y-22300
X4000Y-22650
X4000Y-25800
X4000Y-26150
X4000Y-26500
X4000Y-26850
X4050Y-6800
X4050Y-11400
X4150Y-13500
X4150Y-13800
X4250Y-15500
X4250Y-15750
X4250Y-16000
X4250Y-16250
X4250Y-16500
X4350Y-22000
X4350Y-22300
X4350Y-22650
X4400Y-11400
X4500Y-13500
X4500Y-13800
X4500Y-15500
X4500Y-15750
X4500Y-16000
X4500Y-16250
X4500Y-16500
X4500Y-24100
X4500Y-24450
X4500Y-24800
X4500Y-25150
X4500Y-25500
X4500Y-25850
X4500Y-26200
X4500Y-26550
X4500Y-26900
X4500Y-27250
X4500Y-27600
X4500Y-27950
X4500Y-28300
X4500Y-28650
X4500Y-29000
X4500Y-29350
X4550Y-6800
X4700Y-22000
X4700Y-22300
X4700Y-22650
X4750Y-8700
X4750Y-15500
X4750Y-15750
X4750Y-16000
X4750Y-16250
X4750Y-16500
X4800Y-12100
X4800Y-13500
X4800Y-13850
X4850Y-7943
X4850Y-10850
X4900Y-24100
X4900Y-24450
X4900Y-24800
X4900Y-25150
X4900Y-25500
X4900Y-25850
X4900Y-26200
X4900Y-26550
X4900Y-26900
X4900Y-27250
X4900Y-27600
X4900Y-27950
X4900Y-28300
X4900Y-28650
X4900Y-29000
X4900Y-29350
X4950Y-7300
X5000Y-15500
X5000Y-15750
X5000Y-16000
X5000Y-16250
X5000Y-16500
X5050Y-12400
X5050Y-22000
X5050Y-22300
X5050Y-22650
X5150Y-11100
X5150Y-13150
X5150Y-13500
X5150Y-13800
X5157Y-7943
X5250Y-12750
X5300Y-11600
X5400Y-22000
X5400Y-22300
X5400Y-22650
X5500Y-3750
X5750Y-22000
X5750Y-22300
X5750Y-22650
X5800Y-5850
X5850Y-11150
X6000Y-21650
X6000Y-24250
X6000Y-24750
X6000Y-25250
X6000Y-25750
X6000Y-26250
X6000Y-26750
X6000Y-27250
X6000Y-27750
X6000Y-28250
X6000Y-28750
X6000Y-29250
X6100Y-2300
X6150Y-1300
X6200Y-11750
X6200Y-12100
X6450Y-7250
X6450Y-12900
X6500Y-15750
X6500Y-16250
X6550Y-13400
X6550Y-13650
X6550Y-13950
X6550Y-14250
X6650Y-13150
X6700Y-12750
X6700Y-17250
X6700Y-17600
X6700Y-17950
X6700Y-18300
X6700Y-18650
X6700Y-19000
X6700Y-19350
X6750Y-15250
X6750Y-15500
X6750Y-16000
X6750Y-16500
X6800Y-13800
X6800Y-14100
X6850Y-4800
X6900Y-13500
X6900Y-14650
X6950Y-6200
X6950Y-12550
X6950Y-20050
X6950Y-20450
X6950Y-20900
X6950Y-21300
X6950Y-21700
X6950Y-22100
X7000Y-15500
X7000Y-15750
X7000Y-16250
X7000Y-16750
X7000Y-24250
X7000Y-24750
X7000Y-25250
X7000Y-25750
X7000Y-26250
X7000Y-26750
X7000Y-27250
X7000Y-27750
X7000Y-28250
X7000Y-28750
X7000Y-29250
X7050Y-17250
X7050Y-17600
X7050Y-17950
X7050Y-18300
X7050Y-18650
X7050Y-19000
X7050Y-19350
X7150Y-13100
X7200Y-12100
X7250Y-15000
X7250Y-15500
X7250Y-16000
X7250Y-16500
X7350Y-22100
X7350Y-22450
X7400Y-17250
X7400Y-17600
X7400Y-17950
X7400Y-18300
X7400Y-18650
X7400Y-19000
X7400Y-19350
X7450Y-12800
X7450Y-13100
X7500Y-11900
X7500Y-15000
X7500Y-15500
X7500Y-15750
X7500Y-16000
X7500Y-16250
X7500Y-16750
X7550Y-3900
X7600Y-7943
X7600Y-9450
X7700Y-12800
X7700Y-13100
X7750Y-12500
X7750Y-15000
X7750Y-15500
X7750Y-15750
X7750Y-16000
X7750Y-16500
X7750Y-17250
X7750Y-17600
X7750Y-17950
X7750Y-18300
X7750Y-18650
X7750Y-19000
X7750Y-19350
X7750Y-22450
X7850Y-8600
X8000Y-12500
X8000Y-12800
X8000Y-13100
X8000Y-15000
X8000Y-15500
X8000Y-15750
X8000Y-16000
X8000Y-16250
X8000Y-16750
X8100Y-7943
X8150Y-10150
X8400Y-12400
X8400Y-12650
X8400Y-12900
X8400Y-13400
X8550Y-13900
X8550Y-14250
X8550Y-14600
X8550Y-15350
X8550Y-15700
X8550Y-16100
X8550Y-16500
X8550Y-24250
X8550Y-24750
X8550Y-25250
X8550Y-25750
X8550Y-26250
X8550Y-26750
X8550Y-27250
X8550Y-27750
X8550Y-28250
X8550Y-28750
X8550Y-29250
X8782Y-12632
X8800Y-5600
X8800Y-17250
X8800Y-17550
X8800Y-17850
X8800Y-18150
X8900Y-16600
X9100Y-18150
X9300Y-12900
X9300Y-13300
X9300Y-13850
X9300Y-14200
X9300Y-14550
X9350Y-10550
X9550Y-7200
X9600Y-5600
X9600Y-12700
X9850Y-18450
X9850Y-18750
X9878Y-10674
X9900Y-7200
X9950Y-12700
X10000Y-19000
X10150Y-18150
X10150Y-18450
X10150Y-18750
X10200Y-10700
X10243Y-7199
X10300Y-5600
X10300Y-12700
X10300Y-19150
X10400Y-3900
X10400Y-24250
X10400Y-24750
X10400Y-25250
X10400Y-25750
X10400Y-26250
X10400Y-26750
X10400Y-27250
X10400Y-27750
X10400Y-28250
X10400Y-28750
X10400Y-29250
X10550Y-10700
X10550Y-19350
X10600Y-7200
X10650Y-4150
X10800Y-7450
X10800Y-24250
X10800Y-24750
X10800Y-25250
X10800Y-25750
X10800Y-26250
X10800Y-26750
X10800Y-27250
X10800Y-27750
X10800Y-28250
X10800Y-28750
X10800Y-29250
X10850Y-3300
X10850Y-12700
X10850Y-17250
X10850Y-17550
X10850Y-17850
X10850Y-18150
X10850Y-18450
X10850Y-18750
X10850Y-19050
X10850Y-19350
X10850Y-19900
X11000Y-20300
X11000Y-21150
X11050Y-5050
X11050Y-7250
X11050Y-7700
X11050Y-16100
X11050Y-16400
X11050Y-16700
X11050Y-20750
X11100Y-1900
X11150Y-5700
X11200Y-12700
X11350Y-16100
X11350Y-16400
X11350Y-16700
X11450Y-10600
X11500Y-28750
X11500Y-29250
X11550Y-2450
X11600Y-12700
X11650Y-16100
X11650Y-16400
X11650Y-16700
X11650Y-17000
X11650Y-17300
X11759Y-8259
X11950Y-12700
X11950Y-16100
X11950Y-16400
X11950Y-16700
X12100Y-1450
X12250Y-14900
X12250Y-15200
X12250Y-15500
X12250Y-15800
X12250Y-16100
X12250Y-16400
X12250Y-16700
X12300Y-12700
X12400Y-4350
X12400Y-5000
X12400Y-8700
X12450Y-8300
X12500Y-3650
X12550Y-7900
X12900Y-6100
X12900Y-6400
X13000Y-24750
X13000Y-25250
X13000Y-25750
X13000Y-26250
X13000Y-26750
X13000Y-27250
X13000Y-27750
X13000Y-28250
X13000Y-28750
X13000Y-29500
X13300Y-6150
X13300Y-6400
X13300Y-6650
X13300Y-6900
X13300Y-7150
X13350Y-11950
X13400Y-5500
X13400Y-11200
X13500Y-7300
X13500Y-7550
X13500Y-8250
X13500Y-29500
X13550Y-6900
X13750Y-7300
X13750Y-7550
X13750Y-8250
X13800Y-11200
X13800Y-12300
X14000Y-7300
X14000Y-7550
X14000Y-8250
X14000Y-29500
X14250Y-7300
X14250Y-7550
X14250Y-8250
X14500Y-4800
X14500Y-6900
X14500Y-7300
X14500Y-7550
X14500Y-8000
X14500Y-8250
X14500Y-24250
X14500Y-24750
X14500Y-25250
X14500Y-25750
X14500Y-26250
X14500Y-26750
X14500Y-27250
X14500Y-27750
X14500Y-28250
X14500Y-28750
X14500Y-29500
X14750Y-7300
X14750Y-7550
X14750Y-8000
X14800Y-4800
X14850Y-11200
X14850Y-12250
X15000Y-7300
X15000Y-7550
X15000Y-8000
X15000Y-24300
X15000Y-24650
X15000Y-25050
X15000Y-25450
X15000Y-26950
X15000Y-27250
X15000Y-27600
X15000Y-27900
X15000Y-28200
X15000Y-28500
X15000Y-28800
X15000Y-29100
X15050Y-24000
X15100Y-4800
X15150Y-25750
X15150Y-26650
X15150Y-29350
X15250Y-7300
X15250Y-7550
X15250Y-8000
X15300Y-23800
X15400Y-4800
X15400Y-25750
X15450Y-17500
X15450Y-17800
X15450Y-26650
X15450Y-29050
X15450Y-29350
X15500Y-6900
X15500Y-7300
X15500Y-7550
X15500Y-8000
X15700Y-4800
X15700Y-11200
X15700Y-12250
X15700Y-25750
X15750Y-7300
X15750Y-7550
X15750Y-8000
X15750Y-26650
X15750Y-29050
X15750Y-29350
X15800Y-17200
X15800Y-17500
X15800Y-17800
X16000Y-4800
X16000Y-7300
X16000Y-7550
X16000Y-8000
X16000Y-25750
X16050Y-26650
X16050Y-29050
X16050Y-29350
X16100Y-17800
X16100Y-23800
X16150Y-22850
X16250Y-7300
X16250Y-7550
X16300Y-4800
X16300Y-24050
X16350Y-6900
X16350Y-8250
X16350Y-8500
X16350Y-24350
X16350Y-24700
X16350Y-25150
X16350Y-25450
X16350Y-25750
X16350Y-26650
X16350Y-26950
X16350Y-27250
X16350Y-27550
X16350Y-27850
X16350Y-28150
X16350Y-28450
X16350Y-28750
X16350Y-29050
X16350Y-29350
X16400Y-20250
X16400Y-20550
X16400Y-20850
X16400Y-21150
X16400Y-21450
X16400Y-21750
X16400Y-22050
X16400Y-22350
X16400Y-22650
X16500Y-7300
X16500Y-7550
X16550Y-11200
X16550Y-12250
X16600Y-4800
X16600Y-8250
X16600Y-8500
X16650Y-23950
X16650Y-24250
X16650Y-24550
X16650Y-24850
X16650Y-25150
X16650Y-25450
X16650Y-25750
X16650Y-26050
X16650Y-26350
X16650Y-26650
X16650Y-26950
X16650Y-27250
X16650Y-27550
X16650Y-27850
X16650Y-28150
X16650Y-28450
X16650Y-28750
X16650Y-29050
X16650Y-29350
X16750Y-7300
X16750Y-7550
X16850Y-8250
X16850Y-8500
X16900Y-4800
X17000Y-7300
X17000Y-7550
X17100Y-8250
X17100Y-8500
X17100Y-15950
X17250Y-6900
X17350Y-11200
X17350Y-12250
X17400Y-15700
X17400Y-16200
T2
X7785Y-20866
X8157Y-19968
X8157Y-21764
X9055Y-19596
X9055Y-22136
X9953Y-19968
X9953Y-21764
X10325Y-20866
X7785Y-2362
X8157Y-1464
X8157Y-3260
X9055Y-1093
X9055Y-3632
X9953Y-1464
X9953Y-3260
X10325Y-2362
T3
X2800Y-4600
T4
X2800Y-5584
T5
X1850Y-24725
X1850Y-27953
X3819Y-24725
X3819Y-27953
X13661Y-24725
X13661Y-27953
X15630Y-24725
X15630Y-27953
X7756Y-24725
X7756Y-27953
X9725Y-24725
X9725Y-27953
T6
X9055Y-20866
X9055Y-2362
T7
X13511Y-1900
X16189Y-1900
X1461Y-1900
X4139Y-1900
T0
M30
