G04 #@! TF.GenerationSoftware,KiCad,Pcbnew,(5.0.0-rc3-dev-13-g33a0856)*
G04 #@! TF.CreationDate,2018-08-15T10:40:50+02:00*
G04 #@! TF.ProjectId,BrainDeadMPPT,427261696E446561644D5050542E6B69,rev?*
G04 #@! TF.SameCoordinates,Original*
G04 #@! TF.FileFunction,Legend,Top*
G04 #@! TF.FilePolarity,Positive*
%FSLAX46Y46*%
G04 Gerber Fmt 4.6, Leading zero omitted, Abs format (unit mm)*
G04 Created by KiCad (PCBNEW (5.0.0-rc3-dev-13-g33a0856)) date Wednesday, 15. August 2018, 10:40:50*
%MOMM*%
%LPD*%
G01*
G04 APERTURE LIST*
%ADD10C,0.120000*%
%ADD11C,0.100000*%
%ADD12C,0.200000*%
%ADD13C,0.300000*%
%ADD14C,0.150000*%
%ADD15C,0.127000*%
%ADD16C,0.152400*%
%ADD17C,0.101600*%
%ADD18C,0.198120*%
%ADD19C,0.050000*%
G04 APERTURE END LIST*
D10*
X36024000Y-38989000D02*
X36257333Y-38989000D01*
X36357333Y-39355666D02*
X36024000Y-39355666D01*
X36024000Y-38655666D01*
X36357333Y-38655666D01*
X36590666Y-38655666D02*
X37057333Y-39355666D01*
X37057333Y-38655666D02*
X36590666Y-39355666D01*
X37324000Y-39355666D02*
X37324000Y-38655666D01*
X37590666Y-38655666D01*
X37657333Y-38689000D01*
X37690666Y-38722333D01*
X37724000Y-38789000D01*
X37724000Y-38889000D01*
X37690666Y-38955666D01*
X37657333Y-38989000D01*
X37590666Y-39022333D01*
X37324000Y-39022333D01*
X38024000Y-38989000D02*
X38257333Y-38989000D01*
X38357333Y-39355666D02*
X38024000Y-39355666D01*
X38024000Y-38655666D01*
X38357333Y-38655666D01*
X39057333Y-39355666D02*
X38824000Y-39022333D01*
X38657333Y-39355666D02*
X38657333Y-38655666D01*
X38924000Y-38655666D01*
X38990666Y-38689000D01*
X39024000Y-38722333D01*
X39057333Y-38789000D01*
X39057333Y-38889000D01*
X39024000Y-38955666D01*
X38990666Y-38989000D01*
X38924000Y-39022333D01*
X38657333Y-39022333D01*
X39357333Y-39355666D02*
X39357333Y-38655666D01*
X39690666Y-39355666D02*
X39690666Y-38655666D01*
X39924000Y-39155666D01*
X40157333Y-38655666D01*
X40157333Y-39355666D01*
X40490666Y-38989000D02*
X40724000Y-38989000D01*
X40824000Y-39355666D02*
X40490666Y-39355666D01*
X40490666Y-38655666D01*
X40824000Y-38655666D01*
X41124000Y-39355666D02*
X41124000Y-38655666D01*
X41524000Y-39355666D01*
X41524000Y-38655666D01*
X41757333Y-38655666D02*
X42157333Y-38655666D01*
X41957333Y-39355666D02*
X41957333Y-38655666D01*
X42357333Y-39155666D02*
X42690666Y-39155666D01*
X42290666Y-39355666D02*
X42524000Y-38655666D01*
X42757333Y-39355666D01*
X43324000Y-39355666D02*
X42990666Y-39355666D01*
X42990666Y-38655666D01*
X39190666Y-40459000D02*
X39157333Y-40492333D01*
X39057333Y-40525666D01*
X38990666Y-40525666D01*
X38890666Y-40492333D01*
X38824000Y-40425666D01*
X38790666Y-40359000D01*
X38757333Y-40225666D01*
X38757333Y-40125666D01*
X38790666Y-39992333D01*
X38824000Y-39925666D01*
X38890666Y-39859000D01*
X38990666Y-39825666D01*
X39057333Y-39825666D01*
X39157333Y-39859000D01*
X39190666Y-39892333D01*
X39457333Y-40325666D02*
X39790666Y-40325666D01*
X39390666Y-40525666D02*
X39624000Y-39825666D01*
X39857333Y-40525666D01*
X40090666Y-40525666D02*
X40090666Y-39825666D01*
X40357333Y-39825666D01*
X40424000Y-39859000D01*
X40457333Y-39892333D01*
X40490666Y-39959000D01*
X40490666Y-40059000D01*
X40457333Y-40125666D01*
X40424000Y-40159000D01*
X40357333Y-40192333D01*
X40090666Y-40192333D01*
D11*
X14032666Y-12740333D02*
X13332666Y-12740333D01*
X13332666Y-12573666D01*
X13366000Y-12473666D01*
X13432666Y-12407000D01*
X13499333Y-12373666D01*
X13632666Y-12340333D01*
X13732666Y-12340333D01*
X13866000Y-12373666D01*
X13932666Y-12407000D01*
X13999333Y-12473666D01*
X14032666Y-12573666D01*
X14032666Y-12740333D01*
X13332666Y-12140333D02*
X14032666Y-11907000D01*
X13332666Y-11673666D01*
X13966000Y-11040333D02*
X13999333Y-11073666D01*
X14032666Y-11173666D01*
X14032666Y-11240333D01*
X13999333Y-11340333D01*
X13932666Y-11407000D01*
X13866000Y-11440333D01*
X13732666Y-11473666D01*
X13632666Y-11473666D01*
X13499333Y-11440333D01*
X13432666Y-11407000D01*
X13366000Y-11340333D01*
X13332666Y-11240333D01*
X13332666Y-11173666D01*
X13366000Y-11073666D01*
X13399333Y-11040333D01*
X13966000Y-10340333D02*
X13999333Y-10373666D01*
X14032666Y-10473666D01*
X14032666Y-10540333D01*
X13999333Y-10640333D01*
X13932666Y-10707000D01*
X13866000Y-10740333D01*
X13732666Y-10773666D01*
X13632666Y-10773666D01*
X13499333Y-10740333D01*
X13432666Y-10707000D01*
X13366000Y-10640333D01*
X13332666Y-10540333D01*
X13332666Y-10473666D01*
X13366000Y-10373666D01*
X13399333Y-10340333D01*
X13366000Y-5486333D02*
X13332666Y-5553000D01*
X13332666Y-5653000D01*
X13366000Y-5753000D01*
X13432666Y-5819666D01*
X13499333Y-5853000D01*
X13632666Y-5886333D01*
X13732666Y-5886333D01*
X13866000Y-5853000D01*
X13932666Y-5819666D01*
X13999333Y-5753000D01*
X14032666Y-5653000D01*
X14032666Y-5586333D01*
X13999333Y-5486333D01*
X13966000Y-5453000D01*
X13732666Y-5453000D01*
X13732666Y-5586333D01*
X14032666Y-5153000D02*
X13332666Y-5153000D01*
X14032666Y-4753000D01*
X13332666Y-4753000D01*
X14032666Y-4419666D02*
X13332666Y-4419666D01*
X13332666Y-4253000D01*
X13366000Y-4153000D01*
X13432666Y-4086333D01*
X13499333Y-4053000D01*
X13632666Y-4019666D01*
X13732666Y-4019666D01*
X13866000Y-4053000D01*
X13932666Y-4086333D01*
X13999333Y-4153000D01*
X14032666Y-4253000D01*
X14032666Y-4419666D01*
X17273000Y-4883000D02*
X17273000Y-4283000D01*
X18023666Y-4749666D02*
X18023666Y-4416333D01*
X18223666Y-4816333D02*
X17523666Y-4583000D01*
X18223666Y-4349666D01*
X17273000Y-4283000D02*
X17273000Y-3716333D01*
X18223666Y-3783000D02*
X18223666Y-4116333D01*
X17523666Y-4116333D01*
X17273000Y-3716333D02*
X17273000Y-3016333D01*
X18223666Y-3149666D02*
X17890333Y-3383000D01*
X18223666Y-3549666D02*
X17523666Y-3549666D01*
X17523666Y-3283000D01*
X17557000Y-3216333D01*
X17590333Y-3183000D01*
X17657000Y-3149666D01*
X17757000Y-3149666D01*
X17823666Y-3183000D01*
X17857000Y-3216333D01*
X17890333Y-3283000D01*
X17890333Y-3549666D01*
X17273000Y-3016333D02*
X17273000Y-2483000D01*
X17523666Y-2949666D02*
X17523666Y-2549666D01*
X18223666Y-2749666D02*
X17523666Y-2749666D01*
X12358000Y-7522333D02*
X12458000Y-7555666D01*
X12624666Y-7555666D01*
X12691333Y-7522333D01*
X12724666Y-7489000D01*
X12758000Y-7422333D01*
X12758000Y-7355666D01*
X12724666Y-7289000D01*
X12691333Y-7255666D01*
X12624666Y-7222333D01*
X12491333Y-7189000D01*
X12424666Y-7155666D01*
X12391333Y-7122333D01*
X12358000Y-7055666D01*
X12358000Y-6989000D01*
X12391333Y-6922333D01*
X12424666Y-6889000D01*
X12491333Y-6855666D01*
X12658000Y-6855666D01*
X12758000Y-6889000D01*
X13058000Y-7555666D02*
X13058000Y-6855666D01*
X13224666Y-6855666D01*
X13324666Y-6889000D01*
X13391333Y-6955666D01*
X13424666Y-7022333D01*
X13458000Y-7155666D01*
X13458000Y-7255666D01*
X13424666Y-7389000D01*
X13391333Y-7455666D01*
X13324666Y-7522333D01*
X13224666Y-7555666D01*
X13058000Y-7555666D01*
X13724666Y-7355666D02*
X14058000Y-7355666D01*
X13658000Y-7555666D02*
X13891333Y-6855666D01*
X14124666Y-7555666D01*
X17936333Y-9977333D02*
X17969666Y-9877333D01*
X17969666Y-9710666D01*
X17936333Y-9644000D01*
X17903000Y-9610666D01*
X17836333Y-9577333D01*
X17769666Y-9577333D01*
X17703000Y-9610666D01*
X17669666Y-9644000D01*
X17636333Y-9710666D01*
X17603000Y-9844000D01*
X17569666Y-9910666D01*
X17536333Y-9944000D01*
X17469666Y-9977333D01*
X17403000Y-9977333D01*
X17336333Y-9944000D01*
X17303000Y-9910666D01*
X17269666Y-9844000D01*
X17269666Y-9677333D01*
X17303000Y-9577333D01*
X17903000Y-8877333D02*
X17936333Y-8910666D01*
X17969666Y-9010666D01*
X17969666Y-9077333D01*
X17936333Y-9177333D01*
X17869666Y-9244000D01*
X17803000Y-9277333D01*
X17669666Y-9310666D01*
X17569666Y-9310666D01*
X17436333Y-9277333D01*
X17369666Y-9244000D01*
X17303000Y-9177333D01*
X17269666Y-9077333D01*
X17269666Y-9010666D01*
X17303000Y-8910666D01*
X17336333Y-8877333D01*
X17969666Y-8244000D02*
X17969666Y-8577333D01*
X17269666Y-8577333D01*
D12*
X7366000Y-76200000D02*
X7366000Y-78994000D01*
X37592000Y-76200000D02*
X37592000Y-78994000D01*
X22479000Y-76454000D02*
X22479000Y-78994000D01*
D13*
X44366571Y-9429428D02*
X42866571Y-9429428D01*
X43938000Y-8929428D01*
X42866571Y-8429428D01*
X44366571Y-8429428D01*
X44366571Y-7715142D02*
X42866571Y-7715142D01*
X42866571Y-7143714D01*
X42938000Y-7000857D01*
X43009428Y-6929428D01*
X43152285Y-6858000D01*
X43366571Y-6858000D01*
X43509428Y-6929428D01*
X43580857Y-7000857D01*
X43652285Y-7143714D01*
X43652285Y-7715142D01*
X44366571Y-6215142D02*
X42866571Y-6215142D01*
X42866571Y-5643714D01*
X42938000Y-5500857D01*
X43009428Y-5429428D01*
X43152285Y-5358000D01*
X43366571Y-5358000D01*
X43509428Y-5429428D01*
X43580857Y-5500857D01*
X43652285Y-5643714D01*
X43652285Y-6215142D01*
X42866571Y-4929428D02*
X42866571Y-4072285D01*
X44366571Y-4500857D02*
X42866571Y-4500857D01*
X40989428Y-702571D02*
X41275142Y-702571D01*
X41418000Y-774000D01*
X41560857Y-916857D01*
X41632285Y-1202571D01*
X41632285Y-1702571D01*
X41560857Y-1988285D01*
X41418000Y-2131142D01*
X41275142Y-2202571D01*
X40989428Y-2202571D01*
X40846571Y-2131142D01*
X40703714Y-1988285D01*
X40632285Y-1702571D01*
X40632285Y-1202571D01*
X40703714Y-916857D01*
X40846571Y-774000D01*
X40989428Y-702571D01*
X42775142Y-1416857D02*
X42275142Y-1416857D01*
X42275142Y-2202571D02*
X42275142Y-702571D01*
X42989428Y-702571D01*
X44060857Y-1416857D02*
X43560857Y-1416857D01*
X43560857Y-2202571D02*
X43560857Y-702571D01*
X44275142Y-702571D01*
X32726428Y-575571D02*
X33012142Y-575571D01*
X33155000Y-647000D01*
X33297857Y-789857D01*
X33369285Y-1075571D01*
X33369285Y-1575571D01*
X33297857Y-1861285D01*
X33155000Y-2004142D01*
X33012142Y-2075571D01*
X32726428Y-2075571D01*
X32583571Y-2004142D01*
X32440714Y-1861285D01*
X32369285Y-1575571D01*
X32369285Y-1075571D01*
X32440714Y-789857D01*
X32583571Y-647000D01*
X32726428Y-575571D01*
X34012142Y-2075571D02*
X34012142Y-575571D01*
X34869285Y-2075571D01*
X34869285Y-575571D01*
X591428Y-4659857D02*
X2091428Y-4659857D01*
X591428Y-5517000D01*
X2091428Y-5517000D01*
X2091428Y-6017000D02*
X2091428Y-6874142D01*
X591428Y-6445571D02*
X2091428Y-6445571D01*
X734285Y-8231285D02*
X662857Y-8159857D01*
X591428Y-7945571D01*
X591428Y-7802714D01*
X662857Y-7588428D01*
X805714Y-7445571D01*
X948571Y-7374142D01*
X1234285Y-7302714D01*
X1448571Y-7302714D01*
X1734285Y-7374142D01*
X1877142Y-7445571D01*
X2020000Y-7588428D01*
X2091428Y-7802714D01*
X2091428Y-7945571D01*
X2020000Y-8159857D01*
X1948571Y-8231285D01*
X591428Y-10802714D02*
X591428Y-9945571D01*
X591428Y-10374142D02*
X2091428Y-10374142D01*
X1877142Y-10231285D01*
X1734285Y-10088428D01*
X1662857Y-9945571D01*
X2091428Y-11731285D02*
X2091428Y-11874142D01*
X2019999Y-12016999D01*
X1948571Y-12088428D01*
X1805714Y-12159857D01*
X1519999Y-12231285D01*
X1162857Y-12231285D01*
X877142Y-12159857D01*
X734285Y-12088428D01*
X662857Y-12016999D01*
X591428Y-11874142D01*
X591428Y-11731285D01*
X662857Y-11588428D01*
X734285Y-11516999D01*
X877142Y-11445571D01*
X1162857Y-11374142D01*
X1519999Y-11374142D01*
X1805714Y-11445571D01*
X1948571Y-11516999D01*
X2019999Y-11588428D01*
X2091428Y-11731285D01*
X591428Y-12874142D02*
X2091428Y-12874142D01*
X1162857Y-13016999D02*
X591428Y-13445571D01*
X1591428Y-13445571D02*
X1019999Y-12874142D01*
X805857Y-1289857D02*
X1305857Y-1289857D01*
X1520142Y-2075571D02*
X805857Y-2075571D01*
X805857Y-575571D01*
X1520142Y-575571D01*
X2020142Y-575571D02*
X3020142Y-2075571D01*
X3020142Y-575571D02*
X2020142Y-2075571D01*
X3377285Y-575571D02*
X4234428Y-575571D01*
X3805857Y-2075571D02*
X3805857Y-575571D01*
X10326857Y-2075571D02*
X10326857Y-575571D01*
X11041142Y-2075571D02*
X11041142Y-575571D01*
X11898285Y-2075571D01*
X11898285Y-575571D01*
X12398285Y-575571D02*
X13255428Y-575571D01*
X12826857Y-2075571D02*
X12826857Y-575571D01*
X34137714Y-77124000D02*
X34023428Y-77066857D01*
X33852000Y-77066857D01*
X33680571Y-77124000D01*
X33566285Y-77238285D01*
X33509142Y-77352571D01*
X33452000Y-77581142D01*
X33452000Y-77752571D01*
X33509142Y-77981142D01*
X33566285Y-78095428D01*
X33680571Y-78209714D01*
X33852000Y-78266857D01*
X33966285Y-78266857D01*
X34137714Y-78209714D01*
X34194857Y-78152571D01*
X34194857Y-77752571D01*
X33966285Y-77752571D01*
X34709142Y-78266857D02*
X34709142Y-77066857D01*
X35394857Y-78266857D01*
X35394857Y-77066857D01*
X35966285Y-78266857D02*
X35966285Y-77066857D01*
X36252000Y-77066857D01*
X36423428Y-77124000D01*
X36537714Y-77238285D01*
X36594857Y-77352571D01*
X36652000Y-77581142D01*
X36652000Y-77752571D01*
X36594857Y-77981142D01*
X36537714Y-78095428D01*
X36423428Y-78209714D01*
X36252000Y-78266857D01*
X35966285Y-78266857D01*
X19024714Y-77124000D02*
X18910428Y-77066857D01*
X18739000Y-77066857D01*
X18567571Y-77124000D01*
X18453285Y-77238285D01*
X18396142Y-77352571D01*
X18339000Y-77581142D01*
X18339000Y-77752571D01*
X18396142Y-77981142D01*
X18453285Y-78095428D01*
X18567571Y-78209714D01*
X18739000Y-78266857D01*
X18853285Y-78266857D01*
X19024714Y-78209714D01*
X19081857Y-78152571D01*
X19081857Y-77752571D01*
X18853285Y-77752571D01*
X19596142Y-78266857D02*
X19596142Y-77066857D01*
X20281857Y-78266857D01*
X20281857Y-77066857D01*
X20853285Y-78266857D02*
X20853285Y-77066857D01*
X21139000Y-77066857D01*
X21310428Y-77124000D01*
X21424714Y-77238285D01*
X21481857Y-77352571D01*
X21539000Y-77581142D01*
X21539000Y-77752571D01*
X21481857Y-77981142D01*
X21424714Y-78095428D01*
X21310428Y-78209714D01*
X21139000Y-78266857D01*
X20853285Y-78266857D01*
X3911714Y-77124000D02*
X3797428Y-77066857D01*
X3626000Y-77066857D01*
X3454571Y-77124000D01*
X3340285Y-77238285D01*
X3283142Y-77352571D01*
X3226000Y-77581142D01*
X3226000Y-77752571D01*
X3283142Y-77981142D01*
X3340285Y-78095428D01*
X3454571Y-78209714D01*
X3626000Y-78266857D01*
X3740285Y-78266857D01*
X3911714Y-78209714D01*
X3968857Y-78152571D01*
X3968857Y-77752571D01*
X3740285Y-77752571D01*
X4483142Y-78266857D02*
X4483142Y-77066857D01*
X5168857Y-78266857D01*
X5168857Y-77066857D01*
X5740285Y-78266857D02*
X5740285Y-77066857D01*
X6026000Y-77066857D01*
X6197428Y-77124000D01*
X6311714Y-77238285D01*
X6368857Y-77352571D01*
X6426000Y-77581142D01*
X6426000Y-77752571D01*
X6368857Y-77981142D01*
X6311714Y-78095428D01*
X6197428Y-78209714D01*
X6026000Y-78266857D01*
X5740285Y-78266857D01*
X8658428Y-77638285D02*
X8829857Y-77695428D01*
X8887000Y-77752571D01*
X8944142Y-77866857D01*
X8944142Y-78038285D01*
X8887000Y-78152571D01*
X8829857Y-78209714D01*
X8715571Y-78266857D01*
X8258428Y-78266857D01*
X8258428Y-77066857D01*
X8658428Y-77066857D01*
X8772714Y-77124000D01*
X8829857Y-77181142D01*
X8887000Y-77295428D01*
X8887000Y-77409714D01*
X8829857Y-77524000D01*
X8772714Y-77581142D01*
X8658428Y-77638285D01*
X8258428Y-77638285D01*
X9401285Y-77924000D02*
X9972714Y-77924000D01*
X9287000Y-78266857D02*
X9687000Y-77066857D01*
X10087000Y-78266857D01*
X10315571Y-77066857D02*
X11001285Y-77066857D01*
X10658428Y-78266857D02*
X10658428Y-77066857D01*
X11401285Y-77809714D02*
X12315571Y-77809714D01*
X11858428Y-78266857D02*
X11858428Y-77352571D01*
X38046428Y-78266857D02*
X38046428Y-77066857D01*
X38503571Y-77066857D01*
X38617857Y-77124000D01*
X38675000Y-77181142D01*
X38732142Y-77295428D01*
X38732142Y-77466857D01*
X38675000Y-77581142D01*
X38617857Y-77638285D01*
X38503571Y-77695428D01*
X38046428Y-77695428D01*
X39189285Y-77924000D02*
X39760714Y-77924000D01*
X39075000Y-78266857D02*
X39475000Y-77066857D01*
X39875000Y-78266857D01*
X40275000Y-78266857D02*
X40275000Y-77066857D01*
X40960714Y-78266857D01*
X40960714Y-77066857D01*
X41532142Y-77638285D02*
X41932142Y-77638285D01*
X42103571Y-78266857D02*
X41532142Y-78266857D01*
X41532142Y-77066857D01*
X42103571Y-77066857D01*
X43189285Y-78266857D02*
X42617857Y-78266857D01*
X42617857Y-77066857D01*
X43589285Y-77809714D02*
X44503571Y-77809714D01*
X44046428Y-78266857D02*
X44046428Y-77352571D01*
X23793714Y-78266857D02*
X23222285Y-78266857D01*
X23222285Y-77066857D01*
X24422285Y-77066857D02*
X24650857Y-77066857D01*
X24765142Y-77124000D01*
X24879428Y-77238285D01*
X24936571Y-77466857D01*
X24936571Y-77866857D01*
X24879428Y-78095428D01*
X24765142Y-78209714D01*
X24650857Y-78266857D01*
X24422285Y-78266857D01*
X24308000Y-78209714D01*
X24193714Y-78095428D01*
X24136571Y-77866857D01*
X24136571Y-77466857D01*
X24193714Y-77238285D01*
X24308000Y-77124000D01*
X24422285Y-77066857D01*
X25393714Y-77924000D02*
X25965142Y-77924000D01*
X25279428Y-78266857D02*
X25679428Y-77066857D01*
X26079428Y-78266857D01*
X26479428Y-78266857D02*
X26479428Y-77066857D01*
X26765142Y-77066857D01*
X26936571Y-77124000D01*
X27050857Y-77238285D01*
X27108000Y-77352571D01*
X27165142Y-77581142D01*
X27165142Y-77752571D01*
X27108000Y-77981142D01*
X27050857Y-78095428D01*
X26936571Y-78209714D01*
X26765142Y-78266857D01*
X26479428Y-78266857D01*
X27679428Y-77809714D02*
X28593714Y-77809714D01*
X28136571Y-78266857D02*
X28136571Y-77352571D01*
D12*
X1524000Y-33782000D02*
X1524000Y-17907000D01*
X381000Y-22606000D02*
X11557000Y-22606000D01*
X254000Y-17907000D02*
X11557000Y-17907000D01*
X254000Y-27559000D02*
X11684000Y-27432000D01*
D13*
X674999Y-25459428D02*
X532142Y-25459428D01*
X398214Y-25388000D01*
X335714Y-25316571D01*
X282142Y-25173714D01*
X246428Y-24888000D01*
X291071Y-24530857D01*
X398214Y-24245142D01*
X487499Y-24102285D01*
X567857Y-24030857D01*
X719642Y-23959428D01*
X862499Y-23959428D01*
X996428Y-24030857D01*
X1058928Y-24102285D01*
X1112500Y-24245142D01*
X1148214Y-24530857D01*
X1103571Y-24888000D01*
X996428Y-25173714D01*
X907142Y-25316571D01*
X826785Y-25388000D01*
X674999Y-25459428D01*
X1161500Y-20998571D02*
X304357Y-20998571D01*
X732928Y-20998571D02*
X920428Y-19498571D01*
X750785Y-19712857D01*
X590071Y-19855714D01*
X438285Y-19927142D01*
D12*
X3556000Y-33655000D02*
X3556000Y-27686000D01*
X5588000Y-27686000D02*
X5588000Y-33655000D01*
X7620000Y-33655000D02*
X7620000Y-27559000D01*
X9652000Y-27432000D02*
X9652000Y-33655000D01*
X11684000Y-33655000D02*
X11684000Y-17907000D01*
X3106714Y-33019714D02*
X3164809Y-33067333D01*
X3222904Y-33210190D01*
X3222904Y-33305428D01*
X3164809Y-33448285D01*
X3048619Y-33543523D01*
X2932428Y-33591142D01*
X2700047Y-33638761D01*
X2525761Y-33638761D01*
X2293380Y-33591142D01*
X2177190Y-33543523D01*
X2061000Y-33448285D01*
X2002904Y-33305428D01*
X2002904Y-33210190D01*
X2061000Y-33067333D01*
X2119095Y-33019714D01*
X2583857Y-32591142D02*
X2583857Y-32257809D01*
X3222904Y-32114952D02*
X3222904Y-32591142D01*
X2002904Y-32591142D01*
X2002904Y-32114952D01*
X3222904Y-31210190D02*
X3222904Y-31686380D01*
X2002904Y-31686380D01*
X3222904Y-30400666D02*
X3222904Y-30876857D01*
X2002904Y-30876857D01*
X3164809Y-30114952D02*
X3222904Y-29972095D01*
X3222904Y-29734000D01*
X3164809Y-29638761D01*
X3106714Y-29591142D01*
X2990523Y-29543523D01*
X2874333Y-29543523D01*
X2758142Y-29591142D01*
X2700047Y-29638761D01*
X2641952Y-29734000D01*
X2583857Y-29924476D01*
X2525761Y-30019714D01*
X2467666Y-30067333D01*
X2351476Y-30114952D01*
X2235285Y-30114952D01*
X2119095Y-30067333D01*
X2061000Y-30019714D01*
X2002904Y-29924476D01*
X2002904Y-29686380D01*
X2061000Y-29543523D01*
X2119095Y-28400666D02*
X2061000Y-28353047D01*
X2002904Y-28257809D01*
X2002904Y-28019714D01*
X2061000Y-27924476D01*
X2119095Y-27876857D01*
X2235285Y-27829238D01*
X2351476Y-27829238D01*
X2525761Y-27876857D01*
X3222904Y-28448285D01*
X3222904Y-27829238D01*
X5136714Y-33019714D02*
X5194809Y-33067333D01*
X5252904Y-33210190D01*
X5252904Y-33305428D01*
X5194809Y-33448285D01*
X5078619Y-33543523D01*
X4962428Y-33591142D01*
X4730047Y-33638761D01*
X4555761Y-33638761D01*
X4323380Y-33591142D01*
X4207190Y-33543523D01*
X4091000Y-33448285D01*
X4032904Y-33305428D01*
X4032904Y-33210190D01*
X4091000Y-33067333D01*
X4149095Y-33019714D01*
X4613857Y-32591142D02*
X4613857Y-32257809D01*
X5252904Y-32114952D02*
X5252904Y-32591142D01*
X4032904Y-32591142D01*
X4032904Y-32114952D01*
X5252904Y-31210190D02*
X5252904Y-31686380D01*
X4032904Y-31686380D01*
X5252904Y-30400666D02*
X5252904Y-30876857D01*
X4032904Y-30876857D01*
X5194809Y-30114952D02*
X5252904Y-29972095D01*
X5252904Y-29734000D01*
X5194809Y-29638761D01*
X5136714Y-29591142D01*
X5020523Y-29543523D01*
X4904333Y-29543523D01*
X4788142Y-29591142D01*
X4730047Y-29638761D01*
X4671952Y-29734000D01*
X4613857Y-29924476D01*
X4555761Y-30019714D01*
X4497666Y-30067333D01*
X4381476Y-30114952D01*
X4265285Y-30114952D01*
X4149095Y-30067333D01*
X4091000Y-30019714D01*
X4032904Y-29924476D01*
X4032904Y-29686380D01*
X4091000Y-29543523D01*
X5252904Y-27829238D02*
X5252904Y-28400666D01*
X5252904Y-28114952D02*
X4032904Y-28114952D01*
X4207190Y-28210190D01*
X4323380Y-28305428D01*
X4381476Y-28400666D01*
X7166714Y-33019714D02*
X7224809Y-33067333D01*
X7282904Y-33210190D01*
X7282904Y-33305428D01*
X7224809Y-33448285D01*
X7108619Y-33543523D01*
X6992428Y-33591142D01*
X6760047Y-33638761D01*
X6585761Y-33638761D01*
X6353380Y-33591142D01*
X6237190Y-33543523D01*
X6121000Y-33448285D01*
X6062904Y-33305428D01*
X6062904Y-33210190D01*
X6121000Y-33067333D01*
X6179095Y-33019714D01*
X6643857Y-32591142D02*
X6643857Y-32257809D01*
X7282904Y-32114952D02*
X7282904Y-32591142D01*
X6062904Y-32591142D01*
X6062904Y-32114952D01*
X7282904Y-31210190D02*
X7282904Y-31686380D01*
X6062904Y-31686380D01*
X7282904Y-30400666D02*
X7282904Y-30876857D01*
X6062904Y-30876857D01*
X7224809Y-30114952D02*
X7282904Y-29972095D01*
X7282904Y-29734000D01*
X7224809Y-29638761D01*
X7166714Y-29591142D01*
X7050523Y-29543523D01*
X6934333Y-29543523D01*
X6818142Y-29591142D01*
X6760047Y-29638761D01*
X6701952Y-29734000D01*
X6643857Y-29924476D01*
X6585761Y-30019714D01*
X6527666Y-30067333D01*
X6411476Y-30114952D01*
X6295285Y-30114952D01*
X6179095Y-30067333D01*
X6121000Y-30019714D01*
X6062904Y-29924476D01*
X6062904Y-29686380D01*
X6121000Y-29543523D01*
X6062904Y-28162571D02*
X6062904Y-28067333D01*
X6121000Y-27972095D01*
X6179095Y-27924476D01*
X6295285Y-27876857D01*
X6527666Y-27829238D01*
X6818142Y-27829238D01*
X7050523Y-27876857D01*
X7166714Y-27924476D01*
X7224809Y-27972095D01*
X7282904Y-28067333D01*
X7282904Y-28162571D01*
X7224809Y-28257809D01*
X7166714Y-28305428D01*
X7050523Y-28353047D01*
X6818142Y-28400666D01*
X6527666Y-28400666D01*
X6295285Y-28353047D01*
X6179095Y-28305428D01*
X6121000Y-28257809D01*
X6062904Y-28162571D01*
X9196714Y-32829238D02*
X9254809Y-32876857D01*
X9312904Y-33019714D01*
X9312904Y-33114952D01*
X9254809Y-33257809D01*
X9138619Y-33353047D01*
X9022428Y-33400666D01*
X8790047Y-33448285D01*
X8615761Y-33448285D01*
X8383380Y-33400666D01*
X8267190Y-33353047D01*
X8151000Y-33257809D01*
X8092904Y-33114952D01*
X8092904Y-33019714D01*
X8151000Y-32876857D01*
X8209095Y-32829238D01*
X9312904Y-32400666D02*
X8092904Y-32400666D01*
X8673857Y-32400666D02*
X8673857Y-31829238D01*
X9312904Y-31829238D02*
X8092904Y-31829238D01*
X8673857Y-31353047D02*
X8673857Y-31019714D01*
X9312904Y-30876857D02*
X9312904Y-31353047D01*
X8092904Y-31353047D01*
X8092904Y-30876857D01*
X9312904Y-30448285D02*
X8092904Y-30448285D01*
X8964333Y-30114952D01*
X8092904Y-29781619D01*
X9312904Y-29781619D01*
X9312904Y-28019714D02*
X9312904Y-28591142D01*
X9312904Y-28305428D02*
X8092904Y-28305428D01*
X8267190Y-28400666D01*
X8383380Y-28495904D01*
X8441476Y-28591142D01*
X11226714Y-32829238D02*
X11284809Y-32876857D01*
X11342904Y-33019714D01*
X11342904Y-33114952D01*
X11284809Y-33257809D01*
X11168619Y-33353047D01*
X11052428Y-33400666D01*
X10820047Y-33448285D01*
X10645761Y-33448285D01*
X10413380Y-33400666D01*
X10297190Y-33353047D01*
X10181000Y-33257809D01*
X10122904Y-33114952D01*
X10122904Y-33019714D01*
X10181000Y-32876857D01*
X10239095Y-32829238D01*
X11342904Y-32400666D02*
X10122904Y-32400666D01*
X10703857Y-32400666D02*
X10703857Y-31829238D01*
X11342904Y-31829238D02*
X10122904Y-31829238D01*
X10703857Y-31353047D02*
X10703857Y-31019714D01*
X11342904Y-30876857D02*
X11342904Y-31353047D01*
X10122904Y-31353047D01*
X10122904Y-30876857D01*
X11342904Y-30448285D02*
X10122904Y-30448285D01*
X10994333Y-30114952D01*
X10122904Y-29781619D01*
X11342904Y-29781619D01*
X10122904Y-28353047D02*
X10122904Y-28257809D01*
X10181000Y-28162571D01*
X10239095Y-28114952D01*
X10355285Y-28067333D01*
X10587666Y-28019714D01*
X10878142Y-28019714D01*
X11110523Y-28067333D01*
X11226714Y-28114952D01*
X11284809Y-28162571D01*
X11342904Y-28257809D01*
X11342904Y-28353047D01*
X11284809Y-28448285D01*
X11226714Y-28495904D01*
X11110523Y-28543523D01*
X10878142Y-28591142D01*
X10587666Y-28591142D01*
X10355285Y-28543523D01*
X10239095Y-28495904D01*
X10181000Y-28448285D01*
X10122904Y-28353047D01*
D13*
X31515857Y-56652857D02*
X31587285Y-56438571D01*
X31658714Y-56367142D01*
X31801571Y-56295714D01*
X32015857Y-56295714D01*
X32158714Y-56367142D01*
X32230142Y-56438571D01*
X32301571Y-56581428D01*
X32301571Y-57152857D01*
X30801571Y-57152857D01*
X30801571Y-56652857D01*
X30873000Y-56510000D01*
X30944428Y-56438571D01*
X31087285Y-56367142D01*
X31230142Y-56367142D01*
X31373000Y-56438571D01*
X31444428Y-56510000D01*
X31515857Y-56652857D01*
X31515857Y-57152857D01*
X32301571Y-55652857D02*
X31301571Y-55652857D01*
X31587285Y-55652857D02*
X31444428Y-55581428D01*
X31373000Y-55510000D01*
X31301571Y-55367142D01*
X31301571Y-55224285D01*
X32301571Y-54081428D02*
X31515857Y-54081428D01*
X31373000Y-54152857D01*
X31301571Y-54295714D01*
X31301571Y-54581428D01*
X31373000Y-54724285D01*
X32230142Y-54081428D02*
X32301571Y-54224285D01*
X32301571Y-54581428D01*
X32230142Y-54724285D01*
X32087285Y-54795714D01*
X31944428Y-54795714D01*
X31801571Y-54724285D01*
X31730142Y-54581428D01*
X31730142Y-54224285D01*
X31658714Y-54081428D01*
X32301571Y-53367142D02*
X31301571Y-53367142D01*
X30801571Y-53367142D02*
X30873000Y-53438571D01*
X30944428Y-53367142D01*
X30873000Y-53295714D01*
X30801571Y-53367142D01*
X30944428Y-53367142D01*
X31301571Y-52652857D02*
X32301571Y-52652857D01*
X31444428Y-52652857D02*
X31373000Y-52581428D01*
X31301571Y-52438571D01*
X31301571Y-52224285D01*
X31373000Y-52081428D01*
X31515857Y-52010000D01*
X32301571Y-52010000D01*
X32301571Y-51295714D02*
X30801571Y-51295714D01*
X30801571Y-50938571D01*
X30873000Y-50724285D01*
X31015857Y-50581428D01*
X31158714Y-50510000D01*
X31444428Y-50438571D01*
X31658714Y-50438571D01*
X31944428Y-50510000D01*
X32087285Y-50581428D01*
X32230142Y-50724285D01*
X32301571Y-50938571D01*
X32301571Y-51295714D01*
X31515857Y-49795714D02*
X31515857Y-49295714D01*
X32301571Y-49081428D02*
X32301571Y-49795714D01*
X30801571Y-49795714D01*
X30801571Y-49081428D01*
X31873000Y-48510000D02*
X31873000Y-47795714D01*
X32301571Y-48652857D02*
X30801571Y-48152857D01*
X32301571Y-47652857D01*
X32301571Y-47152857D02*
X30801571Y-47152857D01*
X30801571Y-46795714D01*
X30873000Y-46581428D01*
X31015857Y-46438571D01*
X31158714Y-46367142D01*
X31444428Y-46295714D01*
X31658714Y-46295714D01*
X31944428Y-46367142D01*
X32087285Y-46438571D01*
X32230142Y-46581428D01*
X32301571Y-46795714D01*
X32301571Y-47152857D01*
X32301571Y-44510000D02*
X30801571Y-44510000D01*
X31873000Y-44010000D01*
X30801571Y-43510000D01*
X32301571Y-43510000D01*
X32301571Y-42795714D02*
X30801571Y-42795714D01*
X30801571Y-42224285D01*
X30873000Y-42081428D01*
X30944428Y-42010000D01*
X31087285Y-41938571D01*
X31301571Y-41938571D01*
X31444428Y-42010000D01*
X31515857Y-42081428D01*
X31587285Y-42224285D01*
X31587285Y-42795714D01*
X32301571Y-41295714D02*
X30801571Y-41295714D01*
X30801571Y-40724285D01*
X30873000Y-40581428D01*
X30944428Y-40510000D01*
X31087285Y-40438571D01*
X31301571Y-40438571D01*
X31444428Y-40510000D01*
X31515857Y-40581428D01*
X31587285Y-40724285D01*
X31587285Y-41295714D01*
X30801571Y-40010000D02*
X30801571Y-39152857D01*
X32301571Y-39581428D02*
X30801571Y-39581428D01*
D12*
X381000Y-60071000D02*
X44704000Y-59944000D01*
D14*
G04 #@! TO.C,U1*
X28390000Y-25612000D02*
X27865000Y-25612000D01*
X21140000Y-20362000D02*
X21665000Y-20362000D01*
X21140000Y-25612000D02*
X21665000Y-25612000D01*
X28390000Y-20362000D02*
X28390000Y-21137000D01*
X21140000Y-20362000D02*
X21140000Y-21137000D01*
X21140000Y-25612000D02*
X21140000Y-24837000D01*
X28390000Y-25612000D02*
X28390000Y-24837000D01*
D10*
G04 #@! TO.C,C1*
X28881000Y-14600422D02*
X28881000Y-15117578D01*
X30301000Y-14600422D02*
X30301000Y-15117578D01*
G04 #@! TO.C,C6*
X24078000Y-16514578D02*
X24078000Y-15997422D01*
X22658000Y-16514578D02*
X22658000Y-15997422D01*
G04 #@! TO.C,C7*
X17324000Y-22864578D02*
X17324000Y-22347422D01*
X18744000Y-22864578D02*
X18744000Y-22347422D01*
G04 #@! TO.C,C8*
X17784578Y-25452000D02*
X17267422Y-25452000D01*
X17784578Y-26872000D02*
X17267422Y-26872000D01*
G04 #@! TO.C,C11*
X14228578Y-26872000D02*
X13711422Y-26872000D01*
X14228578Y-25452000D02*
X13711422Y-25452000D01*
G04 #@! TO.C,C12*
X14172000Y-22347422D02*
X14172000Y-22864578D01*
X12752000Y-22347422D02*
X12752000Y-22864578D01*
G04 #@! TO.C,C13*
X25348000Y-29078422D02*
X25348000Y-29595578D01*
X23928000Y-29078422D02*
X23928000Y-29595578D01*
G04 #@! TO.C,C14*
X21896000Y-29078422D02*
X21896000Y-29595578D01*
X23316000Y-29078422D02*
X23316000Y-29595578D01*
G04 #@! TO.C,C15*
X27253000Y-29595578D02*
X27253000Y-29078422D01*
X25833000Y-29595578D02*
X25833000Y-29078422D01*
G04 #@! TO.C,C16*
X31803078Y-26745000D02*
X31285922Y-26745000D01*
X31803078Y-25325000D02*
X31285922Y-25325000D01*
G04 #@! TO.C,C17*
X24236000Y-35654064D02*
X24236000Y-34449936D01*
X26056000Y-35654064D02*
X26056000Y-34449936D01*
G04 #@! TO.C,Cb1*
X17267422Y-27738000D02*
X17784578Y-27738000D01*
X17267422Y-29158000D02*
X17784578Y-29158000D01*
G04 #@! TO.C,Cc1*
X19758922Y-16435000D02*
X20276078Y-16435000D01*
X19758922Y-17855000D02*
X20276078Y-17855000D01*
G04 #@! TO.C,Cc2*
X19760000Y-14736578D02*
X19760000Y-14219422D01*
X18340000Y-14736578D02*
X18340000Y-14219422D01*
G04 #@! TO.C,Cpn1*
X29412000Y-29595578D02*
X29412000Y-29078422D01*
X27992000Y-29595578D02*
X27992000Y-29078422D01*
D15*
G04 #@! TO.C,D1*
X34552000Y-11161000D02*
X34552000Y-11361000D01*
X35552000Y-11161000D02*
X35552000Y-11361000D01*
D16*
X35152000Y-10061000D02*
G75*
G03X35152000Y-10061000I-50000J0D01*
G01*
G04 #@! TO.C,Db1*
X20447000Y-30791000D02*
G75*
G03X20447000Y-30791000I-50000J0D01*
G01*
D15*
X19947000Y-29691000D02*
X19947000Y-29491000D01*
X20947000Y-29691000D02*
X20947000Y-29491000D01*
D12*
G04 #@! TO.C,J3*
X27427000Y-13646000D02*
X23627000Y-13646000D01*
X23627000Y-13646000D02*
X23627000Y-11246000D01*
X23627000Y-11246000D02*
X27427000Y-11246000D01*
X27427000Y-11246000D02*
X27427000Y-13646000D01*
D10*
G04 #@! TO.C,JP1*
X38119000Y-1026000D02*
X38119000Y-1026000D01*
X37319000Y-1026000D02*
X38119000Y-1026000D01*
X37019000Y-1026000D02*
X37019000Y-1026000D01*
X36519000Y-1026000D02*
X37019000Y-1026000D01*
X38419000Y-1026000D02*
X38419000Y-1026000D01*
X38919000Y-1026000D02*
X38419000Y-1026000D01*
X39719000Y-2326000D02*
X39719000Y-2326000D01*
X39719000Y-1826000D02*
X39719000Y-2326000D01*
X35719000Y-2326000D02*
X35719000Y-2326000D01*
X35719000Y-1826000D02*
X35719000Y-2326000D01*
X35719000Y-1526000D02*
X35719000Y-1526000D01*
X35719000Y-1026000D02*
X35719000Y-1526000D01*
X36219000Y-1026000D02*
X36219000Y-1026000D01*
X35719000Y-1026000D02*
X36219000Y-1026000D01*
X39219000Y-1026000D02*
X39219000Y-1026000D01*
X39719000Y-1026000D02*
X39219000Y-1026000D01*
X39719000Y-1526000D02*
X39719000Y-1526000D01*
X39719000Y-1026000D02*
X39719000Y-1526000D01*
X42319000Y-2926000D02*
X42319000Y-2926000D01*
X40619000Y-2926000D02*
X42319000Y-2926000D01*
X40619000Y-2626000D02*
X40619000Y-2926000D01*
X39819000Y-2626000D02*
X40619000Y-2626000D01*
X39819000Y-2926000D02*
X39819000Y-2626000D01*
X38119000Y-2926000D02*
X39819000Y-2926000D01*
X38119000Y-2626000D02*
X38119000Y-2926000D01*
X37319000Y-2626000D02*
X38119000Y-2626000D01*
X37319000Y-2926000D02*
X37319000Y-2626000D01*
X35619000Y-2926000D02*
X37319000Y-2926000D01*
X35619000Y-2626000D02*
X35619000Y-2926000D01*
X34819000Y-2626000D02*
X35619000Y-2626000D01*
X34819000Y-2926000D02*
X34819000Y-2626000D01*
X33119000Y-2926000D02*
X34819000Y-2926000D01*
X39519000Y-6726000D02*
X39519000Y-6726000D01*
X38419000Y-6726000D02*
X39519000Y-6726000D01*
X37019000Y-6726000D02*
X37019000Y-6726000D01*
X35919000Y-6726000D02*
X37019000Y-6726000D01*
X42319000Y-6726000D02*
X40919000Y-6726000D01*
X42319000Y-2926000D02*
X42319000Y-6726000D01*
X33119000Y-6726000D02*
X33119000Y-2926000D01*
X34519000Y-6726000D02*
X33119000Y-6726000D01*
G04 #@! TO.C,JP2*
X3912000Y-6726000D02*
X2512000Y-6726000D01*
X2512000Y-6726000D02*
X2512000Y-2926000D01*
X11712000Y-2926000D02*
X11712000Y-6726000D01*
X11712000Y-6726000D02*
X10312000Y-6726000D01*
X5312000Y-6726000D02*
X6412000Y-6726000D01*
X6412000Y-6726000D02*
X6412000Y-6726000D01*
X7812000Y-6726000D02*
X8912000Y-6726000D01*
X8912000Y-6726000D02*
X8912000Y-6726000D01*
X2512000Y-2926000D02*
X4212000Y-2926000D01*
X4212000Y-2926000D02*
X4212000Y-2626000D01*
X4212000Y-2626000D02*
X5012000Y-2626000D01*
X5012000Y-2626000D02*
X5012000Y-2926000D01*
X5012000Y-2926000D02*
X6712000Y-2926000D01*
X6712000Y-2926000D02*
X6712000Y-2626000D01*
X6712000Y-2626000D02*
X7512000Y-2626000D01*
X7512000Y-2626000D02*
X7512000Y-2926000D01*
X7512000Y-2926000D02*
X9212000Y-2926000D01*
X9212000Y-2926000D02*
X9212000Y-2626000D01*
X9212000Y-2626000D02*
X10012000Y-2626000D01*
X10012000Y-2626000D02*
X10012000Y-2926000D01*
X10012000Y-2926000D02*
X11712000Y-2926000D01*
X11712000Y-2926000D02*
X11712000Y-2926000D01*
X9112000Y-1026000D02*
X9112000Y-1526000D01*
X9112000Y-1526000D02*
X9112000Y-1526000D01*
X9112000Y-1026000D02*
X8612000Y-1026000D01*
X8612000Y-1026000D02*
X8612000Y-1026000D01*
X5112000Y-1026000D02*
X5612000Y-1026000D01*
X5612000Y-1026000D02*
X5612000Y-1026000D01*
X5112000Y-1026000D02*
X5112000Y-1526000D01*
X5112000Y-1526000D02*
X5112000Y-1526000D01*
X5112000Y-1826000D02*
X5112000Y-2326000D01*
X5112000Y-2326000D02*
X5112000Y-2326000D01*
X9112000Y-1826000D02*
X9112000Y-2326000D01*
X9112000Y-2326000D02*
X9112000Y-2326000D01*
X8312000Y-1026000D02*
X7812000Y-1026000D01*
X7812000Y-1026000D02*
X7812000Y-1026000D01*
X5912000Y-1026000D02*
X6412000Y-1026000D01*
X6412000Y-1026000D02*
X6412000Y-1026000D01*
X6712000Y-1026000D02*
X7512000Y-1026000D01*
X7512000Y-1026000D02*
X7512000Y-1026000D01*
D15*
G04 #@! TO.C,L1*
X13397000Y-35617000D02*
X2097000Y-35617000D01*
X2097000Y-35617000D02*
X2097000Y-45617000D01*
X2097000Y-45617000D02*
X13397000Y-45617000D01*
X13397000Y-45617000D02*
X13397000Y-35617000D01*
D10*
G04 #@! TO.C,M1*
X30545000Y-12438000D02*
X30545000Y-11938000D01*
X30045000Y-12438000D02*
X30545000Y-12438000D01*
G04 #@! TO.C,M2*
X29633000Y-8628000D02*
X30133000Y-8628000D01*
X30133000Y-8628000D02*
X30133000Y-8128000D01*
D12*
G04 #@! TO.C,M3*
X17860000Y-34194000D02*
X17860000Y-37194000D01*
X20860000Y-37194000D02*
X20860000Y-34194000D01*
X18521800Y-37694000D02*
G75*
G03X18521800Y-37694000I-111800J0D01*
G01*
D15*
G04 #@! TO.C,M4*
X26213000Y-41986000D02*
X26213000Y-45136000D01*
X23063000Y-41986000D02*
X23063000Y-45136000D01*
D12*
X25738000Y-41061000D02*
G75*
G03X25738000Y-41061000I-100000J0D01*
G01*
D17*
G04 #@! TO.C,M5*
X40226000Y-24767000D02*
X40076000Y-24767000D01*
X37476000Y-24767000D02*
X37326000Y-24767000D01*
X37326000Y-24767000D02*
X37326000Y-23479500D01*
X37326000Y-22754500D02*
X37326000Y-21467000D01*
X37326000Y-21467000D02*
X37476000Y-21467000D01*
X40076000Y-21467000D02*
X40226000Y-21467000D01*
X40226000Y-21467000D02*
X40226000Y-22754500D01*
X40226000Y-23479500D02*
X40226000Y-24767000D01*
D11*
X40101000Y-22042000D02*
G75*
G03X40101000Y-22042000I-125000J0D01*
G01*
D10*
G04 #@! TO.C,R1*
X33984000Y-10995922D02*
X33984000Y-11513078D01*
X32564000Y-10995922D02*
X32564000Y-11513078D01*
G04 #@! TO.C,R2*
X29390078Y-10997000D02*
X28872922Y-10997000D01*
X29390078Y-9577000D02*
X28872922Y-9577000D01*
G04 #@! TO.C,R3*
X30786000Y-14600422D02*
X30786000Y-15117578D01*
X32206000Y-14600422D02*
X32206000Y-15117578D01*
G04 #@! TO.C,R4*
X32206000Y-17902422D02*
X32206000Y-18419578D01*
X30786000Y-17902422D02*
X30786000Y-18419578D01*
G04 #@! TO.C,R5*
X28881000Y-17902422D02*
X28881000Y-18419578D01*
X30301000Y-17902422D02*
X30301000Y-18419578D01*
G04 #@! TO.C,R6*
X27888000Y-15997422D02*
X27888000Y-16514578D01*
X26468000Y-15997422D02*
X26468000Y-16514578D01*
G04 #@! TO.C,R7*
X25983000Y-16514578D02*
X25983000Y-15997422D01*
X24563000Y-16514578D02*
X24563000Y-15997422D01*
G04 #@! TO.C,R8*
X32126422Y-8711000D02*
X32643578Y-8711000D01*
X32126422Y-7291000D02*
X32643578Y-7291000D01*
G04 #@! TO.C,R9*
X11378000Y-20566748D02*
X11378000Y-21089252D01*
X9958000Y-20566748D02*
X9958000Y-21089252D01*
G04 #@! TO.C,R10*
X9346000Y-20566748D02*
X9346000Y-21089252D01*
X7926000Y-20566748D02*
X7926000Y-21089252D01*
G04 #@! TO.C,R11*
X5894000Y-20566748D02*
X5894000Y-21089252D01*
X7314000Y-20566748D02*
X7314000Y-21089252D01*
G04 #@! TO.C,R12*
X5282000Y-20557748D02*
X5282000Y-21080252D01*
X3862000Y-20557748D02*
X3862000Y-21080252D01*
G04 #@! TO.C,R13*
X1830000Y-20566748D02*
X1830000Y-21089252D01*
X3250000Y-20566748D02*
X3250000Y-21089252D01*
G04 #@! TO.C,R14*
X9958000Y-24249748D02*
X9958000Y-24772252D01*
X11378000Y-24249748D02*
X11378000Y-24772252D01*
G04 #@! TO.C,R15*
X9346000Y-24258748D02*
X9346000Y-24781252D01*
X7926000Y-24258748D02*
X7926000Y-24781252D01*
G04 #@! TO.C,R16*
X5894000Y-24258748D02*
X5894000Y-24781252D01*
X7314000Y-24258748D02*
X7314000Y-24781252D01*
G04 #@! TO.C,R17*
X3862000Y-24249748D02*
X3862000Y-24772252D01*
X5282000Y-24249748D02*
X5282000Y-24772252D01*
G04 #@! TO.C,R18*
X3250000Y-24249748D02*
X3250000Y-24772252D01*
X1830000Y-24249748D02*
X1830000Y-24772252D01*
G04 #@! TO.C,R19*
X40009578Y-11378000D02*
X39492422Y-11378000D01*
X40009578Y-9958000D02*
X39492422Y-9958000D01*
G04 #@! TO.C,R20*
X33222000Y-29078422D02*
X33222000Y-29595578D01*
X31802000Y-29078422D02*
X31802000Y-29595578D01*
G04 #@! TO.C,R21*
X29897000Y-29078422D02*
X29897000Y-29595578D01*
X31317000Y-29078422D02*
X31317000Y-29595578D01*
G04 #@! TO.C,R30*
X12267000Y-11259078D02*
X12267000Y-10741922D01*
X10847000Y-11259078D02*
X10847000Y-10741922D01*
G04 #@! TO.C,R31*
X41635000Y-48989064D02*
X41635000Y-47784936D01*
X43455000Y-48989064D02*
X43455000Y-47784936D01*
G04 #@! TO.C,Rc1*
X21665000Y-14736578D02*
X21665000Y-14219422D01*
X20245000Y-14736578D02*
X20245000Y-14219422D01*
G04 #@! TO.C,Rccref1*
X16966000Y-22864578D02*
X16966000Y-22347422D01*
X15546000Y-22864578D02*
X15546000Y-22347422D01*
G04 #@! TO.C,Rntcbias1*
X10847000Y-14736578D02*
X10847000Y-14219422D01*
X12267000Y-14736578D02*
X12267000Y-14219422D01*
G04 #@! TO.C,Rt1*
X16593078Y-17855000D02*
X16075922Y-17855000D01*
X16593078Y-16435000D02*
X16075922Y-16435000D01*
G04 #@! TO.C,U2*
X30011000Y-6503500D02*
X30011000Y-5728500D01*
X31711000Y-5478500D02*
X31711000Y-6503500D01*
G04 #@! TO.C,RSNSB1*
X10815064Y-53653000D02*
X6710936Y-53653000D01*
X10815064Y-50233000D02*
X6710936Y-50233000D01*
G04 #@! TO.C,RSNSI1*
X40445000Y-32090564D02*
X40445000Y-27986436D01*
X37025000Y-32090564D02*
X37025000Y-27986436D01*
G04 #@! TO.C,C18*
X26522000Y-35654064D02*
X26522000Y-34449936D01*
X28342000Y-35654064D02*
X28342000Y-34449936D01*
G04 #@! TO.C,C19*
X30628000Y-35657064D02*
X30628000Y-34452936D01*
X28808000Y-35657064D02*
X28808000Y-34452936D01*
G04 #@! TO.C,C20*
X31094000Y-35657064D02*
X31094000Y-34452936D01*
X32914000Y-35657064D02*
X32914000Y-34452936D01*
G04 #@! TO.C,C21*
X37243936Y-48281000D02*
X38448064Y-48281000D01*
X37243936Y-46461000D02*
X38448064Y-46461000D01*
G04 #@! TO.C,C22*
X37243936Y-48747000D02*
X38448064Y-48747000D01*
X37243936Y-50567000D02*
X38448064Y-50567000D01*
G04 #@! TO.C,C23*
X37240936Y-52853000D02*
X38445064Y-52853000D01*
X37240936Y-51033000D02*
X38445064Y-51033000D01*
G04 #@! TO.C,C24*
X37240936Y-53319000D02*
X38445064Y-53319000D01*
X37240936Y-55139000D02*
X38445064Y-55139000D01*
G04 #@! TO.C,C25*
X37240936Y-57425000D02*
X38445064Y-57425000D01*
X37240936Y-55605000D02*
X38445064Y-55605000D01*
G04 #@! TO.C,C2*
X34523000Y-15464064D02*
X34523000Y-14259936D01*
X36343000Y-15464064D02*
X36343000Y-14259936D01*
G04 #@! TO.C,C3*
X38756000Y-15464064D02*
X38756000Y-14259936D01*
X36936000Y-15464064D02*
X36936000Y-14259936D01*
G04 #@! TO.C,C4*
X39349000Y-15461064D02*
X39349000Y-14256936D01*
X41169000Y-15461064D02*
X41169000Y-14256936D01*
G04 #@! TO.C,C5*
X43582000Y-15461064D02*
X43582000Y-14256936D01*
X41762000Y-15461064D02*
X41762000Y-14256936D01*
D14*
G04 #@! TO.C,J1*
X9462000Y-9234000D02*
X9462000Y-16634000D01*
X3712000Y-9234000D02*
X3712000Y-16634000D01*
X9462000Y-9234000D02*
X3712000Y-9234000D01*
X9462000Y-16634000D02*
X3712000Y-16634000D01*
X2612000Y-11184000D02*
X2612000Y-12184000D01*
X3112000Y-11684000D02*
X2612000Y-12184000D01*
X3112000Y-11684000D02*
X2612000Y-11184000D01*
D18*
G04 #@! TO.C,X1*
X31111956Y-66601687D02*
G75*
G03X31108480Y-66715020I189564J-62533D01*
G01*
X32000020Y-59900200D02*
X43498600Y-59900200D01*
X32000020Y-76199380D02*
X32000020Y-59900200D01*
X43498600Y-76199380D02*
X43498600Y-59900200D01*
X31202460Y-71444500D02*
X31502180Y-71741680D01*
X31202460Y-70631700D02*
X31502180Y-70441200D01*
X31502180Y-71741680D02*
X32000020Y-71741680D01*
X31502180Y-70441200D02*
X32000020Y-70441200D01*
X31202460Y-69536960D02*
X31502180Y-69346460D01*
X31502180Y-69346460D02*
X32000020Y-69346460D01*
X31502180Y-71789940D02*
X32000020Y-71789940D01*
X31202460Y-71492760D02*
X31502180Y-71789940D01*
X31502180Y-71797560D02*
X32000020Y-71797560D01*
X31202460Y-71497840D02*
X31502180Y-71797560D01*
X32000020Y-69201680D02*
X31502180Y-69201680D01*
X31502180Y-69346460D02*
X31502180Y-69201680D01*
X31502180Y-70441200D02*
X31502180Y-69346460D01*
X31502180Y-71741680D02*
X31502180Y-70441200D01*
X31502180Y-71789940D02*
X31502180Y-71741680D01*
X31502180Y-71797560D02*
X31502180Y-71789940D01*
X31502180Y-69201680D02*
X31202460Y-69501400D01*
X31202460Y-69536960D02*
X31202460Y-69501400D01*
X31202460Y-70631700D02*
X31202460Y-69536960D01*
X31202460Y-71444500D02*
X31202460Y-70631700D01*
X31202460Y-71492760D02*
X31202460Y-71444500D01*
X31202460Y-71497840D02*
X31202460Y-71492760D01*
X31111020Y-66600720D02*
X32000020Y-66600720D01*
X31126260Y-66565160D02*
X31111020Y-66600720D01*
X31171980Y-66509280D02*
X31126260Y-66565160D01*
X31222780Y-66478800D02*
X31171980Y-66509280D01*
X31283740Y-66463560D02*
X31222780Y-66478800D01*
X31283740Y-66463560D02*
X32000020Y-66400060D01*
X31624100Y-68637800D02*
X32000020Y-68637800D01*
X31570760Y-68437140D02*
X32000020Y-68437140D01*
X31570760Y-68437140D02*
X31108480Y-66715020D01*
X31624100Y-68637800D02*
X31570760Y-68437140D01*
X32000020Y-76092700D02*
X43498600Y-76092700D01*
X37852180Y-75795520D02*
X42248920Y-75795520D01*
X37852180Y-76311140D02*
X42248920Y-76311140D01*
X32850920Y-75795520D02*
X37250200Y-75795520D01*
X32850920Y-76311140D02*
X37250200Y-76311140D01*
X32000020Y-76199380D02*
X43498600Y-76199380D01*
X35944640Y-76199380D02*
X35751600Y-75848860D01*
X40945900Y-76199380D02*
X40750320Y-75848860D01*
X33457980Y-76199380D02*
X33651020Y-75848860D01*
X33651020Y-75848860D02*
X32602000Y-75848860D01*
X35751600Y-75848860D02*
X33651020Y-75848860D01*
X37001280Y-75848860D02*
X35751600Y-75848860D01*
X38456700Y-76199380D02*
X38652280Y-75848860D01*
X38652280Y-75848860D02*
X37600720Y-75848860D01*
X40750320Y-75848860D02*
X38652280Y-75848860D01*
X42000000Y-75848860D02*
X40750320Y-75848860D01*
X31502180Y-70458980D02*
X32000020Y-70458980D01*
X31202460Y-70560580D02*
X31502180Y-70458980D01*
X31502180Y-69463300D02*
X32000020Y-69463300D01*
X31202460Y-69567440D02*
X31502180Y-69463300D01*
X38444000Y-76199380D02*
X38464320Y-75848860D01*
X33442740Y-76199380D02*
X33465600Y-75848860D01*
X36602500Y-76199380D02*
X36434860Y-75848860D01*
X41601220Y-76199380D02*
X41433580Y-75848860D01*
X37920760Y-76199380D02*
X38088400Y-75848860D01*
X32919500Y-76199380D02*
X33087140Y-75848860D01*
X37407680Y-76199380D02*
X37600720Y-75848860D01*
X37499120Y-76199380D02*
X37669300Y-75848860D01*
X32406420Y-76199380D02*
X32602000Y-75848860D01*
X32500400Y-76199380D02*
X32668040Y-75848860D01*
X37194320Y-76199380D02*
X37001280Y-75848860D01*
X42193040Y-76199380D02*
X42000000Y-75848860D01*
X31613940Y-68602240D02*
X32000020Y-68602240D01*
X31136420Y-66549920D02*
X32000020Y-66549920D01*
X31243100Y-67215400D02*
X32000020Y-67215400D01*
X31298980Y-67431300D02*
X32000020Y-67431300D01*
X36871740Y-76199380D02*
X36704100Y-75848860D01*
X41873000Y-76199380D02*
X41702820Y-75848860D01*
X32000020Y-75899660D02*
X43498600Y-75899660D01*
G04 #@! TO.C,X2*
X16111956Y-66601687D02*
G75*
G03X16108480Y-66715020I189564J-62533D01*
G01*
X17000020Y-59900200D02*
X28498600Y-59900200D01*
X17000020Y-76199380D02*
X17000020Y-59900200D01*
X28498600Y-76199380D02*
X28498600Y-59900200D01*
X16202460Y-71444500D02*
X16502180Y-71741680D01*
X16202460Y-70631700D02*
X16502180Y-70441200D01*
X16502180Y-71741680D02*
X17000020Y-71741680D01*
X16502180Y-70441200D02*
X17000020Y-70441200D01*
X16202460Y-69536960D02*
X16502180Y-69346460D01*
X16502180Y-69346460D02*
X17000020Y-69346460D01*
X16502180Y-71789940D02*
X17000020Y-71789940D01*
X16202460Y-71492760D02*
X16502180Y-71789940D01*
X16502180Y-71797560D02*
X17000020Y-71797560D01*
X16202460Y-71497840D02*
X16502180Y-71797560D01*
X17000020Y-69201680D02*
X16502180Y-69201680D01*
X16502180Y-69346460D02*
X16502180Y-69201680D01*
X16502180Y-70441200D02*
X16502180Y-69346460D01*
X16502180Y-71741680D02*
X16502180Y-70441200D01*
X16502180Y-71789940D02*
X16502180Y-71741680D01*
X16502180Y-71797560D02*
X16502180Y-71789940D01*
X16502180Y-69201680D02*
X16202460Y-69501400D01*
X16202460Y-69536960D02*
X16202460Y-69501400D01*
X16202460Y-70631700D02*
X16202460Y-69536960D01*
X16202460Y-71444500D02*
X16202460Y-70631700D01*
X16202460Y-71492760D02*
X16202460Y-71444500D01*
X16202460Y-71497840D02*
X16202460Y-71492760D01*
X16111020Y-66600720D02*
X17000020Y-66600720D01*
X16126260Y-66565160D02*
X16111020Y-66600720D01*
X16171980Y-66509280D02*
X16126260Y-66565160D01*
X16222780Y-66478800D02*
X16171980Y-66509280D01*
X16283740Y-66463560D02*
X16222780Y-66478800D01*
X16283740Y-66463560D02*
X17000020Y-66400060D01*
X16624100Y-68637800D02*
X17000020Y-68637800D01*
X16570760Y-68437140D02*
X17000020Y-68437140D01*
X16570760Y-68437140D02*
X16108480Y-66715020D01*
X16624100Y-68637800D02*
X16570760Y-68437140D01*
X17000020Y-76092700D02*
X28498600Y-76092700D01*
X22852180Y-75795520D02*
X27248920Y-75795520D01*
X22852180Y-76311140D02*
X27248920Y-76311140D01*
X17850920Y-75795520D02*
X22250200Y-75795520D01*
X17850920Y-76311140D02*
X22250200Y-76311140D01*
X17000020Y-76199380D02*
X28498600Y-76199380D01*
X20944640Y-76199380D02*
X20751600Y-75848860D01*
X25945900Y-76199380D02*
X25750320Y-75848860D01*
X18457980Y-76199380D02*
X18651020Y-75848860D01*
X18651020Y-75848860D02*
X17602000Y-75848860D01*
X20751600Y-75848860D02*
X18651020Y-75848860D01*
X22001280Y-75848860D02*
X20751600Y-75848860D01*
X23456700Y-76199380D02*
X23652280Y-75848860D01*
X23652280Y-75848860D02*
X22600720Y-75848860D01*
X25750320Y-75848860D02*
X23652280Y-75848860D01*
X27000000Y-75848860D02*
X25750320Y-75848860D01*
X16502180Y-70458980D02*
X17000020Y-70458980D01*
X16202460Y-70560580D02*
X16502180Y-70458980D01*
X16502180Y-69463300D02*
X17000020Y-69463300D01*
X16202460Y-69567440D02*
X16502180Y-69463300D01*
X23444000Y-76199380D02*
X23464320Y-75848860D01*
X18442740Y-76199380D02*
X18465600Y-75848860D01*
X21602500Y-76199380D02*
X21434860Y-75848860D01*
X26601220Y-76199380D02*
X26433580Y-75848860D01*
X22920760Y-76199380D02*
X23088400Y-75848860D01*
X17919500Y-76199380D02*
X18087140Y-75848860D01*
X22407680Y-76199380D02*
X22600720Y-75848860D01*
X22499120Y-76199380D02*
X22669300Y-75848860D01*
X17406420Y-76199380D02*
X17602000Y-75848860D01*
X17500400Y-76199380D02*
X17668040Y-75848860D01*
X22194320Y-76199380D02*
X22001280Y-75848860D01*
X27193040Y-76199380D02*
X27000000Y-75848860D01*
X16613940Y-68602240D02*
X17000020Y-68602240D01*
X16136420Y-66549920D02*
X17000020Y-66549920D01*
X16243100Y-67215400D02*
X17000020Y-67215400D01*
X16298980Y-67431300D02*
X17000020Y-67431300D01*
X21871740Y-76199380D02*
X21704100Y-75848860D01*
X26873000Y-76199380D02*
X26702820Y-75848860D01*
X17000020Y-75899660D02*
X28498600Y-75899660D01*
G04 #@! TO.C,X3*
X2000020Y-75899660D02*
X13498600Y-75899660D01*
X11873000Y-76199380D02*
X11702820Y-75848860D01*
X6871740Y-76199380D02*
X6704100Y-75848860D01*
X1298980Y-67431300D02*
X2000020Y-67431300D01*
X1243100Y-67215400D02*
X2000020Y-67215400D01*
X1136420Y-66549920D02*
X2000020Y-66549920D01*
X1613940Y-68602240D02*
X2000020Y-68602240D01*
X12193040Y-76199380D02*
X12000000Y-75848860D01*
X7194320Y-76199380D02*
X7001280Y-75848860D01*
X2500400Y-76199380D02*
X2668040Y-75848860D01*
X2406420Y-76199380D02*
X2602000Y-75848860D01*
X7499120Y-76199380D02*
X7669300Y-75848860D01*
X7407680Y-76199380D02*
X7600720Y-75848860D01*
X2919500Y-76199380D02*
X3087140Y-75848860D01*
X7920760Y-76199380D02*
X8088400Y-75848860D01*
X11601220Y-76199380D02*
X11433580Y-75848860D01*
X6602500Y-76199380D02*
X6434860Y-75848860D01*
X3442740Y-76199380D02*
X3465600Y-75848860D01*
X8444000Y-76199380D02*
X8464320Y-75848860D01*
X1202460Y-69567440D02*
X1502180Y-69463300D01*
X1502180Y-69463300D02*
X2000020Y-69463300D01*
X1202460Y-70560580D02*
X1502180Y-70458980D01*
X1502180Y-70458980D02*
X2000020Y-70458980D01*
X12000000Y-75848860D02*
X10750320Y-75848860D01*
X10750320Y-75848860D02*
X8652280Y-75848860D01*
X8652280Y-75848860D02*
X7600720Y-75848860D01*
X8456700Y-76199380D02*
X8652280Y-75848860D01*
X7001280Y-75848860D02*
X5751600Y-75848860D01*
X5751600Y-75848860D02*
X3651020Y-75848860D01*
X3651020Y-75848860D02*
X2602000Y-75848860D01*
X3457980Y-76199380D02*
X3651020Y-75848860D01*
X10945900Y-76199380D02*
X10750320Y-75848860D01*
X5944640Y-76199380D02*
X5751600Y-75848860D01*
X2000020Y-76199380D02*
X13498600Y-76199380D01*
X2850920Y-76311140D02*
X7250200Y-76311140D01*
X2850920Y-75795520D02*
X7250200Y-75795520D01*
X7852180Y-76311140D02*
X12248920Y-76311140D01*
X7852180Y-75795520D02*
X12248920Y-75795520D01*
X2000020Y-76092700D02*
X13498600Y-76092700D01*
X1624100Y-68637800D02*
X1570760Y-68437140D01*
X1570760Y-68437140D02*
X1108480Y-66715020D01*
X1570760Y-68437140D02*
X2000020Y-68437140D01*
X1624100Y-68637800D02*
X2000020Y-68637800D01*
X1283740Y-66463560D02*
X2000020Y-66400060D01*
X1283740Y-66463560D02*
X1222780Y-66478800D01*
X1222780Y-66478800D02*
X1171980Y-66509280D01*
X1171980Y-66509280D02*
X1126260Y-66565160D01*
X1126260Y-66565160D02*
X1111020Y-66600720D01*
X1111020Y-66600720D02*
X2000020Y-66600720D01*
X1202460Y-71497840D02*
X1202460Y-71492760D01*
X1202460Y-71492760D02*
X1202460Y-71444500D01*
X1202460Y-71444500D02*
X1202460Y-70631700D01*
X1202460Y-70631700D02*
X1202460Y-69536960D01*
X1202460Y-69536960D02*
X1202460Y-69501400D01*
X1502180Y-69201680D02*
X1202460Y-69501400D01*
X1502180Y-71797560D02*
X1502180Y-71789940D01*
X1502180Y-71789940D02*
X1502180Y-71741680D01*
X1502180Y-71741680D02*
X1502180Y-70441200D01*
X1502180Y-70441200D02*
X1502180Y-69346460D01*
X1502180Y-69346460D02*
X1502180Y-69201680D01*
X2000020Y-69201680D02*
X1502180Y-69201680D01*
X1202460Y-71497840D02*
X1502180Y-71797560D01*
X1502180Y-71797560D02*
X2000020Y-71797560D01*
X1202460Y-71492760D02*
X1502180Y-71789940D01*
X1502180Y-71789940D02*
X2000020Y-71789940D01*
X1502180Y-69346460D02*
X2000020Y-69346460D01*
X1202460Y-69536960D02*
X1502180Y-69346460D01*
X1502180Y-70441200D02*
X2000020Y-70441200D01*
X1502180Y-71741680D02*
X2000020Y-71741680D01*
X1202460Y-70631700D02*
X1502180Y-70441200D01*
X1202460Y-71444500D02*
X1502180Y-71741680D01*
X13498600Y-76199380D02*
X13498600Y-59900200D01*
X2000020Y-76199380D02*
X2000020Y-59900200D01*
X2000020Y-59900200D02*
X13498600Y-59900200D01*
X1111956Y-66601687D02*
G75*
G03X1108480Y-66715020I189564J-62533D01*
G01*
D10*
G04 #@! TO.C,J2*
X14290000Y-1872000D02*
X16950000Y-1872000D01*
X16950000Y-1872000D02*
X16950000Y-5082000D01*
X16950000Y-6602000D02*
X16950000Y-10162000D01*
X16950000Y-11682000D02*
X16950000Y-14892000D01*
X14290000Y-14892000D02*
X16950000Y-14892000D01*
X14290000Y-1872000D02*
X14290000Y-2542000D01*
X14290000Y-4062000D02*
X14290000Y-7622000D01*
X14290000Y-9142000D02*
X14290000Y-12702000D01*
X14290000Y-14222000D02*
X14290000Y-14892000D01*
X13080000Y-2542000D02*
X14290000Y-2542000D01*
G04 #@! TO.C,C26*
X42893000Y-41174000D02*
X34658000Y-41174000D01*
X34658000Y-41174000D02*
X34658000Y-45694000D01*
X34658000Y-45694000D02*
X42893000Y-45694000D01*
G04 #@! TO.C,MK1*
D14*
X21677476Y-48077380D02*
X21677476Y-47077380D01*
X22010809Y-47791666D01*
X22344142Y-47077380D01*
X22344142Y-48077380D01*
X22820333Y-48077380D02*
X22820333Y-47077380D01*
X23391761Y-48077380D02*
X22963190Y-47505952D01*
X23391761Y-47077380D02*
X22820333Y-47648809D01*
X24344142Y-48077380D02*
X23772714Y-48077380D01*
X24058428Y-48077380D02*
X24058428Y-47077380D01*
X23963190Y-47220238D01*
X23867952Y-47315476D01*
X23772714Y-47363095D01*
G04 #@! TO.C,MK2*
X19010476Y-11501380D02*
X19010476Y-10501380D01*
X19343809Y-11215666D01*
X19677142Y-10501380D01*
X19677142Y-11501380D01*
X20153333Y-11501380D02*
X20153333Y-10501380D01*
X20724761Y-11501380D02*
X20296190Y-10929952D01*
X20724761Y-10501380D02*
X20153333Y-11072809D01*
X21105714Y-10596619D02*
X21153333Y-10549000D01*
X21248571Y-10501380D01*
X21486666Y-10501380D01*
X21581904Y-10549000D01*
X21629523Y-10596619D01*
X21677142Y-10691857D01*
X21677142Y-10787095D01*
X21629523Y-10929952D01*
X21058095Y-11501380D01*
X21677142Y-11501380D01*
G04 #@! TO.C,U1*
X28953666Y-25730142D02*
X29520333Y-25730142D01*
X29587000Y-25701571D01*
X29620333Y-25673000D01*
X29653666Y-25615857D01*
X29653666Y-25501571D01*
X29620333Y-25444428D01*
X29587000Y-25415857D01*
X29520333Y-25387285D01*
X28953666Y-25387285D01*
X29653666Y-24787285D02*
X29653666Y-25130142D01*
X29653666Y-24958714D02*
X28953666Y-24958714D01*
X29053666Y-25015857D01*
X29120333Y-25073000D01*
X29153666Y-25130142D01*
G04 #@! TO.C,C1*
X28444000Y-13816000D02*
X28477333Y-13844571D01*
X28510666Y-13930285D01*
X28510666Y-13987428D01*
X28477333Y-14073142D01*
X28410666Y-14130285D01*
X28344000Y-14158857D01*
X28210666Y-14187428D01*
X28110666Y-14187428D01*
X27977333Y-14158857D01*
X27910666Y-14130285D01*
X27844000Y-14073142D01*
X27810666Y-13987428D01*
X27810666Y-13930285D01*
X27844000Y-13844571D01*
X27877333Y-13816000D01*
X28510666Y-13244571D02*
X28510666Y-13587428D01*
X28510666Y-13416000D02*
X27810666Y-13416000D01*
X27910666Y-13473142D01*
X27977333Y-13530285D01*
X28010666Y-13587428D01*
G04 #@! TO.C,C6*
X23268000Y-14474000D02*
X23239428Y-14507333D01*
X23153714Y-14540666D01*
X23096571Y-14540666D01*
X23010857Y-14507333D01*
X22953714Y-14440666D01*
X22925142Y-14374000D01*
X22896571Y-14240666D01*
X22896571Y-14140666D01*
X22925142Y-14007333D01*
X22953714Y-13940666D01*
X23010857Y-13874000D01*
X23096571Y-13840666D01*
X23153714Y-13840666D01*
X23239428Y-13874000D01*
X23268000Y-13907333D01*
X23782285Y-13840666D02*
X23668000Y-13840666D01*
X23610857Y-13874000D01*
X23582285Y-13907333D01*
X23525142Y-14007333D01*
X23496571Y-14140666D01*
X23496571Y-14407333D01*
X23525142Y-14474000D01*
X23553714Y-14507333D01*
X23610857Y-14540666D01*
X23725142Y-14540666D01*
X23782285Y-14507333D01*
X23810857Y-14474000D01*
X23839428Y-14407333D01*
X23839428Y-14240666D01*
X23810857Y-14174000D01*
X23782285Y-14140666D01*
X23725142Y-14107333D01*
X23610857Y-14107333D01*
X23553714Y-14140666D01*
X23525142Y-14174000D01*
X23496571Y-14240666D01*
G04 #@! TO.C,C7*
X17934000Y-20745500D02*
X17905428Y-20778833D01*
X17819714Y-20812166D01*
X17762571Y-20812166D01*
X17676857Y-20778833D01*
X17619714Y-20712166D01*
X17591142Y-20645500D01*
X17562571Y-20512166D01*
X17562571Y-20412166D01*
X17591142Y-20278833D01*
X17619714Y-20212166D01*
X17676857Y-20145500D01*
X17762571Y-20112166D01*
X17819714Y-20112166D01*
X17905428Y-20145500D01*
X17934000Y-20178833D01*
X18134000Y-20112166D02*
X18534000Y-20112166D01*
X18276857Y-20812166D01*
G04 #@! TO.C,C8*
X17426000Y-25142000D02*
X17397428Y-25175333D01*
X17311714Y-25208666D01*
X17254571Y-25208666D01*
X17168857Y-25175333D01*
X17111714Y-25108666D01*
X17083142Y-25042000D01*
X17054571Y-24908666D01*
X17054571Y-24808666D01*
X17083142Y-24675333D01*
X17111714Y-24608666D01*
X17168857Y-24542000D01*
X17254571Y-24508666D01*
X17311714Y-24508666D01*
X17397428Y-24542000D01*
X17426000Y-24575333D01*
X17768857Y-24808666D02*
X17711714Y-24775333D01*
X17683142Y-24742000D01*
X17654571Y-24675333D01*
X17654571Y-24642000D01*
X17683142Y-24575333D01*
X17711714Y-24542000D01*
X17768857Y-24508666D01*
X17883142Y-24508666D01*
X17940285Y-24542000D01*
X17968857Y-24575333D01*
X17997428Y-24642000D01*
X17997428Y-24675333D01*
X17968857Y-24742000D01*
X17940285Y-24775333D01*
X17883142Y-24808666D01*
X17768857Y-24808666D01*
X17711714Y-24842000D01*
X17683142Y-24875333D01*
X17654571Y-24942000D01*
X17654571Y-25075333D01*
X17683142Y-25142000D01*
X17711714Y-25175333D01*
X17768857Y-25208666D01*
X17883142Y-25208666D01*
X17940285Y-25175333D01*
X17968857Y-25142000D01*
X17997428Y-25075333D01*
X17997428Y-24942000D01*
X17968857Y-24875333D01*
X17940285Y-24842000D01*
X17883142Y-24808666D01*
G04 #@! TO.C,C11*
X13584285Y-27809000D02*
X13555714Y-27842333D01*
X13470000Y-27875666D01*
X13412857Y-27875666D01*
X13327142Y-27842333D01*
X13270000Y-27775666D01*
X13241428Y-27709000D01*
X13212857Y-27575666D01*
X13212857Y-27475666D01*
X13241428Y-27342333D01*
X13270000Y-27275666D01*
X13327142Y-27209000D01*
X13412857Y-27175666D01*
X13470000Y-27175666D01*
X13555714Y-27209000D01*
X13584285Y-27242333D01*
X14155714Y-27875666D02*
X13812857Y-27875666D01*
X13984285Y-27875666D02*
X13984285Y-27175666D01*
X13927142Y-27275666D01*
X13870000Y-27342333D01*
X13812857Y-27375666D01*
X14727142Y-27875666D02*
X14384285Y-27875666D01*
X14555714Y-27875666D02*
X14555714Y-27175666D01*
X14498571Y-27275666D01*
X14441428Y-27342333D01*
X14384285Y-27375666D01*
G04 #@! TO.C,C12*
X13076285Y-24888000D02*
X13047714Y-24921333D01*
X12962000Y-24954666D01*
X12904857Y-24954666D01*
X12819142Y-24921333D01*
X12762000Y-24854666D01*
X12733428Y-24788000D01*
X12704857Y-24654666D01*
X12704857Y-24554666D01*
X12733428Y-24421333D01*
X12762000Y-24354666D01*
X12819142Y-24288000D01*
X12904857Y-24254666D01*
X12962000Y-24254666D01*
X13047714Y-24288000D01*
X13076285Y-24321333D01*
X13647714Y-24954666D02*
X13304857Y-24954666D01*
X13476285Y-24954666D02*
X13476285Y-24254666D01*
X13419142Y-24354666D01*
X13362000Y-24421333D01*
X13304857Y-24454666D01*
X13876285Y-24321333D02*
X13904857Y-24288000D01*
X13962000Y-24254666D01*
X14104857Y-24254666D01*
X14162000Y-24288000D01*
X14190571Y-24321333D01*
X14219142Y-24388000D01*
X14219142Y-24454666D01*
X14190571Y-24554666D01*
X13847714Y-24954666D01*
X14219142Y-24954666D01*
G04 #@! TO.C,C13*
X24252285Y-31619000D02*
X24223714Y-31652333D01*
X24138000Y-31685666D01*
X24080857Y-31685666D01*
X23995142Y-31652333D01*
X23938000Y-31585666D01*
X23909428Y-31519000D01*
X23880857Y-31385666D01*
X23880857Y-31285666D01*
X23909428Y-31152333D01*
X23938000Y-31085666D01*
X23995142Y-31019000D01*
X24080857Y-30985666D01*
X24138000Y-30985666D01*
X24223714Y-31019000D01*
X24252285Y-31052333D01*
X24823714Y-31685666D02*
X24480857Y-31685666D01*
X24652285Y-31685666D02*
X24652285Y-30985666D01*
X24595142Y-31085666D01*
X24538000Y-31152333D01*
X24480857Y-31185666D01*
X25023714Y-30985666D02*
X25395142Y-30985666D01*
X25195142Y-31252333D01*
X25280857Y-31252333D01*
X25338000Y-31285666D01*
X25366571Y-31319000D01*
X25395142Y-31385666D01*
X25395142Y-31552333D01*
X25366571Y-31619000D01*
X25338000Y-31652333D01*
X25280857Y-31685666D01*
X25109428Y-31685666D01*
X25052285Y-31652333D01*
X25023714Y-31619000D01*
G04 #@! TO.C,C14*
X22220285Y-31619000D02*
X22191714Y-31652333D01*
X22106000Y-31685666D01*
X22048857Y-31685666D01*
X21963142Y-31652333D01*
X21906000Y-31585666D01*
X21877428Y-31519000D01*
X21848857Y-31385666D01*
X21848857Y-31285666D01*
X21877428Y-31152333D01*
X21906000Y-31085666D01*
X21963142Y-31019000D01*
X22048857Y-30985666D01*
X22106000Y-30985666D01*
X22191714Y-31019000D01*
X22220285Y-31052333D01*
X22791714Y-31685666D02*
X22448857Y-31685666D01*
X22620285Y-31685666D02*
X22620285Y-30985666D01*
X22563142Y-31085666D01*
X22506000Y-31152333D01*
X22448857Y-31185666D01*
X23306000Y-31219000D02*
X23306000Y-31685666D01*
X23163142Y-30952333D02*
X23020285Y-31452333D01*
X23391714Y-31452333D01*
G04 #@! TO.C,C15*
X26157285Y-31619000D02*
X26128714Y-31652333D01*
X26043000Y-31685666D01*
X25985857Y-31685666D01*
X25900142Y-31652333D01*
X25843000Y-31585666D01*
X25814428Y-31519000D01*
X25785857Y-31385666D01*
X25785857Y-31285666D01*
X25814428Y-31152333D01*
X25843000Y-31085666D01*
X25900142Y-31019000D01*
X25985857Y-30985666D01*
X26043000Y-30985666D01*
X26128714Y-31019000D01*
X26157285Y-31052333D01*
X26728714Y-31685666D02*
X26385857Y-31685666D01*
X26557285Y-31685666D02*
X26557285Y-30985666D01*
X26500142Y-31085666D01*
X26443000Y-31152333D01*
X26385857Y-31185666D01*
X27271571Y-30985666D02*
X26985857Y-30985666D01*
X26957285Y-31319000D01*
X26985857Y-31285666D01*
X27043000Y-31252333D01*
X27185857Y-31252333D01*
X27243000Y-31285666D01*
X27271571Y-31319000D01*
X27300142Y-31385666D01*
X27300142Y-31552333D01*
X27271571Y-31619000D01*
X27243000Y-31652333D01*
X27185857Y-31685666D01*
X27043000Y-31685666D01*
X26985857Y-31652333D01*
X26957285Y-31619000D01*
G04 #@! TO.C,C16*
X31110285Y-24888000D02*
X31081714Y-24921333D01*
X30996000Y-24954666D01*
X30938857Y-24954666D01*
X30853142Y-24921333D01*
X30796000Y-24854666D01*
X30767428Y-24788000D01*
X30738857Y-24654666D01*
X30738857Y-24554666D01*
X30767428Y-24421333D01*
X30796000Y-24354666D01*
X30853142Y-24288000D01*
X30938857Y-24254666D01*
X30996000Y-24254666D01*
X31081714Y-24288000D01*
X31110285Y-24321333D01*
X31681714Y-24954666D02*
X31338857Y-24954666D01*
X31510285Y-24954666D02*
X31510285Y-24254666D01*
X31453142Y-24354666D01*
X31396000Y-24421333D01*
X31338857Y-24454666D01*
X32196000Y-24254666D02*
X32081714Y-24254666D01*
X32024571Y-24288000D01*
X31996000Y-24321333D01*
X31938857Y-24421333D01*
X31910285Y-24554666D01*
X31910285Y-24821333D01*
X31938857Y-24888000D01*
X31967428Y-24921333D01*
X32024571Y-24954666D01*
X32138857Y-24954666D01*
X32196000Y-24921333D01*
X32224571Y-24888000D01*
X32253142Y-24821333D01*
X32253142Y-24654666D01*
X32224571Y-24588000D01*
X32196000Y-24554666D01*
X32138857Y-24521333D01*
X32024571Y-24521333D01*
X31967428Y-24554666D01*
X31938857Y-24588000D01*
X31910285Y-24654666D01*
G04 #@! TO.C,C17*
X24760285Y-38096000D02*
X24731714Y-38129333D01*
X24646000Y-38162666D01*
X24588857Y-38162666D01*
X24503142Y-38129333D01*
X24446000Y-38062666D01*
X24417428Y-37996000D01*
X24388857Y-37862666D01*
X24388857Y-37762666D01*
X24417428Y-37629333D01*
X24446000Y-37562666D01*
X24503142Y-37496000D01*
X24588857Y-37462666D01*
X24646000Y-37462666D01*
X24731714Y-37496000D01*
X24760285Y-37529333D01*
X25331714Y-38162666D02*
X24988857Y-38162666D01*
X25160285Y-38162666D02*
X25160285Y-37462666D01*
X25103142Y-37562666D01*
X25046000Y-37629333D01*
X24988857Y-37662666D01*
X25531714Y-37462666D02*
X25931714Y-37462666D01*
X25674571Y-38162666D01*
G04 #@! TO.C,Cb1*
X17154571Y-30095000D02*
X17126000Y-30128333D01*
X17040285Y-30161666D01*
X16983142Y-30161666D01*
X16897428Y-30128333D01*
X16840285Y-30061666D01*
X16811714Y-29995000D01*
X16783142Y-29861666D01*
X16783142Y-29761666D01*
X16811714Y-29628333D01*
X16840285Y-29561666D01*
X16897428Y-29495000D01*
X16983142Y-29461666D01*
X17040285Y-29461666D01*
X17126000Y-29495000D01*
X17154571Y-29528333D01*
X17411714Y-30161666D02*
X17411714Y-29461666D01*
X17411714Y-29728333D02*
X17468857Y-29695000D01*
X17583142Y-29695000D01*
X17640285Y-29728333D01*
X17668857Y-29761666D01*
X17697428Y-29828333D01*
X17697428Y-30028333D01*
X17668857Y-30095000D01*
X17640285Y-30128333D01*
X17583142Y-30161666D01*
X17468857Y-30161666D01*
X17411714Y-30128333D01*
X18268857Y-30161666D02*
X17926000Y-30161666D01*
X18097428Y-30161666D02*
X18097428Y-29461666D01*
X18040285Y-29561666D01*
X17983142Y-29628333D01*
X17926000Y-29661666D01*
G04 #@! TO.C,Cc1*
X19708857Y-18665000D02*
X19680285Y-18698333D01*
X19594571Y-18731666D01*
X19537428Y-18731666D01*
X19451714Y-18698333D01*
X19394571Y-18631666D01*
X19366000Y-18565000D01*
X19337428Y-18431666D01*
X19337428Y-18331666D01*
X19366000Y-18198333D01*
X19394571Y-18131666D01*
X19451714Y-18065000D01*
X19537428Y-18031666D01*
X19594571Y-18031666D01*
X19680285Y-18065000D01*
X19708857Y-18098333D01*
X20223142Y-18698333D02*
X20166000Y-18731666D01*
X20051714Y-18731666D01*
X19994571Y-18698333D01*
X19966000Y-18665000D01*
X19937428Y-18598333D01*
X19937428Y-18398333D01*
X19966000Y-18331666D01*
X19994571Y-18298333D01*
X20051714Y-18265000D01*
X20166000Y-18265000D01*
X20223142Y-18298333D01*
X20794571Y-18731666D02*
X20451714Y-18731666D01*
X20623142Y-18731666D02*
X20623142Y-18031666D01*
X20566000Y-18131666D01*
X20508857Y-18198333D01*
X20451714Y-18231666D01*
G04 #@! TO.C,Cc2*
X18692857Y-12569000D02*
X18664285Y-12602333D01*
X18578571Y-12635666D01*
X18521428Y-12635666D01*
X18435714Y-12602333D01*
X18378571Y-12535666D01*
X18350000Y-12469000D01*
X18321428Y-12335666D01*
X18321428Y-12235666D01*
X18350000Y-12102333D01*
X18378571Y-12035666D01*
X18435714Y-11969000D01*
X18521428Y-11935666D01*
X18578571Y-11935666D01*
X18664285Y-11969000D01*
X18692857Y-12002333D01*
X19207142Y-12602333D02*
X19150000Y-12635666D01*
X19035714Y-12635666D01*
X18978571Y-12602333D01*
X18950000Y-12569000D01*
X18921428Y-12502333D01*
X18921428Y-12302333D01*
X18950000Y-12235666D01*
X18978571Y-12202333D01*
X19035714Y-12169000D01*
X19150000Y-12169000D01*
X19207142Y-12202333D01*
X19435714Y-12002333D02*
X19464285Y-11969000D01*
X19521428Y-11935666D01*
X19664285Y-11935666D01*
X19721428Y-11969000D01*
X19750000Y-12002333D01*
X19778571Y-12069000D01*
X19778571Y-12135666D01*
X19750000Y-12235666D01*
X19407142Y-12635666D01*
X19778571Y-12635666D01*
G04 #@! TO.C,Cpn1*
X28059142Y-31619000D02*
X28030571Y-31652333D01*
X27944857Y-31685666D01*
X27887714Y-31685666D01*
X27802000Y-31652333D01*
X27744857Y-31585666D01*
X27716285Y-31519000D01*
X27687714Y-31385666D01*
X27687714Y-31285666D01*
X27716285Y-31152333D01*
X27744857Y-31085666D01*
X27802000Y-31019000D01*
X27887714Y-30985666D01*
X27944857Y-30985666D01*
X28030571Y-31019000D01*
X28059142Y-31052333D01*
X28316285Y-31219000D02*
X28316285Y-31919000D01*
X28316285Y-31252333D02*
X28373428Y-31219000D01*
X28487714Y-31219000D01*
X28544857Y-31252333D01*
X28573428Y-31285666D01*
X28602000Y-31352333D01*
X28602000Y-31552333D01*
X28573428Y-31619000D01*
X28544857Y-31652333D01*
X28487714Y-31685666D01*
X28373428Y-31685666D01*
X28316285Y-31652333D01*
X28859142Y-31219000D02*
X28859142Y-31685666D01*
X28859142Y-31285666D02*
X28887714Y-31252333D01*
X28944857Y-31219000D01*
X29030571Y-31219000D01*
X29087714Y-31252333D01*
X29116285Y-31319000D01*
X29116285Y-31685666D01*
X29716285Y-31685666D02*
X29373428Y-31685666D01*
X29544857Y-31685666D02*
X29544857Y-30985666D01*
X29487714Y-31085666D01*
X29430571Y-31152333D01*
X29373428Y-31185666D01*
G04 #@! TO.C,D1*
X36765666Y-11830857D02*
X36065666Y-11830857D01*
X36065666Y-11688000D01*
X36099000Y-11602285D01*
X36165666Y-11545142D01*
X36232333Y-11516571D01*
X36365666Y-11488000D01*
X36465666Y-11488000D01*
X36599000Y-11516571D01*
X36665666Y-11545142D01*
X36732333Y-11602285D01*
X36765666Y-11688000D01*
X36765666Y-11830857D01*
X36765666Y-10916571D02*
X36765666Y-11259428D01*
X36765666Y-11088000D02*
X36065666Y-11088000D01*
X36165666Y-11145142D01*
X36232333Y-11202285D01*
X36265666Y-11259428D01*
D19*
X34502344Y-9629122D02*
X34548099Y-9644374D01*
X34563351Y-9659625D01*
X34578603Y-9690129D01*
X34578603Y-9735884D01*
X34563351Y-9766388D01*
X34548099Y-9781640D01*
X34517596Y-9796892D01*
X34395581Y-9796892D01*
X34395581Y-9476604D01*
X34502344Y-9476604D01*
X34532848Y-9491856D01*
X34548099Y-9507107D01*
X34563351Y-9537611D01*
X34563351Y-9568115D01*
X34548099Y-9598618D01*
X34532848Y-9613870D01*
X34502344Y-9629122D01*
X34395581Y-9629122D01*
X34685366Y-9476604D02*
X34898891Y-9476604D01*
X34685366Y-9796892D01*
X34898891Y-9796892D01*
X34975150Y-9476604D02*
X35158172Y-9476604D01*
X35066661Y-9796892D02*
X35066661Y-9476604D01*
X35417452Y-9476604D02*
X35264934Y-9476604D01*
X35249683Y-9629122D01*
X35264934Y-9613870D01*
X35295438Y-9598618D01*
X35371697Y-9598618D01*
X35402201Y-9613870D01*
X35417452Y-9629122D01*
X35432704Y-9659625D01*
X35432704Y-9735884D01*
X35417452Y-9766388D01*
X35402201Y-9781640D01*
X35371697Y-9796892D01*
X35295438Y-9796892D01*
X35264934Y-9781640D01*
X35249683Y-9766388D01*
X35554719Y-9507107D02*
X35569971Y-9491856D01*
X35600474Y-9476604D01*
X35676733Y-9476604D01*
X35707237Y-9491856D01*
X35722489Y-9507107D01*
X35737740Y-9537611D01*
X35737740Y-9568115D01*
X35722489Y-9613870D01*
X35539467Y-9796892D01*
X35737740Y-9796892D01*
X36058028Y-9766388D02*
X36042777Y-9781640D01*
X35997021Y-9796892D01*
X35966518Y-9796892D01*
X35920762Y-9781640D01*
X35890259Y-9751136D01*
X35875007Y-9720633D01*
X35859755Y-9659625D01*
X35859755Y-9613870D01*
X35875007Y-9552863D01*
X35890259Y-9522359D01*
X35920762Y-9491856D01*
X35966518Y-9476604D01*
X35997021Y-9476604D01*
X36042777Y-9491856D01*
X36058028Y-9507107D01*
X36363065Y-9796892D02*
X36180043Y-9796892D01*
X36271554Y-9796892D02*
X36271554Y-9476604D01*
X36241050Y-9522359D01*
X36210547Y-9552863D01*
X36180043Y-9568115D01*
X36652849Y-9476604D02*
X36500331Y-9476604D01*
X36485079Y-9629122D01*
X36500331Y-9613870D01*
X36530835Y-9598618D01*
X36607094Y-9598618D01*
X36637597Y-9613870D01*
X36652849Y-9629122D01*
X36668101Y-9659625D01*
X36668101Y-9735884D01*
X36652849Y-9766388D01*
X36637597Y-9781640D01*
X36607094Y-9796892D01*
X36530835Y-9796892D01*
X36500331Y-9781640D01*
X36485079Y-9766388D01*
X36957885Y-9796892D02*
X36805367Y-9796892D01*
X36805367Y-9476604D01*
X37064648Y-9796892D02*
X37064648Y-9476604D01*
X37186662Y-9476604D01*
X37217166Y-9491856D01*
X37232418Y-9507107D01*
X37247670Y-9537611D01*
X37247670Y-9583366D01*
X37232418Y-9613870D01*
X37217166Y-9629122D01*
X37186662Y-9644374D01*
X37064648Y-9644374D01*
G04 #@! TO.C,Db1*
X19576051Y-29337714D02*
X19255411Y-29337714D01*
X19255411Y-29261371D01*
X19270680Y-29215565D01*
X19301217Y-29185028D01*
X19331754Y-29169760D01*
X19392828Y-29154491D01*
X19438634Y-29154491D01*
X19499708Y-29169760D01*
X19530245Y-29185028D01*
X19560782Y-29215565D01*
X19576051Y-29261371D01*
X19576051Y-29337714D01*
X19576051Y-29017074D02*
X19255411Y-29017074D01*
X19377560Y-29017074D02*
X19362291Y-28986537D01*
X19362291Y-28925462D01*
X19377560Y-28894925D01*
X19392828Y-28879657D01*
X19423365Y-28864388D01*
X19514977Y-28864388D01*
X19545514Y-28879657D01*
X19560782Y-28894925D01*
X19576051Y-28925462D01*
X19576051Y-28986537D01*
X19560782Y-29017074D01*
X19576051Y-28559017D02*
X19576051Y-28742240D01*
X19576051Y-28650628D02*
X19255411Y-28650628D01*
X19301217Y-28681165D01*
X19331754Y-28711702D01*
X19347022Y-28742240D01*
X21480892Y-30776885D02*
X21480892Y-30959907D01*
X21480892Y-30868396D02*
X21160604Y-30868396D01*
X21206359Y-30898900D01*
X21236863Y-30929403D01*
X21252115Y-30959907D01*
X21480892Y-30639619D02*
X21160604Y-30639619D01*
X21480892Y-30456597D01*
X21160604Y-30456597D01*
X21267366Y-30166813D02*
X21480892Y-30166813D01*
X21145352Y-30243072D02*
X21374129Y-30319331D01*
X21374129Y-30121057D01*
X21267366Y-29861777D02*
X21480892Y-29861777D01*
X21145352Y-29938036D02*
X21374129Y-30014295D01*
X21374129Y-29816021D01*
X21267366Y-29556740D02*
X21480892Y-29556740D01*
X21145352Y-29633000D02*
X21374129Y-29709259D01*
X21374129Y-29510985D01*
X21297870Y-29343215D02*
X21282618Y-29373719D01*
X21267366Y-29388971D01*
X21236863Y-29404222D01*
X21221611Y-29404222D01*
X21191107Y-29388971D01*
X21175856Y-29373719D01*
X21160604Y-29343215D01*
X21160604Y-29282208D01*
X21175856Y-29251704D01*
X21191107Y-29236452D01*
X21221611Y-29221201D01*
X21236863Y-29221201D01*
X21267366Y-29236452D01*
X21282618Y-29251704D01*
X21297870Y-29282208D01*
X21297870Y-29343215D01*
X21313122Y-29373719D01*
X21328374Y-29388971D01*
X21358877Y-29404222D01*
X21419884Y-29404222D01*
X21450388Y-29388971D01*
X21465640Y-29373719D01*
X21480892Y-29343215D01*
X21480892Y-29282208D01*
X21465640Y-29251704D01*
X21450388Y-29236452D01*
X21419884Y-29221201D01*
X21358877Y-29221201D01*
X21328374Y-29236452D01*
X21313122Y-29251704D01*
X21297870Y-29282208D01*
X21480892Y-29083934D02*
X21160604Y-29083934D01*
X21313122Y-29083934D02*
X21313122Y-28900913D01*
X21480892Y-28900913D02*
X21160604Y-28900913D01*
X21480892Y-28595876D02*
X21480892Y-28748395D01*
X21160604Y-28748395D01*
X21480892Y-28489114D02*
X21160604Y-28489114D01*
X21160604Y-28367099D01*
X21175856Y-28336596D01*
X21191107Y-28321344D01*
X21221611Y-28306092D01*
X21267366Y-28306092D01*
X21297870Y-28321344D01*
X21313122Y-28336596D01*
X21328374Y-28367099D01*
X21328374Y-28489114D01*
G04 #@! TO.C,J3*
D12*
X22312380Y-12779333D02*
X23026666Y-12779333D01*
X23169523Y-12826952D01*
X23264761Y-12922190D01*
X23312380Y-13065047D01*
X23312380Y-13160285D01*
X22312380Y-12398380D02*
X22312380Y-11779333D01*
X22693333Y-12112666D01*
X22693333Y-11969809D01*
X22740952Y-11874571D01*
X22788571Y-11826952D01*
X22883809Y-11779333D01*
X23121904Y-11779333D01*
X23217142Y-11826952D01*
X23264761Y-11874571D01*
X23312380Y-11969809D01*
X23312380Y-12255523D01*
X23264761Y-12350761D01*
X23217142Y-12398380D01*
D14*
X24985714Y-10318000D02*
X24928571Y-10284666D01*
X24842857Y-10284666D01*
X24757142Y-10318000D01*
X24700000Y-10384666D01*
X24671428Y-10451333D01*
X24642857Y-10584666D01*
X24642857Y-10684666D01*
X24671428Y-10818000D01*
X24700000Y-10884666D01*
X24757142Y-10951333D01*
X24842857Y-10984666D01*
X24900000Y-10984666D01*
X24985714Y-10951333D01*
X25014285Y-10918000D01*
X25014285Y-10684666D01*
X24900000Y-10684666D01*
X25242857Y-10951333D02*
X25328571Y-10984666D01*
X25471428Y-10984666D01*
X25528571Y-10951333D01*
X25557142Y-10918000D01*
X25585714Y-10851333D01*
X25585714Y-10784666D01*
X25557142Y-10718000D01*
X25528571Y-10684666D01*
X25471428Y-10651333D01*
X25357142Y-10618000D01*
X25300000Y-10584666D01*
X25271428Y-10551333D01*
X25242857Y-10484666D01*
X25242857Y-10418000D01*
X25271428Y-10351333D01*
X25300000Y-10318000D01*
X25357142Y-10284666D01*
X25500000Y-10284666D01*
X25585714Y-10318000D01*
X25785714Y-10284666D02*
X26157142Y-10284666D01*
X25957142Y-10551333D01*
X26042857Y-10551333D01*
X26100000Y-10584666D01*
X26128571Y-10618000D01*
X26157142Y-10684666D01*
X26157142Y-10851333D01*
X26128571Y-10918000D01*
X26100000Y-10951333D01*
X26042857Y-10984666D01*
X25871428Y-10984666D01*
X25814285Y-10951333D01*
X25785714Y-10918000D01*
G04 #@! TO.C,JP1*
X31837380Y-5151333D02*
X32551666Y-5151333D01*
X32694523Y-5198952D01*
X32789761Y-5294190D01*
X32837380Y-5437047D01*
X32837380Y-5532285D01*
X32837380Y-4675142D02*
X31837380Y-4675142D01*
X31837380Y-4294190D01*
X31885000Y-4198952D01*
X31932619Y-4151333D01*
X32027857Y-4103714D01*
X32170714Y-4103714D01*
X32265952Y-4151333D01*
X32313571Y-4198952D01*
X32361190Y-4294190D01*
X32361190Y-4675142D01*
X32837380Y-3151333D02*
X32837380Y-3722761D01*
X32837380Y-3437047D02*
X31837380Y-3437047D01*
X31980238Y-3532285D01*
X32075476Y-3627523D01*
X32123095Y-3722761D01*
G04 #@! TO.C,JP2*
X2627380Y-8834333D02*
X3341666Y-8834333D01*
X3484523Y-8881952D01*
X3579761Y-8977190D01*
X3627380Y-9120047D01*
X3627380Y-9215285D01*
X3627380Y-8358142D02*
X2627380Y-8358142D01*
X2627380Y-7977190D01*
X2675000Y-7881952D01*
X2722619Y-7834333D01*
X2817857Y-7786714D01*
X2960714Y-7786714D01*
X3055952Y-7834333D01*
X3103571Y-7881952D01*
X3151190Y-7977190D01*
X3151190Y-8358142D01*
X2722619Y-7405761D02*
X2675000Y-7358142D01*
X2627380Y-7262904D01*
X2627380Y-7024809D01*
X2675000Y-6929571D01*
X2722619Y-6881952D01*
X2817857Y-6834333D01*
X2913095Y-6834333D01*
X3055952Y-6881952D01*
X3627380Y-7453380D01*
X3627380Y-6834333D01*
G04 #@! TO.C,L1*
X3388721Y-47063041D02*
X2910783Y-47063041D01*
X2910783Y-46059371D01*
X4249010Y-47063041D02*
X3675484Y-47063041D01*
X3962247Y-47063041D02*
X3962247Y-46059371D01*
X3866659Y-46202752D01*
X3771072Y-46298340D01*
X3675484Y-46346134D01*
X7357275Y-46934991D02*
X6785075Y-46934991D01*
X7071175Y-46934991D02*
X7071175Y-45933641D01*
X6975808Y-46076691D01*
X6880441Y-46172058D01*
X6785075Y-46219741D01*
X7977158Y-45933641D02*
X8072525Y-45933641D01*
X8167891Y-45981325D01*
X8215575Y-46029008D01*
X8263258Y-46124375D01*
X8310941Y-46315108D01*
X8310941Y-46553525D01*
X8263258Y-46744258D01*
X8215575Y-46839625D01*
X8167891Y-46887308D01*
X8072525Y-46934991D01*
X7977158Y-46934991D01*
X7881791Y-46887308D01*
X7834108Y-46839625D01*
X7786425Y-46744258D01*
X7738741Y-46553525D01*
X7738741Y-46315108D01*
X7786425Y-46124375D01*
X7834108Y-46029008D01*
X7881791Y-45981325D01*
X7977158Y-45933641D01*
X9169241Y-46267425D02*
X9169241Y-46934991D01*
X8740091Y-46267425D02*
X8740091Y-46791941D01*
X8787775Y-46887308D01*
X8883141Y-46934991D01*
X9026191Y-46934991D01*
X9121558Y-46887308D01*
X9169241Y-46839625D01*
G04 #@! TO.C,M1*
X27866285Y-12254666D02*
X27866285Y-11554666D01*
X28066285Y-12054666D01*
X28266285Y-11554666D01*
X28266285Y-12254666D01*
X28866285Y-12254666D02*
X28523428Y-12254666D01*
X28694857Y-12254666D02*
X28694857Y-11554666D01*
X28637714Y-11654666D01*
X28580571Y-11721333D01*
X28523428Y-11754666D01*
G04 #@! TO.C,M2*
X28916285Y-7428666D02*
X28916285Y-6728666D01*
X29116285Y-7228666D01*
X29316285Y-6728666D01*
X29316285Y-7428666D01*
X29573428Y-6795333D02*
X29602000Y-6762000D01*
X29659142Y-6728666D01*
X29802000Y-6728666D01*
X29859142Y-6762000D01*
X29887714Y-6795333D01*
X29916285Y-6862000D01*
X29916285Y-6928666D01*
X29887714Y-7028666D01*
X29544857Y-7428666D01*
X29916285Y-7428666D01*
G04 #@! TO.C,M3*
X21104285Y-38371428D02*
X21104285Y-37771428D01*
X21304285Y-38200000D01*
X21504285Y-37771428D01*
X21504285Y-38371428D01*
X21732857Y-37771428D02*
X22104285Y-37771428D01*
X21904285Y-38000000D01*
X21990000Y-38000000D01*
X22047142Y-38028571D01*
X22075714Y-38057142D01*
X22104285Y-38114285D01*
X22104285Y-38257142D01*
X22075714Y-38314285D01*
X22047142Y-38342857D01*
X21990000Y-38371428D01*
X21818571Y-38371428D01*
X21761428Y-38342857D01*
X21732857Y-38314285D01*
X15698000Y-37687000D02*
X15698000Y-37887000D01*
X16064666Y-37887000D02*
X15364666Y-37887000D01*
X15364666Y-37601285D01*
X16064666Y-37372714D02*
X15364666Y-37372714D01*
X15364666Y-37229857D01*
X15398000Y-37144142D01*
X15464666Y-37087000D01*
X15531333Y-37058428D01*
X15664666Y-37029857D01*
X15764666Y-37029857D01*
X15898000Y-37058428D01*
X15964666Y-37087000D01*
X16031333Y-37144142D01*
X16064666Y-37229857D01*
X16064666Y-37372714D01*
X16064666Y-36772714D02*
X15364666Y-36772714D01*
X15864666Y-36572714D01*
X15364666Y-36372714D01*
X16064666Y-36372714D01*
X15998000Y-35744142D02*
X16031333Y-35772714D01*
X16064666Y-35858428D01*
X16064666Y-35915571D01*
X16031333Y-36001285D01*
X15964666Y-36058428D01*
X15898000Y-36087000D01*
X15764666Y-36115571D01*
X15664666Y-36115571D01*
X15531333Y-36087000D01*
X15464666Y-36058428D01*
X15398000Y-36001285D01*
X15364666Y-35915571D01*
X15364666Y-35858428D01*
X15398000Y-35772714D01*
X15431333Y-35744142D01*
X15664666Y-35401285D02*
X15631333Y-35458428D01*
X15598000Y-35487000D01*
X15531333Y-35515571D01*
X15498000Y-35515571D01*
X15431333Y-35487000D01*
X15398000Y-35458428D01*
X15364666Y-35401285D01*
X15364666Y-35287000D01*
X15398000Y-35229857D01*
X15431333Y-35201285D01*
X15498000Y-35172714D01*
X15531333Y-35172714D01*
X15598000Y-35201285D01*
X15631333Y-35229857D01*
X15664666Y-35287000D01*
X15664666Y-35401285D01*
X15698000Y-35458428D01*
X15731333Y-35487000D01*
X15798000Y-35515571D01*
X15931333Y-35515571D01*
X15998000Y-35487000D01*
X16031333Y-35458428D01*
X16064666Y-35401285D01*
X16064666Y-35287000D01*
X16031333Y-35229857D01*
X15998000Y-35201285D01*
X15931333Y-35172714D01*
X15798000Y-35172714D01*
X15731333Y-35201285D01*
X15698000Y-35229857D01*
X15664666Y-35287000D01*
X15364666Y-34801285D02*
X15364666Y-34744142D01*
X15398000Y-34687000D01*
X15431333Y-34658428D01*
X15498000Y-34629857D01*
X15631333Y-34601285D01*
X15798000Y-34601285D01*
X15931333Y-34629857D01*
X15998000Y-34658428D01*
X16031333Y-34687000D01*
X16064666Y-34744142D01*
X16064666Y-34801285D01*
X16031333Y-34858428D01*
X15998000Y-34887000D01*
X15931333Y-34915571D01*
X15798000Y-34944142D01*
X15631333Y-34944142D01*
X15498000Y-34915571D01*
X15431333Y-34887000D01*
X15398000Y-34858428D01*
X15364666Y-34801285D01*
X15364666Y-34401285D02*
X15364666Y-34029857D01*
X15631333Y-34229857D01*
X15631333Y-34144142D01*
X15664666Y-34087000D01*
X15698000Y-34058428D01*
X15764666Y-34029857D01*
X15931333Y-34029857D01*
X15998000Y-34058428D01*
X16031333Y-34087000D01*
X16064666Y-34144142D01*
X16064666Y-34315571D01*
X16031333Y-34372714D01*
X15998000Y-34401285D01*
X15364666Y-33658428D02*
X15364666Y-33601285D01*
X15398000Y-33544142D01*
X15431333Y-33515571D01*
X15498000Y-33487000D01*
X15631333Y-33458428D01*
X15798000Y-33458428D01*
X15931333Y-33487000D01*
X15998000Y-33515571D01*
X16031333Y-33544142D01*
X16064666Y-33601285D01*
X16064666Y-33658428D01*
X16031333Y-33715571D01*
X15998000Y-33744142D01*
X15931333Y-33772714D01*
X15798000Y-33801285D01*
X15631333Y-33801285D01*
X15498000Y-33772714D01*
X15431333Y-33744142D01*
X15398000Y-33715571D01*
X15364666Y-33658428D01*
G04 #@! TO.C,M4*
X24118530Y-46391291D02*
X24118530Y-45749593D01*
X24332429Y-46207949D01*
X24546328Y-45749593D01*
X24546328Y-46391291D01*
X25126912Y-45963493D02*
X25126912Y-46391291D01*
X24974127Y-45719036D02*
X24821342Y-46177392D01*
X25218583Y-46177392D01*
X27056145Y-48281450D02*
X27086633Y-48189987D01*
X27086633Y-48037548D01*
X27056145Y-47976573D01*
X27025657Y-47946085D01*
X26964682Y-47915597D01*
X26903707Y-47915597D01*
X26842731Y-47946085D01*
X26812243Y-47976573D01*
X26781756Y-48037548D01*
X26751268Y-48159499D01*
X26720780Y-48220474D01*
X26690293Y-48250962D01*
X26629317Y-48281450D01*
X26568342Y-48281450D01*
X26507366Y-48250962D01*
X26476879Y-48220474D01*
X26446391Y-48159499D01*
X26446391Y-48007060D01*
X26476879Y-47915597D01*
X27086633Y-47641208D02*
X26446391Y-47641208D01*
X26446391Y-47397306D02*
X26446391Y-46970478D01*
X27086633Y-47244867D01*
X26446391Y-46452187D02*
X26446391Y-46574138D01*
X26476879Y-46635113D01*
X26507366Y-46665601D01*
X26598829Y-46726576D01*
X26720780Y-46757064D01*
X26964682Y-46757064D01*
X27025657Y-46726576D01*
X27056145Y-46696089D01*
X27086633Y-46635113D01*
X27086633Y-46513162D01*
X27056145Y-46452187D01*
X27025657Y-46421699D01*
X26964682Y-46391211D01*
X26812243Y-46391211D01*
X26751268Y-46421699D01*
X26720780Y-46452187D01*
X26690293Y-46513162D01*
X26690293Y-46635113D01*
X26720780Y-46696089D01*
X26751268Y-46726576D01*
X26812243Y-46757064D01*
X27086633Y-45781457D02*
X27086633Y-46147310D01*
X27086633Y-45964383D02*
X26446391Y-45964383D01*
X26537854Y-46025359D01*
X26598829Y-46086334D01*
X26629317Y-46147310D01*
X27086633Y-45171703D02*
X27086633Y-45537555D01*
X27086633Y-45354629D02*
X26446391Y-45354629D01*
X26537854Y-45415605D01*
X26598829Y-45476580D01*
X26629317Y-45537555D01*
X27086633Y-44897313D02*
X26446391Y-44897313D01*
X26446391Y-44744875D01*
X26476879Y-44653412D01*
X26537854Y-44592436D01*
X26598829Y-44561949D01*
X26720780Y-44531461D01*
X26812243Y-44531461D01*
X26934194Y-44561949D01*
X26995170Y-44592436D01*
X27056145Y-44653412D01*
X27086633Y-44744875D01*
X27086633Y-44897313D01*
X27086633Y-44257071D02*
X26446391Y-44257071D01*
X27086633Y-43891219D01*
X26446391Y-43891219D01*
X26842731Y-43586342D02*
X26842731Y-43098538D01*
X26446391Y-42885124D02*
X26446391Y-42519272D01*
X27086633Y-42702198D02*
X26446391Y-42702198D01*
X27086633Y-41970493D02*
X27086633Y-42336345D01*
X27086633Y-42153419D02*
X26446391Y-42153419D01*
X26537854Y-42214395D01*
X26598829Y-42275370D01*
X26629317Y-42336345D01*
X26842731Y-41696103D02*
X26842731Y-41208300D01*
X26476879Y-40568058D02*
X26446391Y-40629033D01*
X26446391Y-40720497D01*
X26476879Y-40811960D01*
X26537854Y-40872935D01*
X26598829Y-40903423D01*
X26720780Y-40933911D01*
X26812243Y-40933911D01*
X26934194Y-40903423D01*
X26995170Y-40872935D01*
X27056145Y-40811960D01*
X27086633Y-40720497D01*
X27086633Y-40659521D01*
X27056145Y-40568058D01*
X27025657Y-40537570D01*
X26812243Y-40537570D01*
X26812243Y-40659521D01*
X26751268Y-40263181D02*
X26751268Y-40049767D01*
X27086633Y-39958304D02*
X27086633Y-40263181D01*
X26446391Y-40263181D01*
X26446391Y-39958304D01*
X26446391Y-39744890D02*
X26446391Y-39348549D01*
X26690293Y-39561963D01*
X26690293Y-39470500D01*
X26720780Y-39409525D01*
X26751268Y-39379037D01*
X26812243Y-39348549D01*
X26964682Y-39348549D01*
X27025657Y-39379037D01*
X27056145Y-39409525D01*
X27086633Y-39470500D01*
X27086633Y-39653427D01*
X27056145Y-39714402D01*
X27025657Y-39744890D01*
G04 #@! TO.C,M5*
X37146666Y-24234714D02*
X36446666Y-24234714D01*
X36946666Y-24034714D01*
X36446666Y-23834714D01*
X37146666Y-23834714D01*
X36446666Y-23263285D02*
X36446666Y-23549000D01*
X36780000Y-23577571D01*
X36746666Y-23549000D01*
X36713333Y-23491857D01*
X36713333Y-23349000D01*
X36746666Y-23291857D01*
X36780000Y-23263285D01*
X36846666Y-23234714D01*
X37013333Y-23234714D01*
X37080000Y-23263285D01*
X37113333Y-23291857D01*
X37146666Y-23349000D01*
X37146666Y-23491857D01*
X37113333Y-23549000D01*
X37080000Y-23577571D01*
X40851142Y-25356857D02*
X40851142Y-25556857D01*
X41165428Y-25556857D02*
X40565428Y-25556857D01*
X40565428Y-25271142D01*
X41165428Y-25042571D02*
X40565428Y-25042571D01*
X40565428Y-24899714D01*
X40594000Y-24814000D01*
X40651142Y-24756857D01*
X40708285Y-24728285D01*
X40822571Y-24699714D01*
X40908285Y-24699714D01*
X41022571Y-24728285D01*
X41079714Y-24756857D01*
X41136857Y-24814000D01*
X41165428Y-24899714D01*
X41165428Y-25042571D01*
X41165428Y-24442571D02*
X40565428Y-24442571D01*
X40994000Y-24242571D01*
X40565428Y-24042571D01*
X41165428Y-24042571D01*
X41108285Y-23414000D02*
X41136857Y-23442571D01*
X41165428Y-23528285D01*
X41165428Y-23585428D01*
X41136857Y-23671142D01*
X41079714Y-23728285D01*
X41022571Y-23756857D01*
X40908285Y-23785428D01*
X40822571Y-23785428D01*
X40708285Y-23756857D01*
X40651142Y-23728285D01*
X40594000Y-23671142D01*
X40565428Y-23585428D01*
X40565428Y-23528285D01*
X40594000Y-23442571D01*
X40622571Y-23414000D01*
X40822571Y-23071142D02*
X40794000Y-23128285D01*
X40765428Y-23156857D01*
X40708285Y-23185428D01*
X40679714Y-23185428D01*
X40622571Y-23156857D01*
X40594000Y-23128285D01*
X40565428Y-23071142D01*
X40565428Y-22956857D01*
X40594000Y-22899714D01*
X40622571Y-22871142D01*
X40679714Y-22842571D01*
X40708285Y-22842571D01*
X40765428Y-22871142D01*
X40794000Y-22899714D01*
X40822571Y-22956857D01*
X40822571Y-23071142D01*
X40851142Y-23128285D01*
X40879714Y-23156857D01*
X40936857Y-23185428D01*
X41051142Y-23185428D01*
X41108285Y-23156857D01*
X41136857Y-23128285D01*
X41165428Y-23071142D01*
X41165428Y-22956857D01*
X41136857Y-22899714D01*
X41108285Y-22871142D01*
X41051142Y-22842571D01*
X40936857Y-22842571D01*
X40879714Y-22871142D01*
X40851142Y-22899714D01*
X40822571Y-22956857D01*
X40565428Y-22642571D02*
X40565428Y-22271142D01*
X40794000Y-22471142D01*
X40794000Y-22385428D01*
X40822571Y-22328285D01*
X40851142Y-22299714D01*
X40908285Y-22271142D01*
X41051142Y-22271142D01*
X41108285Y-22299714D01*
X41136857Y-22328285D01*
X41165428Y-22385428D01*
X41165428Y-22556857D01*
X41136857Y-22614000D01*
X41108285Y-22642571D01*
X40622571Y-22042571D02*
X40594000Y-22014000D01*
X40565428Y-21956857D01*
X40565428Y-21814000D01*
X40594000Y-21756857D01*
X40622571Y-21728285D01*
X40679714Y-21699714D01*
X40736857Y-21699714D01*
X40822571Y-21728285D01*
X41165428Y-22071142D01*
X41165428Y-21699714D01*
X40565428Y-21499714D02*
X40565428Y-21099714D01*
X41165428Y-21356857D01*
X41165428Y-20585428D02*
X41165428Y-20871142D01*
X40565428Y-20871142D01*
G04 #@! TO.C,R1*
X33174000Y-9539166D02*
X32974000Y-9205833D01*
X32831142Y-9539166D02*
X32831142Y-8839166D01*
X33059714Y-8839166D01*
X33116857Y-8872500D01*
X33145428Y-8905833D01*
X33174000Y-8972500D01*
X33174000Y-9072500D01*
X33145428Y-9139166D01*
X33116857Y-9172500D01*
X33059714Y-9205833D01*
X32831142Y-9205833D01*
X33745428Y-9539166D02*
X33402571Y-9539166D01*
X33574000Y-9539166D02*
X33574000Y-8839166D01*
X33516857Y-8939166D01*
X33459714Y-9005833D01*
X33402571Y-9039166D01*
G04 #@! TO.C,R2*
X31317500Y-10476666D02*
X31117500Y-10143333D01*
X30974642Y-10476666D02*
X30974642Y-9776666D01*
X31203214Y-9776666D01*
X31260357Y-9810000D01*
X31288928Y-9843333D01*
X31317500Y-9910000D01*
X31317500Y-10010000D01*
X31288928Y-10076666D01*
X31260357Y-10110000D01*
X31203214Y-10143333D01*
X30974642Y-10143333D01*
X31546071Y-9843333D02*
X31574642Y-9810000D01*
X31631785Y-9776666D01*
X31774642Y-9776666D01*
X31831785Y-9810000D01*
X31860357Y-9843333D01*
X31888928Y-9910000D01*
X31888928Y-9976666D01*
X31860357Y-10076666D01*
X31517500Y-10476666D01*
X31888928Y-10476666D01*
G04 #@! TO.C,R3*
X33336666Y-14324000D02*
X33003333Y-14524000D01*
X33336666Y-14666857D02*
X32636666Y-14666857D01*
X32636666Y-14438285D01*
X32670000Y-14381142D01*
X32703333Y-14352571D01*
X32770000Y-14324000D01*
X32870000Y-14324000D01*
X32936666Y-14352571D01*
X32970000Y-14381142D01*
X33003333Y-14438285D01*
X33003333Y-14666857D01*
X32636666Y-14124000D02*
X32636666Y-13752571D01*
X32903333Y-13952571D01*
X32903333Y-13866857D01*
X32936666Y-13809714D01*
X32970000Y-13781142D01*
X33036666Y-13752571D01*
X33203333Y-13752571D01*
X33270000Y-13781142D01*
X33303333Y-13809714D01*
X33336666Y-13866857D01*
X33336666Y-14038285D01*
X33303333Y-14095428D01*
X33270000Y-14124000D01*
G04 #@! TO.C,R4*
X31396000Y-20588166D02*
X31196000Y-20254833D01*
X31053142Y-20588166D02*
X31053142Y-19888166D01*
X31281714Y-19888166D01*
X31338857Y-19921500D01*
X31367428Y-19954833D01*
X31396000Y-20021500D01*
X31396000Y-20121500D01*
X31367428Y-20188166D01*
X31338857Y-20221500D01*
X31281714Y-20254833D01*
X31053142Y-20254833D01*
X31910285Y-20121500D02*
X31910285Y-20588166D01*
X31767428Y-19854833D02*
X31624571Y-20354833D01*
X31996000Y-20354833D01*
G04 #@! TO.C,R5*
X29491000Y-20588166D02*
X29291000Y-20254833D01*
X29148142Y-20588166D02*
X29148142Y-19888166D01*
X29376714Y-19888166D01*
X29433857Y-19921500D01*
X29462428Y-19954833D01*
X29491000Y-20021500D01*
X29491000Y-20121500D01*
X29462428Y-20188166D01*
X29433857Y-20221500D01*
X29376714Y-20254833D01*
X29148142Y-20254833D01*
X30033857Y-19888166D02*
X29748142Y-19888166D01*
X29719571Y-20221500D01*
X29748142Y-20188166D01*
X29805285Y-20154833D01*
X29948142Y-20154833D01*
X30005285Y-20188166D01*
X30033857Y-20221500D01*
X30062428Y-20288166D01*
X30062428Y-20454833D01*
X30033857Y-20521500D01*
X30005285Y-20554833D01*
X29948142Y-20588166D01*
X29805285Y-20588166D01*
X29748142Y-20554833D01*
X29719571Y-20521500D01*
G04 #@! TO.C,R6*
X27078000Y-14540666D02*
X26878000Y-14207333D01*
X26735142Y-14540666D02*
X26735142Y-13840666D01*
X26963714Y-13840666D01*
X27020857Y-13874000D01*
X27049428Y-13907333D01*
X27078000Y-13974000D01*
X27078000Y-14074000D01*
X27049428Y-14140666D01*
X27020857Y-14174000D01*
X26963714Y-14207333D01*
X26735142Y-14207333D01*
X27592285Y-13840666D02*
X27478000Y-13840666D01*
X27420857Y-13874000D01*
X27392285Y-13907333D01*
X27335142Y-14007333D01*
X27306571Y-14140666D01*
X27306571Y-14407333D01*
X27335142Y-14474000D01*
X27363714Y-14507333D01*
X27420857Y-14540666D01*
X27535142Y-14540666D01*
X27592285Y-14507333D01*
X27620857Y-14474000D01*
X27649428Y-14407333D01*
X27649428Y-14240666D01*
X27620857Y-14174000D01*
X27592285Y-14140666D01*
X27535142Y-14107333D01*
X27420857Y-14107333D01*
X27363714Y-14140666D01*
X27335142Y-14174000D01*
X27306571Y-14240666D01*
G04 #@! TO.C,R7*
X25173000Y-14540666D02*
X24973000Y-14207333D01*
X24830142Y-14540666D02*
X24830142Y-13840666D01*
X25058714Y-13840666D01*
X25115857Y-13874000D01*
X25144428Y-13907333D01*
X25173000Y-13974000D01*
X25173000Y-14074000D01*
X25144428Y-14140666D01*
X25115857Y-14174000D01*
X25058714Y-14207333D01*
X24830142Y-14207333D01*
X25373000Y-13840666D02*
X25773000Y-13840666D01*
X25515857Y-14540666D01*
G04 #@! TO.C,R8*
X32285000Y-6920666D02*
X32085000Y-6587333D01*
X31942142Y-6920666D02*
X31942142Y-6220666D01*
X32170714Y-6220666D01*
X32227857Y-6254000D01*
X32256428Y-6287333D01*
X32285000Y-6354000D01*
X32285000Y-6454000D01*
X32256428Y-6520666D01*
X32227857Y-6554000D01*
X32170714Y-6587333D01*
X31942142Y-6587333D01*
X32627857Y-6520666D02*
X32570714Y-6487333D01*
X32542142Y-6454000D01*
X32513571Y-6387333D01*
X32513571Y-6354000D01*
X32542142Y-6287333D01*
X32570714Y-6254000D01*
X32627857Y-6220666D01*
X32742142Y-6220666D01*
X32799285Y-6254000D01*
X32827857Y-6287333D01*
X32856428Y-6354000D01*
X32856428Y-6387333D01*
X32827857Y-6454000D01*
X32799285Y-6487333D01*
X32742142Y-6520666D01*
X32627857Y-6520666D01*
X32570714Y-6554000D01*
X32542142Y-6587333D01*
X32513571Y-6654000D01*
X32513571Y-6787333D01*
X32542142Y-6854000D01*
X32570714Y-6887333D01*
X32627857Y-6920666D01*
X32742142Y-6920666D01*
X32799285Y-6887333D01*
X32827857Y-6854000D01*
X32856428Y-6787333D01*
X32856428Y-6654000D01*
X32827857Y-6587333D01*
X32799285Y-6554000D01*
X32742142Y-6520666D01*
G04 #@! TO.C,R9*
X10568000Y-18858666D02*
X10368000Y-18525333D01*
X10225142Y-18858666D02*
X10225142Y-18158666D01*
X10453714Y-18158666D01*
X10510857Y-18192000D01*
X10539428Y-18225333D01*
X10568000Y-18292000D01*
X10568000Y-18392000D01*
X10539428Y-18458666D01*
X10510857Y-18492000D01*
X10453714Y-18525333D01*
X10225142Y-18525333D01*
X10853714Y-18858666D02*
X10968000Y-18858666D01*
X11025142Y-18825333D01*
X11053714Y-18792000D01*
X11110857Y-18692000D01*
X11139428Y-18558666D01*
X11139428Y-18292000D01*
X11110857Y-18225333D01*
X11082285Y-18192000D01*
X11025142Y-18158666D01*
X10910857Y-18158666D01*
X10853714Y-18192000D01*
X10825142Y-18225333D01*
X10796571Y-18292000D01*
X10796571Y-18458666D01*
X10825142Y-18525333D01*
X10853714Y-18558666D01*
X10910857Y-18592000D01*
X11025142Y-18592000D01*
X11082285Y-18558666D01*
X11110857Y-18525333D01*
X11139428Y-18458666D01*
G04 #@! TO.C,R10*
X8250285Y-18858666D02*
X8050285Y-18525333D01*
X7907428Y-18858666D02*
X7907428Y-18158666D01*
X8136000Y-18158666D01*
X8193142Y-18192000D01*
X8221714Y-18225333D01*
X8250285Y-18292000D01*
X8250285Y-18392000D01*
X8221714Y-18458666D01*
X8193142Y-18492000D01*
X8136000Y-18525333D01*
X7907428Y-18525333D01*
X8821714Y-18858666D02*
X8478857Y-18858666D01*
X8650285Y-18858666D02*
X8650285Y-18158666D01*
X8593142Y-18258666D01*
X8536000Y-18325333D01*
X8478857Y-18358666D01*
X9193142Y-18158666D02*
X9250285Y-18158666D01*
X9307428Y-18192000D01*
X9336000Y-18225333D01*
X9364571Y-18292000D01*
X9393142Y-18425333D01*
X9393142Y-18592000D01*
X9364571Y-18725333D01*
X9336000Y-18792000D01*
X9307428Y-18825333D01*
X9250285Y-18858666D01*
X9193142Y-18858666D01*
X9136000Y-18825333D01*
X9107428Y-18792000D01*
X9078857Y-18725333D01*
X9050285Y-18592000D01*
X9050285Y-18425333D01*
X9078857Y-18292000D01*
X9107428Y-18225333D01*
X9136000Y-18192000D01*
X9193142Y-18158666D01*
G04 #@! TO.C,R11*
X6218285Y-18858666D02*
X6018285Y-18525333D01*
X5875428Y-18858666D02*
X5875428Y-18158666D01*
X6104000Y-18158666D01*
X6161142Y-18192000D01*
X6189714Y-18225333D01*
X6218285Y-18292000D01*
X6218285Y-18392000D01*
X6189714Y-18458666D01*
X6161142Y-18492000D01*
X6104000Y-18525333D01*
X5875428Y-18525333D01*
X6789714Y-18858666D02*
X6446857Y-18858666D01*
X6618285Y-18858666D02*
X6618285Y-18158666D01*
X6561142Y-18258666D01*
X6504000Y-18325333D01*
X6446857Y-18358666D01*
X7361142Y-18858666D02*
X7018285Y-18858666D01*
X7189714Y-18858666D02*
X7189714Y-18158666D01*
X7132571Y-18258666D01*
X7075428Y-18325333D01*
X7018285Y-18358666D01*
G04 #@! TO.C,R12*
X4186285Y-18858666D02*
X3986285Y-18525333D01*
X3843428Y-18858666D02*
X3843428Y-18158666D01*
X4072000Y-18158666D01*
X4129142Y-18192000D01*
X4157714Y-18225333D01*
X4186285Y-18292000D01*
X4186285Y-18392000D01*
X4157714Y-18458666D01*
X4129142Y-18492000D01*
X4072000Y-18525333D01*
X3843428Y-18525333D01*
X4757714Y-18858666D02*
X4414857Y-18858666D01*
X4586285Y-18858666D02*
X4586285Y-18158666D01*
X4529142Y-18258666D01*
X4472000Y-18325333D01*
X4414857Y-18358666D01*
X4986285Y-18225333D02*
X5014857Y-18192000D01*
X5072000Y-18158666D01*
X5214857Y-18158666D01*
X5272000Y-18192000D01*
X5300571Y-18225333D01*
X5329142Y-18292000D01*
X5329142Y-18358666D01*
X5300571Y-18458666D01*
X4957714Y-18858666D01*
X5329142Y-18858666D01*
G04 #@! TO.C,R13*
X2154285Y-18858666D02*
X1954285Y-18525333D01*
X1811428Y-18858666D02*
X1811428Y-18158666D01*
X2040000Y-18158666D01*
X2097142Y-18192000D01*
X2125714Y-18225333D01*
X2154285Y-18292000D01*
X2154285Y-18392000D01*
X2125714Y-18458666D01*
X2097142Y-18492000D01*
X2040000Y-18525333D01*
X1811428Y-18525333D01*
X2725714Y-18858666D02*
X2382857Y-18858666D01*
X2554285Y-18858666D02*
X2554285Y-18158666D01*
X2497142Y-18258666D01*
X2440000Y-18325333D01*
X2382857Y-18358666D01*
X2925714Y-18158666D02*
X3297142Y-18158666D01*
X3097142Y-18425333D01*
X3182857Y-18425333D01*
X3240000Y-18458666D01*
X3268571Y-18492000D01*
X3297142Y-18558666D01*
X3297142Y-18725333D01*
X3268571Y-18792000D01*
X3240000Y-18825333D01*
X3182857Y-18858666D01*
X3011428Y-18858666D01*
X2954285Y-18825333D01*
X2925714Y-18792000D01*
G04 #@! TO.C,R14*
X10282285Y-27240666D02*
X10082285Y-26907333D01*
X9939428Y-27240666D02*
X9939428Y-26540666D01*
X10168000Y-26540666D01*
X10225142Y-26574000D01*
X10253714Y-26607333D01*
X10282285Y-26674000D01*
X10282285Y-26774000D01*
X10253714Y-26840666D01*
X10225142Y-26874000D01*
X10168000Y-26907333D01*
X9939428Y-26907333D01*
X10853714Y-27240666D02*
X10510857Y-27240666D01*
X10682285Y-27240666D02*
X10682285Y-26540666D01*
X10625142Y-26640666D01*
X10568000Y-26707333D01*
X10510857Y-26740666D01*
X11368000Y-26774000D02*
X11368000Y-27240666D01*
X11225142Y-26507333D02*
X11082285Y-27007333D01*
X11453714Y-27007333D01*
G04 #@! TO.C,R15*
X8250285Y-27240666D02*
X8050285Y-26907333D01*
X7907428Y-27240666D02*
X7907428Y-26540666D01*
X8136000Y-26540666D01*
X8193142Y-26574000D01*
X8221714Y-26607333D01*
X8250285Y-26674000D01*
X8250285Y-26774000D01*
X8221714Y-26840666D01*
X8193142Y-26874000D01*
X8136000Y-26907333D01*
X7907428Y-26907333D01*
X8821714Y-27240666D02*
X8478857Y-27240666D01*
X8650285Y-27240666D02*
X8650285Y-26540666D01*
X8593142Y-26640666D01*
X8536000Y-26707333D01*
X8478857Y-26740666D01*
X9364571Y-26540666D02*
X9078857Y-26540666D01*
X9050285Y-26874000D01*
X9078857Y-26840666D01*
X9136000Y-26807333D01*
X9278857Y-26807333D01*
X9336000Y-26840666D01*
X9364571Y-26874000D01*
X9393142Y-26940666D01*
X9393142Y-27107333D01*
X9364571Y-27174000D01*
X9336000Y-27207333D01*
X9278857Y-27240666D01*
X9136000Y-27240666D01*
X9078857Y-27207333D01*
X9050285Y-27174000D01*
G04 #@! TO.C,R16*
X6218285Y-27240666D02*
X6018285Y-26907333D01*
X5875428Y-27240666D02*
X5875428Y-26540666D01*
X6104000Y-26540666D01*
X6161142Y-26574000D01*
X6189714Y-26607333D01*
X6218285Y-26674000D01*
X6218285Y-26774000D01*
X6189714Y-26840666D01*
X6161142Y-26874000D01*
X6104000Y-26907333D01*
X5875428Y-26907333D01*
X6789714Y-27240666D02*
X6446857Y-27240666D01*
X6618285Y-27240666D02*
X6618285Y-26540666D01*
X6561142Y-26640666D01*
X6504000Y-26707333D01*
X6446857Y-26740666D01*
X7304000Y-26540666D02*
X7189714Y-26540666D01*
X7132571Y-26574000D01*
X7104000Y-26607333D01*
X7046857Y-26707333D01*
X7018285Y-26840666D01*
X7018285Y-27107333D01*
X7046857Y-27174000D01*
X7075428Y-27207333D01*
X7132571Y-27240666D01*
X7246857Y-27240666D01*
X7304000Y-27207333D01*
X7332571Y-27174000D01*
X7361142Y-27107333D01*
X7361142Y-26940666D01*
X7332571Y-26874000D01*
X7304000Y-26840666D01*
X7246857Y-26807333D01*
X7132571Y-26807333D01*
X7075428Y-26840666D01*
X7046857Y-26874000D01*
X7018285Y-26940666D01*
G04 #@! TO.C,R17*
X4186285Y-27240666D02*
X3986285Y-26907333D01*
X3843428Y-27240666D02*
X3843428Y-26540666D01*
X4072000Y-26540666D01*
X4129142Y-26574000D01*
X4157714Y-26607333D01*
X4186285Y-26674000D01*
X4186285Y-26774000D01*
X4157714Y-26840666D01*
X4129142Y-26874000D01*
X4072000Y-26907333D01*
X3843428Y-26907333D01*
X4757714Y-27240666D02*
X4414857Y-27240666D01*
X4586285Y-27240666D02*
X4586285Y-26540666D01*
X4529142Y-26640666D01*
X4472000Y-26707333D01*
X4414857Y-26740666D01*
X4957714Y-26540666D02*
X5357714Y-26540666D01*
X5100571Y-27240666D01*
G04 #@! TO.C,R18*
X2154285Y-27240666D02*
X1954285Y-26907333D01*
X1811428Y-27240666D02*
X1811428Y-26540666D01*
X2040000Y-26540666D01*
X2097142Y-26574000D01*
X2125714Y-26607333D01*
X2154285Y-26674000D01*
X2154285Y-26774000D01*
X2125714Y-26840666D01*
X2097142Y-26874000D01*
X2040000Y-26907333D01*
X1811428Y-26907333D01*
X2725714Y-27240666D02*
X2382857Y-27240666D01*
X2554285Y-27240666D02*
X2554285Y-26540666D01*
X2497142Y-26640666D01*
X2440000Y-26707333D01*
X2382857Y-26740666D01*
X3068571Y-26840666D02*
X3011428Y-26807333D01*
X2982857Y-26774000D01*
X2954285Y-26707333D01*
X2954285Y-26674000D01*
X2982857Y-26607333D01*
X3011428Y-26574000D01*
X3068571Y-26540666D01*
X3182857Y-26540666D01*
X3240000Y-26574000D01*
X3268571Y-26607333D01*
X3297142Y-26674000D01*
X3297142Y-26707333D01*
X3268571Y-26774000D01*
X3240000Y-26807333D01*
X3182857Y-26840666D01*
X3068571Y-26840666D01*
X3011428Y-26874000D01*
X2982857Y-26907333D01*
X2954285Y-26974000D01*
X2954285Y-27107333D01*
X2982857Y-27174000D01*
X3011428Y-27207333D01*
X3068571Y-27240666D01*
X3182857Y-27240666D01*
X3240000Y-27207333D01*
X3268571Y-27174000D01*
X3297142Y-27107333D01*
X3297142Y-26974000D01*
X3268571Y-26907333D01*
X3240000Y-26874000D01*
X3182857Y-26840666D01*
G04 #@! TO.C,R19*
X37860166Y-11053714D02*
X37526833Y-11253714D01*
X37860166Y-11396571D02*
X37160166Y-11396571D01*
X37160166Y-11168000D01*
X37193500Y-11110857D01*
X37226833Y-11082285D01*
X37293500Y-11053714D01*
X37393500Y-11053714D01*
X37460166Y-11082285D01*
X37493500Y-11110857D01*
X37526833Y-11168000D01*
X37526833Y-11396571D01*
X37860166Y-10482285D02*
X37860166Y-10825142D01*
X37860166Y-10653714D02*
X37160166Y-10653714D01*
X37260166Y-10710857D01*
X37326833Y-10768000D01*
X37360166Y-10825142D01*
X37860166Y-10196571D02*
X37860166Y-10082285D01*
X37826833Y-10025142D01*
X37793500Y-9996571D01*
X37693500Y-9939428D01*
X37560166Y-9910857D01*
X37293500Y-9910857D01*
X37226833Y-9939428D01*
X37193500Y-9968000D01*
X37160166Y-10025142D01*
X37160166Y-10139428D01*
X37193500Y-10196571D01*
X37226833Y-10225142D01*
X37293500Y-10253714D01*
X37460166Y-10253714D01*
X37526833Y-10225142D01*
X37560166Y-10196571D01*
X37593500Y-10139428D01*
X37593500Y-10025142D01*
X37560166Y-9968000D01*
X37526833Y-9939428D01*
X37460166Y-9910857D01*
G04 #@! TO.C,R20*
X32126285Y-31685666D02*
X31926285Y-31352333D01*
X31783428Y-31685666D02*
X31783428Y-30985666D01*
X32012000Y-30985666D01*
X32069142Y-31019000D01*
X32097714Y-31052333D01*
X32126285Y-31119000D01*
X32126285Y-31219000D01*
X32097714Y-31285666D01*
X32069142Y-31319000D01*
X32012000Y-31352333D01*
X31783428Y-31352333D01*
X32354857Y-31052333D02*
X32383428Y-31019000D01*
X32440571Y-30985666D01*
X32583428Y-30985666D01*
X32640571Y-31019000D01*
X32669142Y-31052333D01*
X32697714Y-31119000D01*
X32697714Y-31185666D01*
X32669142Y-31285666D01*
X32326285Y-31685666D01*
X32697714Y-31685666D01*
X33069142Y-30985666D02*
X33126285Y-30985666D01*
X33183428Y-31019000D01*
X33212000Y-31052333D01*
X33240571Y-31119000D01*
X33269142Y-31252333D01*
X33269142Y-31419000D01*
X33240571Y-31552333D01*
X33212000Y-31619000D01*
X33183428Y-31652333D01*
X33126285Y-31685666D01*
X33069142Y-31685666D01*
X33012000Y-31652333D01*
X32983428Y-31619000D01*
X32954857Y-31552333D01*
X32926285Y-31419000D01*
X32926285Y-31252333D01*
X32954857Y-31119000D01*
X32983428Y-31052333D01*
X33012000Y-31019000D01*
X33069142Y-30985666D01*
G04 #@! TO.C,R21*
X30348285Y-31685666D02*
X30148285Y-31352333D01*
X30005428Y-31685666D02*
X30005428Y-30985666D01*
X30234000Y-30985666D01*
X30291142Y-31019000D01*
X30319714Y-31052333D01*
X30348285Y-31119000D01*
X30348285Y-31219000D01*
X30319714Y-31285666D01*
X30291142Y-31319000D01*
X30234000Y-31352333D01*
X30005428Y-31352333D01*
X30576857Y-31052333D02*
X30605428Y-31019000D01*
X30662571Y-30985666D01*
X30805428Y-30985666D01*
X30862571Y-31019000D01*
X30891142Y-31052333D01*
X30919714Y-31119000D01*
X30919714Y-31185666D01*
X30891142Y-31285666D01*
X30548285Y-31685666D01*
X30919714Y-31685666D01*
X31491142Y-31685666D02*
X31148285Y-31685666D01*
X31319714Y-31685666D02*
X31319714Y-30985666D01*
X31262571Y-31085666D01*
X31205428Y-31152333D01*
X31148285Y-31185666D01*
G04 #@! TO.C,R30*
X10476666Y-10878214D02*
X10143333Y-11078214D01*
X10476666Y-11221071D02*
X9776666Y-11221071D01*
X9776666Y-10992500D01*
X9810000Y-10935357D01*
X9843333Y-10906785D01*
X9910000Y-10878214D01*
X10010000Y-10878214D01*
X10076666Y-10906785D01*
X10110000Y-10935357D01*
X10143333Y-10992500D01*
X10143333Y-11221071D01*
X9776666Y-10678214D02*
X9776666Y-10306785D01*
X10043333Y-10506785D01*
X10043333Y-10421071D01*
X10076666Y-10363928D01*
X10110000Y-10335357D01*
X10176666Y-10306785D01*
X10343333Y-10306785D01*
X10410000Y-10335357D01*
X10443333Y-10363928D01*
X10476666Y-10421071D01*
X10476666Y-10592500D01*
X10443333Y-10649642D01*
X10410000Y-10678214D01*
X9776666Y-9935357D02*
X9776666Y-9878214D01*
X9810000Y-9821071D01*
X9843333Y-9792500D01*
X9910000Y-9763928D01*
X10043333Y-9735357D01*
X10210000Y-9735357D01*
X10343333Y-9763928D01*
X10410000Y-9792500D01*
X10443333Y-9821071D01*
X10476666Y-9878214D01*
X10476666Y-9935357D01*
X10443333Y-9992500D01*
X10410000Y-10021071D01*
X10343333Y-10049642D01*
X10210000Y-10078214D01*
X10043333Y-10078214D01*
X9910000Y-10049642D01*
X9843333Y-10021071D01*
X9810000Y-9992500D01*
X9776666Y-9935357D01*
G04 #@! TO.C,R31*
X44512666Y-48645714D02*
X44179333Y-48845714D01*
X44512666Y-48988571D02*
X43812666Y-48988571D01*
X43812666Y-48760000D01*
X43846000Y-48702857D01*
X43879333Y-48674285D01*
X43946000Y-48645714D01*
X44046000Y-48645714D01*
X44112666Y-48674285D01*
X44146000Y-48702857D01*
X44179333Y-48760000D01*
X44179333Y-48988571D01*
X43812666Y-48445714D02*
X43812666Y-48074285D01*
X44079333Y-48274285D01*
X44079333Y-48188571D01*
X44112666Y-48131428D01*
X44146000Y-48102857D01*
X44212666Y-48074285D01*
X44379333Y-48074285D01*
X44446000Y-48102857D01*
X44479333Y-48131428D01*
X44512666Y-48188571D01*
X44512666Y-48360000D01*
X44479333Y-48417142D01*
X44446000Y-48445714D01*
X44512666Y-47502857D02*
X44512666Y-47845714D01*
X44512666Y-47674285D02*
X43812666Y-47674285D01*
X43912666Y-47731428D01*
X43979333Y-47788571D01*
X44012666Y-47845714D01*
G04 #@! TO.C,Rc1*
X20597857Y-12635666D02*
X20397857Y-12302333D01*
X20255000Y-12635666D02*
X20255000Y-11935666D01*
X20483571Y-11935666D01*
X20540714Y-11969000D01*
X20569285Y-12002333D01*
X20597857Y-12069000D01*
X20597857Y-12169000D01*
X20569285Y-12235666D01*
X20540714Y-12269000D01*
X20483571Y-12302333D01*
X20255000Y-12302333D01*
X21112142Y-12602333D02*
X21055000Y-12635666D01*
X20940714Y-12635666D01*
X20883571Y-12602333D01*
X20855000Y-12569000D01*
X20826428Y-12502333D01*
X20826428Y-12302333D01*
X20855000Y-12235666D01*
X20883571Y-12202333D01*
X20940714Y-12169000D01*
X21055000Y-12169000D01*
X21112142Y-12202333D01*
X21683571Y-12635666D02*
X21340714Y-12635666D01*
X21512142Y-12635666D02*
X21512142Y-11935666D01*
X21455000Y-12035666D01*
X21397857Y-12102333D01*
X21340714Y-12135666D01*
G04 #@! TO.C,Rccref1*
X15220904Y-24449595D02*
X14839952Y-24716261D01*
X15220904Y-24906738D02*
X14420904Y-24906738D01*
X14420904Y-24601976D01*
X14459000Y-24525785D01*
X14497095Y-24487690D01*
X14573285Y-24449595D01*
X14687571Y-24449595D01*
X14763761Y-24487690D01*
X14801857Y-24525785D01*
X14839952Y-24601976D01*
X14839952Y-24906738D01*
X15182809Y-23763880D02*
X15220904Y-23840071D01*
X15220904Y-23992452D01*
X15182809Y-24068642D01*
X15144714Y-24106738D01*
X15068523Y-24144833D01*
X14839952Y-24144833D01*
X14763761Y-24106738D01*
X14725666Y-24068642D01*
X14687571Y-23992452D01*
X14687571Y-23840071D01*
X14725666Y-23763880D01*
X15182809Y-23078166D02*
X15220904Y-23154357D01*
X15220904Y-23306738D01*
X15182809Y-23382928D01*
X15144714Y-23421023D01*
X15068523Y-23459119D01*
X14839952Y-23459119D01*
X14763761Y-23421023D01*
X14725666Y-23382928D01*
X14687571Y-23306738D01*
X14687571Y-23154357D01*
X14725666Y-23078166D01*
X15220904Y-22735309D02*
X14687571Y-22735309D01*
X14839952Y-22735309D02*
X14763761Y-22697214D01*
X14725666Y-22659119D01*
X14687571Y-22582928D01*
X14687571Y-22506738D01*
X15182809Y-21935309D02*
X15220904Y-22011500D01*
X15220904Y-22163880D01*
X15182809Y-22240071D01*
X15106619Y-22278166D01*
X14801857Y-22278166D01*
X14725666Y-22240071D01*
X14687571Y-22163880D01*
X14687571Y-22011500D01*
X14725666Y-21935309D01*
X14801857Y-21897214D01*
X14878047Y-21897214D01*
X14954238Y-22278166D01*
X14687571Y-21668642D02*
X14687571Y-21363880D01*
X15220904Y-21554357D02*
X14535190Y-21554357D01*
X14459000Y-21516261D01*
X14420904Y-21440071D01*
X14420904Y-21363880D01*
X15220904Y-20678166D02*
X15220904Y-21135309D01*
X15220904Y-20906738D02*
X14420904Y-20906738D01*
X14535190Y-20982928D01*
X14611380Y-21059119D01*
X14649476Y-21135309D01*
G04 #@! TO.C,Rntcbias1*
X10476666Y-16206571D02*
X10143333Y-16406571D01*
X10476666Y-16549428D02*
X9776666Y-16549428D01*
X9776666Y-16320857D01*
X9810000Y-16263714D01*
X9843333Y-16235142D01*
X9910000Y-16206571D01*
X10010000Y-16206571D01*
X10076666Y-16235142D01*
X10110000Y-16263714D01*
X10143333Y-16320857D01*
X10143333Y-16549428D01*
X10010000Y-15949428D02*
X10476666Y-15949428D01*
X10076666Y-15949428D02*
X10043333Y-15920857D01*
X10010000Y-15863714D01*
X10010000Y-15778000D01*
X10043333Y-15720857D01*
X10110000Y-15692285D01*
X10476666Y-15692285D01*
X10010000Y-15492285D02*
X10010000Y-15263714D01*
X9776666Y-15406571D02*
X10376666Y-15406571D01*
X10443333Y-15378000D01*
X10476666Y-15320857D01*
X10476666Y-15263714D01*
X10443333Y-14806571D02*
X10476666Y-14863714D01*
X10476666Y-14978000D01*
X10443333Y-15035142D01*
X10410000Y-15063714D01*
X10343333Y-15092285D01*
X10143333Y-15092285D01*
X10076666Y-15063714D01*
X10043333Y-15035142D01*
X10010000Y-14978000D01*
X10010000Y-14863714D01*
X10043333Y-14806571D01*
X10476666Y-14549428D02*
X9776666Y-14549428D01*
X10043333Y-14549428D02*
X10010000Y-14492285D01*
X10010000Y-14378000D01*
X10043333Y-14320857D01*
X10076666Y-14292285D01*
X10143333Y-14263714D01*
X10343333Y-14263714D01*
X10410000Y-14292285D01*
X10443333Y-14320857D01*
X10476666Y-14378000D01*
X10476666Y-14492285D01*
X10443333Y-14549428D01*
X10476666Y-14006571D02*
X10010000Y-14006571D01*
X9776666Y-14006571D02*
X9810000Y-14035142D01*
X9843333Y-14006571D01*
X9810000Y-13978000D01*
X9776666Y-14006571D01*
X9843333Y-14006571D01*
X10476666Y-13463714D02*
X10110000Y-13463714D01*
X10043333Y-13492285D01*
X10010000Y-13549428D01*
X10010000Y-13663714D01*
X10043333Y-13720857D01*
X10443333Y-13463714D02*
X10476666Y-13520857D01*
X10476666Y-13663714D01*
X10443333Y-13720857D01*
X10376666Y-13749428D01*
X10310000Y-13749428D01*
X10243333Y-13720857D01*
X10210000Y-13663714D01*
X10210000Y-13520857D01*
X10176666Y-13463714D01*
X10443333Y-13206571D02*
X10476666Y-13149428D01*
X10476666Y-13035142D01*
X10443333Y-12978000D01*
X10376666Y-12949428D01*
X10343333Y-12949428D01*
X10276666Y-12978000D01*
X10243333Y-13035142D01*
X10243333Y-13120857D01*
X10210000Y-13178000D01*
X10143333Y-13206571D01*
X10110000Y-13206571D01*
X10043333Y-13178000D01*
X10010000Y-13120857D01*
X10010000Y-13035142D01*
X10043333Y-12978000D01*
X10476666Y-12378000D02*
X10476666Y-12720857D01*
X10476666Y-12549428D02*
X9776666Y-12549428D01*
X9876666Y-12606571D01*
X9943333Y-12663714D01*
X9976666Y-12720857D01*
G04 #@! TO.C,Rt1*
X16111571Y-16191666D02*
X15911571Y-15858333D01*
X15768714Y-16191666D02*
X15768714Y-15491666D01*
X15997285Y-15491666D01*
X16054428Y-15525000D01*
X16083000Y-15558333D01*
X16111571Y-15625000D01*
X16111571Y-15725000D01*
X16083000Y-15791666D01*
X16054428Y-15825000D01*
X15997285Y-15858333D01*
X15768714Y-15858333D01*
X16283000Y-15725000D02*
X16511571Y-15725000D01*
X16368714Y-15491666D02*
X16368714Y-16091666D01*
X16397285Y-16158333D01*
X16454428Y-16191666D01*
X16511571Y-16191666D01*
X17025857Y-16191666D02*
X16683000Y-16191666D01*
X16854428Y-16191666D02*
X16854428Y-15491666D01*
X16797285Y-15591666D01*
X16740142Y-15658333D01*
X16683000Y-15691666D01*
G04 #@! TO.C,U2*
X30403857Y-4444166D02*
X30403857Y-5010833D01*
X30432428Y-5077500D01*
X30461000Y-5110833D01*
X30518142Y-5144166D01*
X30632428Y-5144166D01*
X30689571Y-5110833D01*
X30718142Y-5077500D01*
X30746714Y-5010833D01*
X30746714Y-4444166D01*
X31003857Y-4510833D02*
X31032428Y-4477500D01*
X31089571Y-4444166D01*
X31232428Y-4444166D01*
X31289571Y-4477500D01*
X31318142Y-4510833D01*
X31346714Y-4577500D01*
X31346714Y-4644166D01*
X31318142Y-4744166D01*
X30975285Y-5144166D01*
X31346714Y-5144166D01*
G04 #@! TO.C,RSNSB1*
X6620142Y-55316380D02*
X6286809Y-54840190D01*
X6048714Y-55316380D02*
X6048714Y-54316380D01*
X6429666Y-54316380D01*
X6524904Y-54364000D01*
X6572523Y-54411619D01*
X6620142Y-54506857D01*
X6620142Y-54649714D01*
X6572523Y-54744952D01*
X6524904Y-54792571D01*
X6429666Y-54840190D01*
X6048714Y-54840190D01*
X7001095Y-55268761D02*
X7143952Y-55316380D01*
X7382047Y-55316380D01*
X7477285Y-55268761D01*
X7524904Y-55221142D01*
X7572523Y-55125904D01*
X7572523Y-55030666D01*
X7524904Y-54935428D01*
X7477285Y-54887809D01*
X7382047Y-54840190D01*
X7191571Y-54792571D01*
X7096333Y-54744952D01*
X7048714Y-54697333D01*
X7001095Y-54602095D01*
X7001095Y-54506857D01*
X7048714Y-54411619D01*
X7096333Y-54364000D01*
X7191571Y-54316380D01*
X7429666Y-54316380D01*
X7572523Y-54364000D01*
X8001095Y-55316380D02*
X8001095Y-54316380D01*
X8572523Y-55316380D01*
X8572523Y-54316380D01*
X9001095Y-55268761D02*
X9143952Y-55316380D01*
X9382047Y-55316380D01*
X9477285Y-55268761D01*
X9524904Y-55221142D01*
X9572523Y-55125904D01*
X9572523Y-55030666D01*
X9524904Y-54935428D01*
X9477285Y-54887809D01*
X9382047Y-54840190D01*
X9191571Y-54792571D01*
X9096333Y-54744952D01*
X9048714Y-54697333D01*
X9001095Y-54602095D01*
X9001095Y-54506857D01*
X9048714Y-54411619D01*
X9096333Y-54364000D01*
X9191571Y-54316380D01*
X9429666Y-54316380D01*
X9572523Y-54364000D01*
X10334428Y-54792571D02*
X10477285Y-54840190D01*
X10524904Y-54887809D01*
X10572523Y-54983047D01*
X10572523Y-55125904D01*
X10524904Y-55221142D01*
X10477285Y-55268761D01*
X10382047Y-55316380D01*
X10001095Y-55316380D01*
X10001095Y-54316380D01*
X10334428Y-54316380D01*
X10429666Y-54364000D01*
X10477285Y-54411619D01*
X10524904Y-54506857D01*
X10524904Y-54602095D01*
X10477285Y-54697333D01*
X10429666Y-54744952D01*
X10334428Y-54792571D01*
X10001095Y-54792571D01*
X11524904Y-55316380D02*
X10953476Y-55316380D01*
X11239190Y-55316380D02*
X11239190Y-54316380D01*
X11143952Y-54459238D01*
X11048714Y-54554476D01*
X10953476Y-54602095D01*
G04 #@! TO.C,RSNSI1*
X36567380Y-31919452D02*
X36091190Y-32252785D01*
X36567380Y-32490880D02*
X35567380Y-32490880D01*
X35567380Y-32109928D01*
X35615000Y-32014690D01*
X35662619Y-31967071D01*
X35757857Y-31919452D01*
X35900714Y-31919452D01*
X35995952Y-31967071D01*
X36043571Y-32014690D01*
X36091190Y-32109928D01*
X36091190Y-32490880D01*
X36519761Y-31538500D02*
X36567380Y-31395642D01*
X36567380Y-31157547D01*
X36519761Y-31062309D01*
X36472142Y-31014690D01*
X36376904Y-30967071D01*
X36281666Y-30967071D01*
X36186428Y-31014690D01*
X36138809Y-31062309D01*
X36091190Y-31157547D01*
X36043571Y-31348023D01*
X35995952Y-31443261D01*
X35948333Y-31490880D01*
X35853095Y-31538500D01*
X35757857Y-31538500D01*
X35662619Y-31490880D01*
X35615000Y-31443261D01*
X35567380Y-31348023D01*
X35567380Y-31109928D01*
X35615000Y-30967071D01*
X36567380Y-30538500D02*
X35567380Y-30538500D01*
X36567380Y-29967071D01*
X35567380Y-29967071D01*
X36519761Y-29538500D02*
X36567380Y-29395642D01*
X36567380Y-29157547D01*
X36519761Y-29062309D01*
X36472142Y-29014690D01*
X36376904Y-28967071D01*
X36281666Y-28967071D01*
X36186428Y-29014690D01*
X36138809Y-29062309D01*
X36091190Y-29157547D01*
X36043571Y-29348023D01*
X35995952Y-29443261D01*
X35948333Y-29490880D01*
X35853095Y-29538500D01*
X35757857Y-29538500D01*
X35662619Y-29490880D01*
X35615000Y-29443261D01*
X35567380Y-29348023D01*
X35567380Y-29109928D01*
X35615000Y-28967071D01*
X36567380Y-28538500D02*
X35567380Y-28538500D01*
X36567380Y-27538500D02*
X36567380Y-28109928D01*
X36567380Y-27824214D02*
X35567380Y-27824214D01*
X35710238Y-27919452D01*
X35805476Y-28014690D01*
X35853095Y-28109928D01*
G04 #@! TO.C,C18*
X27046285Y-38096000D02*
X27017714Y-38129333D01*
X26932000Y-38162666D01*
X26874857Y-38162666D01*
X26789142Y-38129333D01*
X26732000Y-38062666D01*
X26703428Y-37996000D01*
X26674857Y-37862666D01*
X26674857Y-37762666D01*
X26703428Y-37629333D01*
X26732000Y-37562666D01*
X26789142Y-37496000D01*
X26874857Y-37462666D01*
X26932000Y-37462666D01*
X27017714Y-37496000D01*
X27046285Y-37529333D01*
X27617714Y-38162666D02*
X27274857Y-38162666D01*
X27446285Y-38162666D02*
X27446285Y-37462666D01*
X27389142Y-37562666D01*
X27332000Y-37629333D01*
X27274857Y-37662666D01*
X27960571Y-37762666D02*
X27903428Y-37729333D01*
X27874857Y-37696000D01*
X27846285Y-37629333D01*
X27846285Y-37596000D01*
X27874857Y-37529333D01*
X27903428Y-37496000D01*
X27960571Y-37462666D01*
X28074857Y-37462666D01*
X28132000Y-37496000D01*
X28160571Y-37529333D01*
X28189142Y-37596000D01*
X28189142Y-37629333D01*
X28160571Y-37696000D01*
X28132000Y-37729333D01*
X28074857Y-37762666D01*
X27960571Y-37762666D01*
X27903428Y-37796000D01*
X27874857Y-37829333D01*
X27846285Y-37896000D01*
X27846285Y-38029333D01*
X27874857Y-38096000D01*
X27903428Y-38129333D01*
X27960571Y-38162666D01*
X28074857Y-38162666D01*
X28132000Y-38129333D01*
X28160571Y-38096000D01*
X28189142Y-38029333D01*
X28189142Y-37896000D01*
X28160571Y-37829333D01*
X28132000Y-37796000D01*
X28074857Y-37762666D01*
G04 #@! TO.C,C19*
X29332285Y-38096000D02*
X29303714Y-38129333D01*
X29218000Y-38162666D01*
X29160857Y-38162666D01*
X29075142Y-38129333D01*
X29018000Y-38062666D01*
X28989428Y-37996000D01*
X28960857Y-37862666D01*
X28960857Y-37762666D01*
X28989428Y-37629333D01*
X29018000Y-37562666D01*
X29075142Y-37496000D01*
X29160857Y-37462666D01*
X29218000Y-37462666D01*
X29303714Y-37496000D01*
X29332285Y-37529333D01*
X29903714Y-38162666D02*
X29560857Y-38162666D01*
X29732285Y-38162666D02*
X29732285Y-37462666D01*
X29675142Y-37562666D01*
X29618000Y-37629333D01*
X29560857Y-37662666D01*
X30189428Y-38162666D02*
X30303714Y-38162666D01*
X30360857Y-38129333D01*
X30389428Y-38096000D01*
X30446571Y-37996000D01*
X30475142Y-37862666D01*
X30475142Y-37596000D01*
X30446571Y-37529333D01*
X30418000Y-37496000D01*
X30360857Y-37462666D01*
X30246571Y-37462666D01*
X30189428Y-37496000D01*
X30160857Y-37529333D01*
X30132285Y-37596000D01*
X30132285Y-37762666D01*
X30160857Y-37829333D01*
X30189428Y-37862666D01*
X30246571Y-37896000D01*
X30360857Y-37896000D01*
X30418000Y-37862666D01*
X30446571Y-37829333D01*
X30475142Y-37762666D01*
G04 #@! TO.C,C20*
X31872285Y-38099000D02*
X31843714Y-38132333D01*
X31758000Y-38165666D01*
X31700857Y-38165666D01*
X31615142Y-38132333D01*
X31558000Y-38065666D01*
X31529428Y-37999000D01*
X31500857Y-37865666D01*
X31500857Y-37765666D01*
X31529428Y-37632333D01*
X31558000Y-37565666D01*
X31615142Y-37499000D01*
X31700857Y-37465666D01*
X31758000Y-37465666D01*
X31843714Y-37499000D01*
X31872285Y-37532333D01*
X32100857Y-37532333D02*
X32129428Y-37499000D01*
X32186571Y-37465666D01*
X32329428Y-37465666D01*
X32386571Y-37499000D01*
X32415142Y-37532333D01*
X32443714Y-37599000D01*
X32443714Y-37665666D01*
X32415142Y-37765666D01*
X32072285Y-38165666D01*
X32443714Y-38165666D01*
X32815142Y-37465666D02*
X32872285Y-37465666D01*
X32929428Y-37499000D01*
X32958000Y-37532333D01*
X32986571Y-37599000D01*
X33015142Y-37732333D01*
X33015142Y-37899000D01*
X32986571Y-38032333D01*
X32958000Y-38099000D01*
X32929428Y-38132333D01*
X32872285Y-38165666D01*
X32815142Y-38165666D01*
X32758000Y-38132333D01*
X32729428Y-38099000D01*
X32700857Y-38032333D01*
X32672285Y-37899000D01*
X32672285Y-37732333D01*
X32700857Y-37599000D01*
X32729428Y-37532333D01*
X32758000Y-37499000D01*
X32815142Y-37465666D01*
G04 #@! TO.C,C21*
X40890000Y-47756714D02*
X40923333Y-47785285D01*
X40956666Y-47871000D01*
X40956666Y-47928142D01*
X40923333Y-48013857D01*
X40856666Y-48071000D01*
X40790000Y-48099571D01*
X40656666Y-48128142D01*
X40556666Y-48128142D01*
X40423333Y-48099571D01*
X40356666Y-48071000D01*
X40290000Y-48013857D01*
X40256666Y-47928142D01*
X40256666Y-47871000D01*
X40290000Y-47785285D01*
X40323333Y-47756714D01*
X40323333Y-47528142D02*
X40290000Y-47499571D01*
X40256666Y-47442428D01*
X40256666Y-47299571D01*
X40290000Y-47242428D01*
X40323333Y-47213857D01*
X40390000Y-47185285D01*
X40456666Y-47185285D01*
X40556666Y-47213857D01*
X40956666Y-47556714D01*
X40956666Y-47185285D01*
X40956666Y-46613857D02*
X40956666Y-46956714D01*
X40956666Y-46785285D02*
X40256666Y-46785285D01*
X40356666Y-46842428D01*
X40423333Y-46899571D01*
X40456666Y-46956714D01*
G04 #@! TO.C,C22*
X40890000Y-50042714D02*
X40923333Y-50071285D01*
X40956666Y-50157000D01*
X40956666Y-50214142D01*
X40923333Y-50299857D01*
X40856666Y-50357000D01*
X40790000Y-50385571D01*
X40656666Y-50414142D01*
X40556666Y-50414142D01*
X40423333Y-50385571D01*
X40356666Y-50357000D01*
X40290000Y-50299857D01*
X40256666Y-50214142D01*
X40256666Y-50157000D01*
X40290000Y-50071285D01*
X40323333Y-50042714D01*
X40323333Y-49814142D02*
X40290000Y-49785571D01*
X40256666Y-49728428D01*
X40256666Y-49585571D01*
X40290000Y-49528428D01*
X40323333Y-49499857D01*
X40390000Y-49471285D01*
X40456666Y-49471285D01*
X40556666Y-49499857D01*
X40956666Y-49842714D01*
X40956666Y-49471285D01*
X40323333Y-49242714D02*
X40290000Y-49214142D01*
X40256666Y-49157000D01*
X40256666Y-49014142D01*
X40290000Y-48957000D01*
X40323333Y-48928428D01*
X40390000Y-48899857D01*
X40456666Y-48899857D01*
X40556666Y-48928428D01*
X40956666Y-49271285D01*
X40956666Y-48899857D01*
G04 #@! TO.C,C23*
X40890000Y-52455714D02*
X40923333Y-52484285D01*
X40956666Y-52570000D01*
X40956666Y-52627142D01*
X40923333Y-52712857D01*
X40856666Y-52770000D01*
X40790000Y-52798571D01*
X40656666Y-52827142D01*
X40556666Y-52827142D01*
X40423333Y-52798571D01*
X40356666Y-52770000D01*
X40290000Y-52712857D01*
X40256666Y-52627142D01*
X40256666Y-52570000D01*
X40290000Y-52484285D01*
X40323333Y-52455714D01*
X40323333Y-52227142D02*
X40290000Y-52198571D01*
X40256666Y-52141428D01*
X40256666Y-51998571D01*
X40290000Y-51941428D01*
X40323333Y-51912857D01*
X40390000Y-51884285D01*
X40456666Y-51884285D01*
X40556666Y-51912857D01*
X40956666Y-52255714D01*
X40956666Y-51884285D01*
X40256666Y-51684285D02*
X40256666Y-51312857D01*
X40523333Y-51512857D01*
X40523333Y-51427142D01*
X40556666Y-51370000D01*
X40590000Y-51341428D01*
X40656666Y-51312857D01*
X40823333Y-51312857D01*
X40890000Y-51341428D01*
X40923333Y-51370000D01*
X40956666Y-51427142D01*
X40956666Y-51598571D01*
X40923333Y-51655714D01*
X40890000Y-51684285D01*
G04 #@! TO.C,C24*
X40890000Y-54614714D02*
X40923333Y-54643285D01*
X40956666Y-54729000D01*
X40956666Y-54786142D01*
X40923333Y-54871857D01*
X40856666Y-54929000D01*
X40790000Y-54957571D01*
X40656666Y-54986142D01*
X40556666Y-54986142D01*
X40423333Y-54957571D01*
X40356666Y-54929000D01*
X40290000Y-54871857D01*
X40256666Y-54786142D01*
X40256666Y-54729000D01*
X40290000Y-54643285D01*
X40323333Y-54614714D01*
X40323333Y-54386142D02*
X40290000Y-54357571D01*
X40256666Y-54300428D01*
X40256666Y-54157571D01*
X40290000Y-54100428D01*
X40323333Y-54071857D01*
X40390000Y-54043285D01*
X40456666Y-54043285D01*
X40556666Y-54071857D01*
X40956666Y-54414714D01*
X40956666Y-54043285D01*
X40490000Y-53529000D02*
X40956666Y-53529000D01*
X40223333Y-53671857D02*
X40723333Y-53814714D01*
X40723333Y-53443285D01*
G04 #@! TO.C,C25*
X40890000Y-56900714D02*
X40923333Y-56929285D01*
X40956666Y-57015000D01*
X40956666Y-57072142D01*
X40923333Y-57157857D01*
X40856666Y-57215000D01*
X40790000Y-57243571D01*
X40656666Y-57272142D01*
X40556666Y-57272142D01*
X40423333Y-57243571D01*
X40356666Y-57215000D01*
X40290000Y-57157857D01*
X40256666Y-57072142D01*
X40256666Y-57015000D01*
X40290000Y-56929285D01*
X40323333Y-56900714D01*
X40323333Y-56672142D02*
X40290000Y-56643571D01*
X40256666Y-56586428D01*
X40256666Y-56443571D01*
X40290000Y-56386428D01*
X40323333Y-56357857D01*
X40390000Y-56329285D01*
X40456666Y-56329285D01*
X40556666Y-56357857D01*
X40956666Y-56700714D01*
X40956666Y-56329285D01*
X40256666Y-55786428D02*
X40256666Y-56072142D01*
X40590000Y-56100714D01*
X40556666Y-56072142D01*
X40523333Y-56015000D01*
X40523333Y-55872142D01*
X40556666Y-55815000D01*
X40590000Y-55786428D01*
X40656666Y-55757857D01*
X40823333Y-55757857D01*
X40890000Y-55786428D01*
X40923333Y-55815000D01*
X40956666Y-55872142D01*
X40956666Y-56015000D01*
X40923333Y-56072142D01*
X40890000Y-56100714D01*
G04 #@! TO.C,C2*
X35333000Y-18030000D02*
X35304428Y-18063333D01*
X35218714Y-18096666D01*
X35161571Y-18096666D01*
X35075857Y-18063333D01*
X35018714Y-17996666D01*
X34990142Y-17930000D01*
X34961571Y-17796666D01*
X34961571Y-17696666D01*
X34990142Y-17563333D01*
X35018714Y-17496666D01*
X35075857Y-17430000D01*
X35161571Y-17396666D01*
X35218714Y-17396666D01*
X35304428Y-17430000D01*
X35333000Y-17463333D01*
X35561571Y-17463333D02*
X35590142Y-17430000D01*
X35647285Y-17396666D01*
X35790142Y-17396666D01*
X35847285Y-17430000D01*
X35875857Y-17463333D01*
X35904428Y-17530000D01*
X35904428Y-17596666D01*
X35875857Y-17696666D01*
X35533000Y-18096666D01*
X35904428Y-18096666D01*
G04 #@! TO.C,C3*
X37746000Y-18030000D02*
X37717428Y-18063333D01*
X37631714Y-18096666D01*
X37574571Y-18096666D01*
X37488857Y-18063333D01*
X37431714Y-17996666D01*
X37403142Y-17930000D01*
X37374571Y-17796666D01*
X37374571Y-17696666D01*
X37403142Y-17563333D01*
X37431714Y-17496666D01*
X37488857Y-17430000D01*
X37574571Y-17396666D01*
X37631714Y-17396666D01*
X37717428Y-17430000D01*
X37746000Y-17463333D01*
X37946000Y-17396666D02*
X38317428Y-17396666D01*
X38117428Y-17663333D01*
X38203142Y-17663333D01*
X38260285Y-17696666D01*
X38288857Y-17730000D01*
X38317428Y-17796666D01*
X38317428Y-17963333D01*
X38288857Y-18030000D01*
X38260285Y-18063333D01*
X38203142Y-18096666D01*
X38031714Y-18096666D01*
X37974571Y-18063333D01*
X37946000Y-18030000D01*
G04 #@! TO.C,C4*
X40286000Y-18027000D02*
X40257428Y-18060333D01*
X40171714Y-18093666D01*
X40114571Y-18093666D01*
X40028857Y-18060333D01*
X39971714Y-17993666D01*
X39943142Y-17927000D01*
X39914571Y-17793666D01*
X39914571Y-17693666D01*
X39943142Y-17560333D01*
X39971714Y-17493666D01*
X40028857Y-17427000D01*
X40114571Y-17393666D01*
X40171714Y-17393666D01*
X40257428Y-17427000D01*
X40286000Y-17460333D01*
X40800285Y-17627000D02*
X40800285Y-18093666D01*
X40657428Y-17360333D02*
X40514571Y-17860333D01*
X40886000Y-17860333D01*
G04 #@! TO.C,C5*
X42572000Y-18027000D02*
X42543428Y-18060333D01*
X42457714Y-18093666D01*
X42400571Y-18093666D01*
X42314857Y-18060333D01*
X42257714Y-17993666D01*
X42229142Y-17927000D01*
X42200571Y-17793666D01*
X42200571Y-17693666D01*
X42229142Y-17560333D01*
X42257714Y-17493666D01*
X42314857Y-17427000D01*
X42400571Y-17393666D01*
X42457714Y-17393666D01*
X42543428Y-17427000D01*
X42572000Y-17460333D01*
X43114857Y-17393666D02*
X42829142Y-17393666D01*
X42800571Y-17727000D01*
X42829142Y-17693666D01*
X42886285Y-17660333D01*
X43029142Y-17660333D01*
X43086285Y-17693666D01*
X43114857Y-17727000D01*
X43143428Y-17793666D01*
X43143428Y-17960333D01*
X43114857Y-18027000D01*
X43086285Y-18060333D01*
X43029142Y-18093666D01*
X42886285Y-18093666D01*
X42829142Y-18060333D01*
X42800571Y-18027000D01*
G04 #@! TO.C,J1*
X2500380Y-15827333D02*
X3214666Y-15827333D01*
X3357523Y-15874952D01*
X3452761Y-15970190D01*
X3500380Y-16113047D01*
X3500380Y-16208285D01*
X3500380Y-14827333D02*
X3500380Y-15398761D01*
X3500380Y-15113047D02*
X2500380Y-15113047D01*
X2643238Y-15208285D01*
X2738476Y-15303523D01*
X2786095Y-15398761D01*
G04 #@! TO.C,X1*
X30694380Y-75739523D02*
X31694380Y-75072857D01*
X30694380Y-75072857D02*
X31694380Y-75739523D01*
X31694380Y-74168095D02*
X31694380Y-74739523D01*
X31694380Y-74453809D02*
X30694380Y-74453809D01*
X30837238Y-74549047D01*
X30932476Y-74644285D01*
X30980095Y-74739523D01*
X33761904Y-58547619D02*
X33809523Y-58500000D01*
X33904761Y-58452380D01*
X34142857Y-58452380D01*
X34238095Y-58500000D01*
X34285714Y-58547619D01*
X34333333Y-58642857D01*
X34333333Y-58738095D01*
X34285714Y-58880952D01*
X33714285Y-59452380D01*
X34333333Y-59452380D01*
X35190476Y-58452380D02*
X34999999Y-58452380D01*
X34904761Y-58500000D01*
X34857142Y-58547619D01*
X34761904Y-58690476D01*
X34714285Y-58880952D01*
X34714285Y-59261904D01*
X34761904Y-59357142D01*
X34809523Y-59404761D01*
X34904761Y-59452380D01*
X35095238Y-59452380D01*
X35190476Y-59404761D01*
X35238095Y-59357142D01*
X35285714Y-59261904D01*
X35285714Y-59023809D01*
X35238095Y-58928571D01*
X35190476Y-58880952D01*
X35095238Y-58833333D01*
X34904761Y-58833333D01*
X34809523Y-58880952D01*
X34761904Y-58928571D01*
X34714285Y-59023809D01*
X35904761Y-58452380D02*
X35999999Y-58452380D01*
X36095238Y-58500000D01*
X36142857Y-58547619D01*
X36190476Y-58642857D01*
X36238095Y-58833333D01*
X36238095Y-59071428D01*
X36190476Y-59261904D01*
X36142857Y-59357142D01*
X36095238Y-59404761D01*
X35999999Y-59452380D01*
X35904761Y-59452380D01*
X35809523Y-59404761D01*
X35761904Y-59357142D01*
X35714285Y-59261904D01*
X35666666Y-59071428D01*
X35666666Y-58833333D01*
X35714285Y-58642857D01*
X35761904Y-58547619D01*
X35809523Y-58500000D01*
X35904761Y-58452380D01*
X37095238Y-58785714D02*
X37095238Y-59452380D01*
X36857142Y-58404761D02*
X36619047Y-59119047D01*
X37238095Y-59119047D01*
X37619047Y-59071428D02*
X38380952Y-59071428D01*
X39380952Y-59452380D02*
X38809523Y-59452380D01*
X39095238Y-59452380D02*
X39095238Y-58452380D01*
X38999999Y-58595238D01*
X38904761Y-58690476D01*
X38809523Y-58738095D01*
X40333333Y-59452380D02*
X39761904Y-59452380D01*
X40047619Y-59452380D02*
X40047619Y-58452380D01*
X39952380Y-58595238D01*
X39857142Y-58690476D01*
X39761904Y-58738095D01*
X40952380Y-58452380D02*
X41047619Y-58452380D01*
X41142857Y-58500000D01*
X41190476Y-58547619D01*
X41238095Y-58642857D01*
X41285714Y-58833333D01*
X41285714Y-59071428D01*
X41238095Y-59261904D01*
X41190476Y-59357142D01*
X41142857Y-59404761D01*
X41047619Y-59452380D01*
X40952380Y-59452380D01*
X40857142Y-59404761D01*
X40809523Y-59357142D01*
X40761904Y-59261904D01*
X40714285Y-59071428D01*
X40714285Y-58833333D01*
X40761904Y-58642857D01*
X40809523Y-58547619D01*
X40857142Y-58500000D01*
X40952380Y-58452380D01*
X41666666Y-58547619D02*
X41714285Y-58500000D01*
X41809523Y-58452380D01*
X42047619Y-58452380D01*
X42142857Y-58500000D01*
X42190476Y-58547619D01*
X42238095Y-58642857D01*
X42238095Y-58738095D01*
X42190476Y-58880952D01*
X41619047Y-59452380D01*
X42238095Y-59452380D01*
G04 #@! TO.C,X2*
X15708380Y-75739523D02*
X16708380Y-75072857D01*
X15708380Y-75072857D02*
X16708380Y-75739523D01*
X15803619Y-74739523D02*
X15756000Y-74691904D01*
X15708380Y-74596666D01*
X15708380Y-74358571D01*
X15756000Y-74263333D01*
X15803619Y-74215714D01*
X15898857Y-74168095D01*
X15994095Y-74168095D01*
X16136952Y-74215714D01*
X16708380Y-74787142D01*
X16708380Y-74168095D01*
X18761904Y-58547619D02*
X18809523Y-58500000D01*
X18904761Y-58452380D01*
X19142857Y-58452380D01*
X19238095Y-58500000D01*
X19285714Y-58547619D01*
X19333333Y-58642857D01*
X19333333Y-58738095D01*
X19285714Y-58880952D01*
X18714285Y-59452380D01*
X19333333Y-59452380D01*
X20190476Y-58452380D02*
X20000000Y-58452380D01*
X19904761Y-58500000D01*
X19857142Y-58547619D01*
X19761904Y-58690476D01*
X19714285Y-58880952D01*
X19714285Y-59261904D01*
X19761904Y-59357142D01*
X19809523Y-59404761D01*
X19904761Y-59452380D01*
X20095238Y-59452380D01*
X20190476Y-59404761D01*
X20238095Y-59357142D01*
X20285714Y-59261904D01*
X20285714Y-59023809D01*
X20238095Y-58928571D01*
X20190476Y-58880952D01*
X20095238Y-58833333D01*
X19904761Y-58833333D01*
X19809523Y-58880952D01*
X19761904Y-58928571D01*
X19714285Y-59023809D01*
X20904761Y-58452380D02*
X21000000Y-58452380D01*
X21095238Y-58500000D01*
X21142857Y-58547619D01*
X21190476Y-58642857D01*
X21238095Y-58833333D01*
X21238095Y-59071428D01*
X21190476Y-59261904D01*
X21142857Y-59357142D01*
X21095238Y-59404761D01*
X21000000Y-59452380D01*
X20904761Y-59452380D01*
X20809523Y-59404761D01*
X20761904Y-59357142D01*
X20714285Y-59261904D01*
X20666666Y-59071428D01*
X20666666Y-58833333D01*
X20714285Y-58642857D01*
X20761904Y-58547619D01*
X20809523Y-58500000D01*
X20904761Y-58452380D01*
X22095238Y-58785714D02*
X22095238Y-59452380D01*
X21857142Y-58404761D02*
X21619047Y-59119047D01*
X22238095Y-59119047D01*
X22619047Y-59071428D02*
X23380952Y-59071428D01*
X24380952Y-59452380D02*
X23809523Y-59452380D01*
X24095238Y-59452380D02*
X24095238Y-58452380D01*
X24000000Y-58595238D01*
X23904761Y-58690476D01*
X23809523Y-58738095D01*
X25333333Y-59452380D02*
X24761904Y-59452380D01*
X25047619Y-59452380D02*
X25047619Y-58452380D01*
X24952380Y-58595238D01*
X24857142Y-58690476D01*
X24761904Y-58738095D01*
X25952380Y-58452380D02*
X26047619Y-58452380D01*
X26142857Y-58500000D01*
X26190476Y-58547619D01*
X26238095Y-58642857D01*
X26285714Y-58833333D01*
X26285714Y-59071428D01*
X26238095Y-59261904D01*
X26190476Y-59357142D01*
X26142857Y-59404761D01*
X26047619Y-59452380D01*
X25952380Y-59452380D01*
X25857142Y-59404761D01*
X25809523Y-59357142D01*
X25761904Y-59261904D01*
X25714285Y-59071428D01*
X25714285Y-58833333D01*
X25761904Y-58642857D01*
X25809523Y-58547619D01*
X25857142Y-58500000D01*
X25952380Y-58452380D01*
X26666666Y-58547619D02*
X26714285Y-58500000D01*
X26809523Y-58452380D01*
X27047619Y-58452380D01*
X27142857Y-58500000D01*
X27190476Y-58547619D01*
X27238095Y-58642857D01*
X27238095Y-58738095D01*
X27190476Y-58880952D01*
X26619047Y-59452380D01*
X27238095Y-59452380D01*
G04 #@! TO.C,X3*
X722380Y-75739523D02*
X1722380Y-75072857D01*
X722380Y-75072857D02*
X1722380Y-75739523D01*
X722380Y-74787142D02*
X722380Y-74168095D01*
X1103333Y-74501428D01*
X1103333Y-74358571D01*
X1150952Y-74263333D01*
X1198571Y-74215714D01*
X1293809Y-74168095D01*
X1531904Y-74168095D01*
X1627142Y-74215714D01*
X1674761Y-74263333D01*
X1722380Y-74358571D01*
X1722380Y-74644285D01*
X1674761Y-74739523D01*
X1627142Y-74787142D01*
X3761904Y-58547619D02*
X3809523Y-58500000D01*
X3904761Y-58452380D01*
X4142857Y-58452380D01*
X4238095Y-58500000D01*
X4285714Y-58547619D01*
X4333333Y-58642857D01*
X4333333Y-58738095D01*
X4285714Y-58880952D01*
X3714285Y-59452380D01*
X4333333Y-59452380D01*
X5190476Y-58452380D02*
X4999999Y-58452380D01*
X4904761Y-58500000D01*
X4857142Y-58547619D01*
X4761904Y-58690476D01*
X4714285Y-58880952D01*
X4714285Y-59261904D01*
X4761904Y-59357142D01*
X4809523Y-59404761D01*
X4904761Y-59452380D01*
X5095238Y-59452380D01*
X5190476Y-59404761D01*
X5238095Y-59357142D01*
X5285714Y-59261904D01*
X5285714Y-59023809D01*
X5238095Y-58928571D01*
X5190476Y-58880952D01*
X5095238Y-58833333D01*
X4904761Y-58833333D01*
X4809523Y-58880952D01*
X4761904Y-58928571D01*
X4714285Y-59023809D01*
X5904761Y-58452380D02*
X5999999Y-58452380D01*
X6095238Y-58500000D01*
X6142857Y-58547619D01*
X6190476Y-58642857D01*
X6238095Y-58833333D01*
X6238095Y-59071428D01*
X6190476Y-59261904D01*
X6142857Y-59357142D01*
X6095238Y-59404761D01*
X5999999Y-59452380D01*
X5904761Y-59452380D01*
X5809523Y-59404761D01*
X5761904Y-59357142D01*
X5714285Y-59261904D01*
X5666666Y-59071428D01*
X5666666Y-58833333D01*
X5714285Y-58642857D01*
X5761904Y-58547619D01*
X5809523Y-58500000D01*
X5904761Y-58452380D01*
X7095238Y-58785714D02*
X7095238Y-59452380D01*
X6857142Y-58404761D02*
X6619047Y-59119047D01*
X7238095Y-59119047D01*
X7619047Y-59071428D02*
X8380952Y-59071428D01*
X9380952Y-59452380D02*
X8809523Y-59452380D01*
X9095238Y-59452380D02*
X9095238Y-58452380D01*
X9000000Y-58595238D01*
X8904761Y-58690476D01*
X8809523Y-58738095D01*
X10333333Y-59452380D02*
X9761904Y-59452380D01*
X10047619Y-59452380D02*
X10047619Y-58452380D01*
X9952380Y-58595238D01*
X9857142Y-58690476D01*
X9761904Y-58738095D01*
X10952380Y-58452380D02*
X11047619Y-58452380D01*
X11142857Y-58500000D01*
X11190476Y-58547619D01*
X11238095Y-58642857D01*
X11285714Y-58833333D01*
X11285714Y-59071428D01*
X11238095Y-59261904D01*
X11190476Y-59357142D01*
X11142857Y-59404761D01*
X11047619Y-59452380D01*
X10952380Y-59452380D01*
X10857142Y-59404761D01*
X10809523Y-59357142D01*
X10761904Y-59261904D01*
X10714285Y-59071428D01*
X10714285Y-58833333D01*
X10761904Y-58642857D01*
X10809523Y-58547619D01*
X10857142Y-58500000D01*
X10952380Y-58452380D01*
X11666666Y-58547619D02*
X11714285Y-58500000D01*
X11809523Y-58452380D01*
X12047619Y-58452380D01*
X12142857Y-58500000D01*
X12190476Y-58547619D01*
X12238095Y-58642857D01*
X12238095Y-58738095D01*
X12190476Y-58880952D01*
X11619047Y-59452380D01*
X12238095Y-59452380D01*
G04 #@! TO.C,J2*
X15287666Y-595380D02*
X15287666Y-1309666D01*
X15240047Y-1452523D01*
X15144809Y-1547761D01*
X15001952Y-1595380D01*
X14906714Y-1595380D01*
X15716238Y-690619D02*
X15763857Y-643000D01*
X15859095Y-595380D01*
X16097190Y-595380D01*
X16192428Y-643000D01*
X16240047Y-690619D01*
X16287666Y-785857D01*
X16287666Y-881095D01*
X16240047Y-1023952D01*
X15668619Y-1595380D01*
X16287666Y-1595380D01*
G04 #@! TO.C,C26*
X35679142Y-40743142D02*
X35631523Y-40790761D01*
X35488666Y-40838380D01*
X35393428Y-40838380D01*
X35250571Y-40790761D01*
X35155333Y-40695523D01*
X35107714Y-40600285D01*
X35060095Y-40409809D01*
X35060095Y-40266952D01*
X35107714Y-40076476D01*
X35155333Y-39981238D01*
X35250571Y-39886000D01*
X35393428Y-39838380D01*
X35488666Y-39838380D01*
X35631523Y-39886000D01*
X35679142Y-39933619D01*
X36060095Y-39933619D02*
X36107714Y-39886000D01*
X36202952Y-39838380D01*
X36441047Y-39838380D01*
X36536285Y-39886000D01*
X36583904Y-39933619D01*
X36631523Y-40028857D01*
X36631523Y-40124095D01*
X36583904Y-40266952D01*
X36012476Y-40838380D01*
X36631523Y-40838380D01*
X37488666Y-39838380D02*
X37298190Y-39838380D01*
X37202952Y-39886000D01*
X37155333Y-39933619D01*
X37060095Y-40076476D01*
X37012476Y-40266952D01*
X37012476Y-40647904D01*
X37060095Y-40743142D01*
X37107714Y-40790761D01*
X37202952Y-40838380D01*
X37393428Y-40838380D01*
X37488666Y-40790761D01*
X37536285Y-40743142D01*
X37583904Y-40647904D01*
X37583904Y-40409809D01*
X37536285Y-40314571D01*
X37488666Y-40266952D01*
X37393428Y-40219333D01*
X37202952Y-40219333D01*
X37107714Y-40266952D01*
X37060095Y-40314571D01*
X37012476Y-40409809D01*
G04 #@! TD*
M02*
